<svg width="325" height="169" viewBox="0 0 325 169" fill="none" xmlns="http://www.w3.org/2000/svg">
<mask id="mask0_486_2623" style="mask-type:alpha" maskUnits="userSpaceOnUse" x="34" y="0" width="257" height="169">
<rect x="34" y="0.794922" width="257" height="168.087" fill="url(#paint0_radial_486_2623)"/>
</mask>
<g mask="url(#mask0_486_2623)">
<circle opacity="0.08" cx="162.161" cy="128.856" r="141.299" fill="#6B57F9"/>
<circle opacity="0.15" cx="162.161" cy="128.856" r="111.708" fill="#6B57F9"/>
<circle opacity="0.2" cx="162.161" cy="128.857" r="88.0348" fill="#6B57F9"/>
<path d="M44.1861 83.9184C44.2291 83.758 44.4566 83.758 44.4996 83.9184L45.0596 86.0069C45.0746 86.0629 45.1183 86.1066 45.1743 86.1216L47.2628 86.6815C47.4231 86.7245 47.4231 86.952 47.2628 86.995L45.1743 87.555C45.1183 87.57 45.0746 87.6137 45.0596 87.6697L44.4996 89.7582C44.4566 89.9185 44.2291 89.9185 44.1861 89.7582L43.6262 87.6697C43.6112 87.6137 43.5674 87.57 43.5114 87.555L41.423 86.995C41.2626 86.952 41.2626 86.7245 41.423 86.6815L43.5114 86.1216C43.5674 86.1066 43.6112 86.0629 43.6262 86.0069L44.1861 83.9184Z" fill="#6B57F9"/>
<path d="M72.7448 51.0888C72.7878 50.9284 73.0153 50.9284 73.0583 51.0888L74.1122 55.0197C74.1272 55.0757 74.1709 55.1194 74.2269 55.1344L78.1578 56.1883C78.3181 56.2313 78.3181 56.4588 78.1578 56.5018L74.2269 57.5557C74.1709 57.5707 74.1272 57.6145 74.1122 57.6704L73.0583 61.6013C73.0153 61.7617 72.7878 61.7617 72.7448 61.6013L71.6909 57.6704C71.6758 57.6145 71.6321 57.5707 71.5761 57.5557L67.6452 56.5018C67.4849 56.4588 67.4849 56.2313 67.6452 56.1883L71.5761 55.1344C71.6321 55.1194 71.6758 55.0757 71.6909 55.0197L72.7448 51.0888Z" fill="#6B57F9"/>
<path d="M85.6733 74.7707C85.7163 74.6103 85.9438 74.6103 85.9868 74.7707L87.6993 81.1581C87.7143 81.2141 87.758 81.2578 87.814 81.2728L94.2015 82.9853C94.3618 83.0283 94.3618 83.2559 94.2014 83.2988L87.814 85.0114C87.758 85.0264 87.7143 85.0701 87.6993 85.1261L85.9868 91.5135C85.9438 91.6739 85.7163 91.6739 85.6733 91.5135L83.9607 85.1261C83.9457 85.0701 83.902 85.0264 83.846 85.0114L77.4586 83.2988C77.2983 83.2559 77.2983 83.0283 77.4586 82.9853L83.846 81.2728C83.902 81.2578 83.9457 81.2141 83.9607 81.1581L85.6733 74.7707Z" fill="#6B57F9"/>
<path d="M255.636 86.3762C255.702 86.1304 256.051 86.1304 256.117 86.3762L257.733 92.4028C257.756 92.4887 257.823 92.5557 257.908 92.5787L263.935 94.1945C264.181 94.2605 264.181 94.6093 263.935 94.6752L257.908 96.291C257.823 96.314 257.756 96.381 257.733 96.4669L256.117 102.494C256.051 102.739 255.702 102.739 255.636 102.494L254.02 96.4669C253.997 96.381 253.93 96.314 253.844 96.291L247.818 94.6752C247.572 94.6093 247.572 94.2605 247.818 94.1945L253.844 92.5787C253.93 92.5557 253.997 92.4887 254.02 92.4028L255.636 86.3762Z" fill="#6B57F9"/>
<path d="M200.632 57.0005C200.669 56.8616 200.866 56.8616 200.903 57.0005L201.816 60.4048C201.829 60.4533 201.867 60.4912 201.916 60.5042L205.32 61.4169C205.459 61.4542 205.459 61.6512 205.32 61.6884L201.916 62.6012C201.867 62.6142 201.829 62.652 201.816 62.7005L200.903 66.1049C200.866 66.2437 200.669 66.2437 200.632 66.1049L199.719 62.7005C199.706 62.652 199.668 62.6142 199.62 62.6012L196.215 61.6884C196.077 61.6512 196.077 61.4542 196.215 61.4169L199.62 60.5042C199.668 60.4912 199.706 60.4533 199.719 60.4048L200.632 57.0005Z" fill="#6B57F9"/>
<path d="M269.034 63.6554C269.061 63.5536 269.206 63.5536 269.233 63.6554L270.111 66.9316C270.121 66.9671 270.148 66.9949 270.184 67.0044L273.46 67.8828C273.562 67.9101 273.562 68.0546 273.46 68.0819L270.184 68.9602C270.148 68.9698 270.121 68.9975 270.111 69.0331L269.233 72.3092C269.206 72.4111 269.061 72.4111 269.034 72.3092L268.155 69.0331C268.146 68.9975 268.118 68.9698 268.083 68.9602L264.806 68.0819C264.705 68.0546 264.705 67.9101 264.806 67.8828L268.083 67.0044C268.118 66.9949 268.146 66.9671 268.155 66.9316L269.034 63.6554Z" fill="#6B57F9"/>
<path d="M114.697 25.3001C117.556 35.9694 111.224 46.9362 100.555 49.795C89.8858 52.6538 78.9191 46.3222 76.0603 35.6529C73.2014 24.9835 79.5331 14.0168 90.2024 11.158C100.872 8.29913 111.838 14.6308 114.697 25.3001Z" fill="#FFFEFC"/>
<path d="M90.2024 11.1584C100.872 8.2996 111.839 14.6307 114.698 25.3C117.556 35.9693 111.224 46.9363 100.555 49.7951C89.8856 52.6539 78.9186 46.3218 76.0598 35.6525C73.2012 24.9833 79.5332 14.0172 90.2024 11.1584ZM112.37 25.924C109.856 16.5397 100.21 10.9701 90.8254 13.4846C81.4413 15.9992 75.8725 25.6453 78.387 35.0295C80.9015 44.4137 90.5476 49.9825 99.9319 47.468C109.316 44.9533 114.885 35.308 112.37 25.924Z" fill="black"/>
<path d="M85.3439 38.3616L89.018 37.3771L89.2245 35.1486L86.6118 32.1461L85.3439 38.3616Z" fill="black"/>
<path d="M94.3571 33.0086L88.0672 25.8805L87.5846 29.0281L93.6294 36.1415L96.4111 35.3961L94.3571 33.0086Z" fill="black"/>
<path fill-rule="evenodd" clip-rule="evenodd" d="M101.919 33.9204C104.961 33.1053 106.766 29.9786 105.951 26.9367C105.136 23.8948 102.009 22.0896 98.9673 22.9047C95.9254 23.7198 94.1201 26.8465 94.9352 29.8884C95.7503 32.9303 98.877 34.7355 101.919 33.9204ZM101.34 31.7584C103.188 31.2633 104.284 29.3639 103.789 27.516C103.294 25.6681 101.394 24.5715 99.5466 25.0666C97.6987 25.5618 96.6021 27.4612 97.0972 29.3091C97.5923 31.1569 99.4917 32.2536 101.34 31.7584Z" fill="black"/>
<path d="M233.732 12.6068C243.601 15.2513 249.457 25.3955 246.813 35.2646C244.169 45.1337 234.024 50.9905 224.155 48.3461C214.286 45.7017 208.429 35.5574 211.074 25.6883C213.718 15.8192 223.862 9.96241 233.732 12.6068Z" fill="#FFFEFC" stroke="black" stroke-width="3"/>
<path d="M230.034 37.9683C229.993 37.772 229.961 37.5468 229.965 37.3005C229.969 37.0543 229.973 36.808 230.014 36.5406C229.75 36.7173 229.465 36.8574 229.152 36.9898C228.838 37.1222 228.503 37.218 228.147 37.2772C227.791 37.3364 227.414 37.3591 226.987 37.3374C226.588 37.3234 226.148 37.2363 225.686 37.1126C224.965 36.9194 224.304 36.6184 223.752 36.2541C223.2 35.8898 222.766 35.4333 222.405 34.9345C222.072 34.4435 221.85 33.8891 221.729 33.3002C221.609 32.7113 221.648 32.1034 221.81 31.4975C222.212 29.9972 223.077 28.9612 224.419 28.4548C225.769 27.9196 227.55 27.9641 229.772 28.5594L231.82 29.1083L232.044 28.2716C232.23 27.5791 232.146 26.9691 231.821 26.4492C231.468 25.9216 230.887 25.5496 230.051 25.3254C229.301 25.1244 228.706 25.1506 228.275 25.3752C227.843 25.5998 227.554 25.9862 227.408 26.5344L223.743 25.5526C223.906 24.9467 224.205 24.4083 224.611 23.9297C225.018 23.4511 225.553 23.0689 226.181 22.8041C226.808 22.5393 227.536 22.3632 228.348 22.3334C229.16 22.3036 230.035 22.3835 231.016 22.6464C231.881 22.8783 232.658 23.2101 233.354 23.6131C234.05 24.0161 234.6 24.5035 235.032 25.0832C235.472 25.634 235.766 26.2692 235.884 26.9813C236.032 27.701 235.983 28.461 235.758 29.2977L234.112 35.443C233.903 36.222 233.791 36.8722 233.746 37.3859C233.701 37.8995 233.729 38.371 233.831 38.8001L233.769 39.031L230.018 38.026L230.034 37.9683ZM227.231 34.4651C227.606 34.5656 227.967 34.6006 228.308 34.5991C228.649 34.5976 228.968 34.5595 229.266 34.4848C229.565 34.4101 229.805 34.32 230.061 34.1722C230.281 34.0454 230.479 33.8821 230.641 33.7399L231.298 31.2876L229.423 30.7851C228.846 30.6305 228.34 30.5567 227.905 30.5639C227.47 30.5711 227.085 30.6226 226.8 30.7627C226.486 30.8951 226.252 31.0795 226.03 31.3294C225.837 31.587 225.702 31.86 225.617 32.1774C225.486 32.6678 225.551 33.1182 225.804 33.5571C226.036 33.9595 226.509 34.2718 227.231 34.4651Z" fill="black"/>
<g style="mix-blend-mode:hard-light">
<path d="M162.079 68.2583V93.5365" stroke="url(#paint1_linear_486_2623)" stroke-width="1.08"/>
</g>
<g style="mix-blend-mode:hard-light">
<path d="M162.079 68.2583V73.6045C162.079 76.7759 164.642 79.3507 167.814 79.3645L209.609 79.5456C212.781 79.5593 215.344 82.1341 215.344 85.3055V97.7804" stroke="url(#paint2_linear_486_2623)" stroke-width="1.08"/>
</g>
<g style="mix-blend-mode:hard-light">
<path d="M162.079 68.2583V73.6045C162.079 76.7759 159.515 79.3507 156.344 79.3645L114.548 79.5456C111.376 79.5593 108.813 82.1341 108.813 85.3055V97.7804" stroke="url(#paint3_linear_486_2623)" stroke-width="1.08"/>
</g>
<g clip-path="url(#clip0_486_2623)">
<path d="M160.229 21.2276C180.763 19.9326 193.866 42.7401 181.93 59.6136C171.836 73.8824 150.353 73.1052 141.245 58.2287C131.796 42.7945 142.2 22.3644 160.229 21.2276ZM161.093 23.8211C143.976 24.6294 134.341 44.0844 144.355 58.1439C153.259 70.6439 172.066 70.1485 180.339 57.2448C189.819 42.4565 178.561 22.9964 161.093 23.8211Z" fill="black"/>
<path d="M161.093 23.8213C178.561 22.9965 189.82 42.4575 180.339 57.245C172.066 70.1487 153.259 70.644 144.355 58.1441C134.341 44.0845 143.976 24.6296 161.093 23.8213ZM170.793 38.4064V35.8561L170.663 35.7264H155.967C154.389 35.7264 152.74 36.9039 151.988 38.2318C151.594 38.9277 151.25 39.8744 151.211 40.6533C151.961 39.8182 152.922 39.2182 153.976 38.8361C154.263 38.7323 155.209 38.4064 155.448 38.4064H157.652C157.106 43.4491 156.946 49.1255 153.514 53.1628C153.479 53.3953 155.197 54.6566 155.448 54.9177C159.419 50.4084 159.657 44.1018 160.332 38.4073H164.396C164.094 42.6002 163.458 46.7697 163.614 50.9894C163.77 54.5736 166.114 57.0081 169.728 55.1944C171.996 54.0558 172.945 51.7735 172.304 49.301C172.279 49.2024 172.31 49.02 172.177 49.0416C172.008 50.9565 170.748 52.2109 169 52.8239C168.058 53.1541 166.985 53.5501 166.54 52.3856C165.799 50.4387 166.36 45.5992 166.557 43.3791C166.704 41.7227 166.935 40.0654 167.076 38.4082H170.793V38.4064Z" fill="white"/>
<path d="M170.793 38.4063H167.076C166.936 40.0636 166.705 41.7209 166.557 43.3773C166.36 45.5973 165.799 50.4369 166.54 52.3837C166.984 53.5482 168.059 53.1523 169 52.822C170.748 52.2082 172.008 50.9538 172.177 49.0398C172.309 49.0182 172.278 49.2015 172.304 49.2992C172.945 51.7717 171.996 54.0531 169.728 55.1925C166.114 57.0071 163.771 54.5718 163.614 50.9876C163.458 46.7679 164.094 42.5983 164.396 38.4055H160.332C159.657 44.1 159.419 50.4075 155.448 54.9159C155.196 54.6557 153.479 53.3944 153.514 53.1609C156.946 49.1237 157.105 43.4482 157.652 38.4046H155.448C155.21 38.4046 154.264 38.7305 153.976 38.8343C152.922 39.2164 151.961 39.8172 151.211 40.6515C151.25 39.8725 151.594 38.9259 151.988 38.23C152.74 36.9021 154.389 35.7246 155.967 35.7246H170.663L170.793 35.8543V38.4046V38.4063Z" fill="black"/>
</g>
<circle cx="108.813" cy="109.625" r="16.74" fill="#0000EA" stroke="#4A4AFF" stroke-width="1.08"/>
<rect x="109.377" y="101.75" width="3.48139" height="9.68769" rx="1.74069" transform="rotate(-45 109.377 101.75)" fill="#6BED89"/>
<path d="M104.806 99.6902C106.023 99.6902 107.009 100.677 107.009 101.894V107.094C107.009 107.45 106.721 107.738 106.365 107.738H101.165C99.9483 107.738 98.9616 106.751 98.9615 105.534C98.9615 104.317 99.9482 103.33 101.165 103.33H102.33C102.48 103.33 102.602 103.209 102.602 103.059V101.894C102.602 100.677 103.588 99.6902 104.806 99.6902Z" fill="#6BED89"/>
<rect x="111.838" y="108.6" width="3.48139" height="9.68769" rx="1.74069" transform="rotate(-135 111.838 108.6)" fill="#6BED89"/>
<path d="M119.416 109.797C119.416 115.76 114.582 120.594 108.619 120.594C102.656 120.594 97.8218 115.76 97.8218 109.797" stroke="#6BED89" stroke-width="1.62824"/>
<circle cx="215.478" cy="109.593" r="16.7852" transform="rotate(-0.113114 215.478 109.593)" fill="url(#paint4_linear_486_2623)" stroke="#6B57F9" stroke-width="1.17032"/>
<path d="M202.935 106.276C202.837 106.062 203.072 105.848 203.276 105.965L210.145 109.894L214.613 114.909L207.543 116.058L202.935 106.276ZM227.818 105.917C228.023 105.799 228.258 106.012 228.16 106.227L223.591 116.027L216.517 114.905L220.966 109.873L227.818 105.917ZM215.268 104.381C215.471 104.116 215.658 104.155 215.849 104.401L220.375 110.117L215.992 114.072L215.548 105.01L215.141 114.074L210.757 110.126L215.268 104.381Z" fill="url(#paint5_linear_486_2623)"/>
<circle cx="162.079" cy="109.593" r="16.7852" transform="rotate(-0.113114 162.079 109.593)" fill="#56ADDA" stroke="#0688CA" stroke-width="1.17032"/>
<path d="M161.741 114.507L158.424 116.179L158.424 119.835L161.741 121.507L161.741 114.507Z" fill="white"/>
<path d="M170 117.754L162.554 121.507L162.554 109.935L165.871 108.263L165.871 116.588L170 114.507L170 117.754Z" fill="white"/>
<path d="M161.522 106.417L161.522 104.991L162.774 104.36L162.774 105.786L161.522 106.417Z" fill="white"/>
<path fill-rule="evenodd" clip-rule="evenodd" d="M165.871 99.9374L165.871 107.347L161.741 109.428L161.741 113.591L158.424 115.263L158.424 103.691L165.871 99.9374ZM163.586 106.292L163.586 103.035L160.709 104.485L160.709 107.743L163.586 106.292Z" fill="white"/>
<path d="M165.368 99.2746L158.018 102.979L154.797 101.356L162.148 97.6512L165.368 99.2746Z" fill="white"/>
<path d="M154.295 113.591L154.295 102.019L157.612 103.691L157.612 115.263L154.295 113.591Z" fill="white"/>
<path d="M166.683 115.263L169.498 113.844L166.683 112.426L166.683 115.263Z" fill="white"/>
</g>
<defs>
<radialGradient id="paint0_radial_486_2623" cx="0" cy="0" r="1" gradientUnits="userSpaceOnUse" gradientTransform="translate(162.5 76.0137) rotate(90) scale(76.0592 155.632)">
<stop offset="0.783654" stop-color="white"/>
<stop offset="1" stop-color="white" stop-opacity="0"/>
</radialGradient>
<linearGradient id="paint1_linear_486_2623" x1="162.579" y1="68.2583" x2="162.579" y2="93.5365" gradientUnits="userSpaceOnUse">
<stop stop-color="white"/>
<stop offset="0.6" stop-color="#C7ECFF"/>
<stop offset="1" stop-color="#0688C9"/>
</linearGradient>
<linearGradient id="paint2_linear_486_2623" x1="188.712" y1="68.2583" x2="188.712" y2="97.7804" gradientUnits="userSpaceOnUse">
<stop stop-color="white"/>
<stop offset="0.4" stop-color="#D3CDFF"/>
<stop offset="1" stop-color="#6B57F9"/>
</linearGradient>
<linearGradient id="paint3_linear_486_2623" x1="135.446" y1="68.2583" x2="135.446" y2="97.7804" gradientUnits="userSpaceOnUse">
<stop stop-color="white"/>
<stop offset="0.4" stop-color="#CECEFF"/>
<stop offset="1" stop-color="#4A4AFF"/>
</linearGradient>
<linearGradient id="paint4_linear_486_2623" x1="230.373" y1="96.6231" x2="194.809" y2="128.56" gradientUnits="userSpaceOnUse">
<stop stop-color="#6B57F9"/>
<stop offset="0.279308" stop-color="#9787FF"/>
<stop offset="0.466037" stop-color="#816FFC"/>
<stop offset="0.720814" stop-color="#6B57F9"/>
<stop offset="1" stop-color="#6B57F9"/>
</linearGradient>
<linearGradient id="paint5_linear_486_2623" x1="226.508" y1="104.177" x2="202.931" y2="116.067" gradientUnits="userSpaceOnUse">
<stop stop-color="white"/>
<stop offset="0.45" stop-color="white"/>
<stop offset="1" stop-color="#CCCCCC"/>
</linearGradient>
<clipPath id="clip0_486_2623">
<rect width="48.7861" height="48.691" fill="white" transform="translate(137.686 21.1749)"/>
</clipPath>
</defs>
</svg>
