<svg width="17" height="17" viewBox="0 0 17 17" fill="none" xmlns="http://www.w3.org/2000/svg">
<path d="M3.83325 10.5C3.212 10.5 2.90137 10.5 2.65634 10.3985C2.32964 10.2632 2.07007 10.0036 1.93475 9.67691C1.83325 9.43188 1.83325 9.12125 1.83325 8.5V3.96666C1.83325 3.21992 1.83325 2.84656 1.97858 2.56134C2.10641 2.31046 2.31038 2.10648 2.56126 1.97865C2.84648 1.83333 3.21985 1.83333 3.96659 1.83333H8.49992C9.12117 1.83333 9.4318 1.83333 9.67683 1.93482C10.0035 2.07015 10.2631 2.32971 10.3984 2.65642C10.4999 2.90145 10.4999 3.21207 10.4999 3.83333M8.63325 15.1667H13.0333C13.78 15.1667 14.1534 15.1667 14.4386 15.0213C14.6895 14.8935 14.8934 14.6895 15.0213 14.4386C15.1666 14.1534 15.1666 13.7801 15.1666 13.0333V8.63333C15.1666 7.88659 15.1666 7.51322 15.0213 7.22801C14.8934 6.97713 14.6895 6.77315 14.4386 6.64532C14.1534 6.5 13.78 6.5 13.0333 6.5H8.63325C7.88652 6.5 7.51315 6.5 7.22793 6.64532C6.97705 6.77315 6.77307 6.97713 6.64524 7.22801C6.49992 7.51322 6.49992 7.88659 6.49992 8.63333V13.0333C6.49992 13.7801 6.49992 14.1534 6.64524 14.4386C6.77307 14.6895 6.97705 14.8935 7.22793 15.0213C7.51315 15.1667 7.88652 15.1667 8.63325 15.1667Z" stroke="#757575" stroke-width="1.33333" stroke-linecap="round" stroke-linejoin="round"/>
</svg>
