<svg width="147" height="99" viewBox="0 0 147 99" fill="none" xmlns="http://www.w3.org/2000/svg">
<g filter="url(#filter0_d_1590_1957)">
<path fill-rule="evenodd" clip-rule="evenodd" d="M69.647 43.3814L58.417 47.1868L69.647 50.9921L73.8025 47.1868L69.647 43.3814ZM73.928 46.5947L70.0187 43.0148L73.928 33.3404V46.5947ZM74.4491 46.5947L78.3583 43.0148L74.4491 33.3404V46.5947ZM89.96 47.1868L78.73 50.9921L74.5745 47.1868L78.73 43.3814L89.96 47.1868ZM74.4491 61.0331L78.3583 51.3587L74.4491 47.7788V61.0331ZM70.0187 51.3587L73.928 47.7788V61.0331L70.0187 51.3587ZM75.0881 33.5308L78.8645 42.8763L89.0699 46.3345L75.0881 33.5308ZM59.3072 46.3345L73.2889 33.5308L69.5126 42.8763L59.3072 46.3345ZM69.5126 51.4972L59.3072 48.0391L73.2889 60.8428L69.5126 51.4972ZM89.0699 48.0391L75.0881 60.8428L78.8645 51.4972L89.0699 48.0391Z" fill="#FF8A00"/>
</g>
<g filter="url(#filter1_d_1590_1957)">
<path d="M22.2104 65.5317H32.9302C33.0034 65.5317 33.1656 65.6155 33.4167 65.7831C33.6783 65.9506 33.9556 66.1496 34.2486 66.38C34.552 66.5999 34.8397 66.8251 35.1118 67.0555C35.3943 67.2859 35.5879 67.4639 35.6925 67.5896H25.8203V68.6577H35.8338V73.8573H25.114C25.0408 73.8573 24.8734 73.7735 24.6118 73.606C24.3607 73.4384 24.0834 73.2447 23.78 73.0247C23.487 72.7943 23.1992 72.564 22.9167 72.3336C22.6447 72.1032 22.4563 71.9251 22.3517 71.7995H32.2239V70.6999H22.2104V65.5317Z" fill="#FFE9CE"/>
<path d="M40.7721 75.2711L41.2272 67.5739H37.3035V65.5317H50.1734V67.5739H44.8371V71.8937H48.7452L48.2272 72.2864C47.9447 72.4435 47.6151 72.6268 47.2384 72.8362C46.8722 73.0457 46.4851 73.2604 46.077 73.4803C45.6794 73.7002 45.2818 73.9149 44.8842 74.1243C44.497 74.3443 44.1465 74.538 43.8326 74.7056C43.5292 74.8731 43.278 75.0093 43.0792 75.114C42.8804 75.2187 42.7758 75.2711 42.7653 75.2711H40.7721Z" fill="#FFE9CE"/>
<path d="M52.6439 73.8573H48.2336L58.7807 65.5317H63.5991V73.8573H58.7964L56.5834 71.8309H60.0049V68.0294L52.6439 73.8573Z" fill="#FFE9CE"/>
<path d="M73.4489 69.7574V67.5896H68.6619V73.8573H65.0678V65.5317H77.0745V67.5896L73.4489 69.7574Z" fill="#FFE9CE"/>
<path d="M88.4707 68.8934L92.0963 71.0612V73.8573H78.5514V65.5317H92.0963C92.0753 65.605 92.0544 65.7255 92.0335 65.893C92.0126 66.0501 91.9864 66.2282 91.955 66.4271C91.9236 66.6261 91.887 66.8303 91.8451 67.0398C91.8138 67.2387 91.7719 67.4168 91.7196 67.5739H82.1613V71.7995H88.4707V68.8934Z" fill="#FFE9CE"/>
<path d="M101.949 69.7574V67.5896H97.162V73.8573H93.5678V65.5317H105.575V67.5896L101.949 69.7574Z" fill="#FFE9CE"/>
<path d="M110.708 76.0251L107.051 73.8573V65.5317H110.708V76.0251Z" fill="#FFE9CE"/>
<path d="M112.182 73.8573V65.5317H123.419C123.681 65.5317 123.953 65.5841 124.236 65.6888C124.518 65.7935 124.774 65.9402 125.005 66.1287C125.235 66.3067 125.423 66.5266 125.57 66.7884C125.716 67.0502 125.789 67.3382 125.789 67.6524V71.7209C125.789 71.9618 125.748 72.2079 125.664 72.4592C125.591 72.7106 125.46 72.941 125.271 73.1504C125.094 73.3599 124.853 73.5327 124.549 73.6688C124.246 73.7945 123.869 73.8573 123.419 73.8573H112.182ZM115.792 71.7995H121.991C122.085 71.7366 122.148 71.6319 122.18 71.4853V67.8723C122.169 67.8095 122.148 67.7676 122.117 67.7467C122.096 67.7152 122.059 67.6576 122.007 67.5739H115.792V71.7995Z" fill="#FFE9CE"/>
<path d="M110.867 65.3735V76.3022L110.627 76.1606L106.971 73.9927L106.894 73.9468V65.3735H110.867ZM50.3315 65.3735V67.7319H44.9946V71.7358H49.2144L48.8403 72.02L48.3228 72.4126L48.314 72.4194L48.3042 72.4243C48.0221 72.5812 47.692 72.7631 47.3159 72.9722L47.3169 72.9731C46.9498 73.1831 46.5614 73.3974 46.1528 73.6177C45.7543 73.8381 45.356 74.0542 44.9575 74.2642C44.5718 74.4832 44.2215 74.6757 43.9077 74.8433L43.9087 74.8442C43.605 75.0119 43.3528 75.1481 43.1528 75.2534C43.0533 75.3059 42.9762 75.3456 42.9224 75.3726C42.8957 75.3859 42.873 75.397 42.856 75.4048C42.8478 75.4085 42.839 75.4123 42.8306 75.4155C42.8264 75.4171 42.8201 75.4203 42.813 75.4224C42.8099 75.4233 42.7899 75.4292 42.7651 75.4292H40.605L40.6147 75.2622L41.0601 67.7319H37.146V65.3735H50.3315ZM32.9302 65.3735C32.9749 65.3735 33.019 65.386 33.0552 65.3989C33.0934 65.4126 33.1351 65.4318 33.1792 65.4546C33.2671 65.5 33.375 65.5656 33.5015 65.6499C33.7667 65.8198 34.0468 66.0211 34.3413 66.2524L34.7896 66.5894C34.9341 66.7025 35.0746 66.8173 35.2114 66.9331C35.4946 67.1641 35.6988 67.3505 35.814 67.4888L36.0298 67.7476H25.978V68.4995H35.9917V74.0151H25.1138C25.0695 74.0151 25.026 74.0033 24.9897 73.9907C24.9511 73.9773 24.9082 73.9587 24.8628 73.936C24.772 73.8906 24.6597 73.8238 24.5269 73.7388L24.5239 73.7378L24.6118 73.606L24.5239 73.7368C24.2709 73.568 23.9916 73.3736 23.687 73.1528L23.6821 73.1489C23.3885 72.918 23.1001 72.6865 22.8169 72.4556L22.8149 72.4536C22.5421 72.2226 22.344 72.0378 22.23 71.9009L22.0151 71.6411H32.0659V70.8579H22.0522V65.3735H32.9302ZM63.7573 65.3735V74.0151H58.7349L58.6899 73.9741L56.4771 71.9478L56.1772 71.6733H59.8472V68.355L52.7417 73.981L52.6987 74.0151H47.7788L48.1362 73.7329L58.6831 65.4077L58.7261 65.3735H63.7573ZM77.2319 65.3735V67.6792L77.1558 67.7251L73.5298 69.8931L73.2915 70.0356V67.7476H68.8198V74.0151H64.9097V65.3735H77.2319ZM105.732 65.3735V67.6792L105.656 67.7251L102.03 69.8931L101.792 70.0356V67.7476H97.3198V74.0151H93.4097V65.3735H105.732ZM123.419 65.3735C123.702 65.3735 123.993 65.4303 124.291 65.5405C124.588 65.6507 124.858 65.8051 125.101 66.0034C125.349 66.1949 125.551 66.4317 125.708 66.7114C125.868 66.9979 125.948 67.313 125.948 67.6528V71.7212C125.948 71.9784 125.902 72.2389 125.815 72.5024C125.735 72.7783 125.592 73.0306 125.389 73.2563L125.388 73.2554C125.193 73.4845 124.933 73.6699 124.614 73.813L124.61 73.8149C124.282 73.9509 123.883 74.0151 123.419 74.0151H112.024V65.3735H123.419ZM115.95 71.6411H121.935C121.971 71.6054 122.002 71.55 122.022 71.4624V67.8901C122.021 67.8838 122.019 67.8786 122.018 67.8745C122.017 67.8725 122.017 67.871 122.016 67.8696L122.002 67.8608L121.985 67.8345C121.97 67.8119 121.948 67.7774 121.919 67.7319H115.95V71.6411ZM92.2544 74.0151H78.3931V65.3735H92.3052L92.2485 65.5747C92.2312 65.6354 92.2108 65.7458 92.1899 65.9126V65.9136C92.1688 66.0722 92.1424 66.2518 92.1108 66.4517C92.0795 66.6505 92.0421 66.8542 92.0005 67.063L92.0015 67.064C91.969 67.2697 91.9252 67.4567 91.8696 67.6235L91.8335 67.7319H82.3188V71.6411H88.313V68.6147L88.5513 68.7583L92.1772 70.9253L92.2544 70.9712V74.0151Z" stroke="#000908" stroke-width="0.315789"/>
</g>
<path d="M40.2402 79.9014C40.2769 79.6815 40.2952 79.4585 40.2952 79.2325V77.1983C40.2952 76.9844 40.2769 76.7645 40.2402 76.5385H41.0459C41.2962 76.5385 41.5067 76.6087 41.6776 76.7492C41.8485 76.8836 41.934 77.0669 41.934 77.2991C41.934 77.5251 41.8455 77.7145 41.6685 77.8672C41.5952 77.9405 41.5312 77.9863 41.4762 78.0046C41.6288 78.023 41.7631 78.0779 41.8791 78.1696C42.1049 78.3528 42.2178 78.5911 42.2178 78.8843C42.2178 79.1775 42.1079 79.4219 41.8882 79.6174C41.6746 79.8068 41.3816 79.9014 41.0093 79.9014H40.2402ZM40.7438 79.2325C40.7438 79.2753 40.7529 79.4066 40.7713 79.6265H41.0093C41.2412 79.6265 41.4274 79.5624 41.5678 79.4341C41.7082 79.3058 41.7784 79.1317 41.7784 78.9118C41.7784 78.6919 41.7082 78.5178 41.5678 78.3895C41.4335 78.2429 41.2473 78.1696 41.0093 78.1696H40.7438V79.2325ZM40.7713 76.8134C40.7529 77.015 40.7438 77.1433 40.7438 77.1983V77.8947H41.0551C41.1832 77.8947 41.2931 77.8427 41.3847 77.7389C41.4762 77.6289 41.522 77.5006 41.522 77.354C41.522 77.2074 41.4854 77.0822 41.4121 76.9783C41.3206 76.8684 41.2016 76.8134 41.0551 76.8134H40.7713Z" fill="white"/>
<path d="M44.9161 79.9014C45.0564 79.7182 45.1694 79.5257 45.2548 79.3242L46.2528 77.1708C46.3321 76.9936 46.4053 76.7828 46.4725 76.5385H46.8753C46.9364 76.7645 47.0127 76.9753 47.1042 77.1708L48.093 79.3242C48.1723 79.5074 48.2883 79.6998 48.4409 79.9014H47.8092C47.7359 79.6204 47.6596 79.4066 47.5803 79.26L47.1591 78.3528H46.0422L45.6302 79.26C45.5325 79.5105 45.4593 79.7243 45.4105 79.9014H44.9161ZM46.1612 78.0963H47.0584L46.6007 77.07L46.1612 78.0963Z" fill="white"/>
<path d="M53.3414 76.8775C53.0728 76.8348 52.8501 76.8134 52.6731 76.8134H52.3984C52.3862 76.8806 52.3801 76.9447 52.3801 77.0058V79.2325C52.3801 79.4708 52.4014 79.6937 52.4442 79.9014H51.8582C51.9009 79.6937 51.9223 79.4708 51.9223 79.2325V77.0058C51.9223 76.9447 51.9162 76.8806 51.904 76.8134H51.6293C51.4523 76.8134 51.2295 76.8348 50.961 76.8775V76.5385H53.3414V76.8775Z" fill="white"/>
<path d="M58.2878 76.8775C58.0192 76.8348 57.7964 76.8134 57.6194 76.8134H57.3447C57.3325 76.8806 57.3264 76.9447 57.3264 77.0058V79.2325C57.3264 79.4708 57.3478 79.6937 57.3905 79.9014H56.8046C56.8473 79.6937 56.8687 79.4708 56.8687 79.2325V77.0058C56.8687 76.9447 56.8626 76.8806 56.8504 76.8134H56.5757C56.3987 76.8134 56.1759 76.8348 55.9073 76.8775V76.5385H58.2878V76.8775Z" fill="white"/>
<path d="M61.696 79.2325C61.696 79.2753 61.7052 79.4066 61.7235 79.6265H62.3186C62.5627 79.6265 62.7855 79.6052 62.9869 79.5624V79.9014H61.1925C61.2291 79.6815 61.2474 79.4585 61.2474 79.2325V77.1983C61.2474 76.9844 61.2291 76.7645 61.1925 76.5385H61.7692C61.7204 76.7584 61.696 76.9783 61.696 77.1983V79.2325Z" fill="white"/>
<path d="M66.3943 79.2325C66.3943 79.2753 66.4034 79.4066 66.4217 79.6265H67.0168C67.261 79.6265 67.4837 79.6052 67.6852 79.5624V79.9014H65.8907C65.9273 79.6815 65.9456 79.4585 65.9456 79.2325V77.1983C65.9456 76.9844 65.9273 76.7645 65.8907 76.5385H67.4197V76.8775C67.1633 76.8348 66.9405 76.8134 66.7513 76.8134H66.4217C66.4156 76.8806 66.4095 76.9478 66.4034 77.015C66.3973 77.0822 66.3943 77.1433 66.3943 77.1983V78.0779H66.7513C66.9039 78.0779 67.1267 78.0535 67.4197 78.0046V78.417C67.2304 78.3742 67.0077 78.3528 66.7513 78.3528H66.3943V79.2325Z" fill="white"/>
<path d="M77.0606 76.8775C76.7921 76.8348 76.5693 76.8134 76.3923 76.8134H76.1176C76.1054 76.8806 76.0993 76.9447 76.0993 77.0058V79.2325C76.0993 79.4708 76.1207 79.6937 76.1634 79.9014H75.5775C75.6202 79.6937 75.6415 79.4708 75.6415 79.2325V77.0058C75.6415 76.9447 75.6354 76.8806 75.6232 76.8134H75.3486C75.1716 76.8134 74.9488 76.8348 74.6802 76.8775V76.5385H77.0606V76.8775Z" fill="white"/>
<path d="M79.5808 79.9014C79.7212 79.7182 79.8341 79.5257 79.9196 79.3242L80.9175 77.1708C80.9968 76.9936 81.0701 76.7828 81.1372 76.5385H81.5401C81.6011 76.7645 81.6774 76.9753 81.769 77.1708L82.7577 79.3242C82.8371 79.5074 82.9531 79.6998 83.1056 79.9014H82.4739C82.4007 79.6204 82.3244 79.4066 82.245 79.26L81.8239 78.3528H80.7069L80.2949 79.26C80.1973 79.5105 80.124 79.7243 80.0752 79.9014H79.5808ZM80.8259 78.0963H81.7232L81.2654 77.07L80.8259 78.0963Z" fill="white"/>
<path d="M88.4731 77.4273C88.2106 76.9875 87.8902 76.7676 87.5117 76.7676C87.1394 76.7676 86.8434 76.9172 86.6237 77.2166C86.4039 77.5159 86.2941 77.8519 86.2941 78.2245C86.2941 78.5972 86.3978 78.924 86.6054 79.205C86.8434 79.5105 87.1364 79.6632 87.4843 79.6632C87.9359 79.6632 88.3205 79.4341 88.6379 78.9759H88.6653V79.4433C88.3296 79.7793 87.9329 79.9473 87.4751 79.9473C87.0174 79.9473 86.6237 79.7823 86.2941 79.4524C85.9706 79.1164 85.8088 78.7072 85.8088 78.2245C85.8088 77.7419 85.9706 77.3326 86.2941 76.9967C86.6176 76.6607 86.996 76.4927 87.4293 76.4927C87.8627 76.4927 88.2167 76.6087 88.4914 76.8409V77.4273H88.4731Z" fill="white"/>
<path d="M93.9047 76.8775C93.6361 76.8348 93.4134 76.8134 93.2364 76.8134H92.9617C92.9495 76.8806 92.9434 76.9447 92.9434 77.0058V79.2325C92.9434 79.4708 92.9647 79.6937 93.0075 79.9014H92.4215C92.4642 79.6937 92.4856 79.4708 92.4856 79.2325V77.0058C92.4856 76.9447 92.4795 76.8806 92.4673 76.8134H92.1926C92.0156 76.8134 91.7928 76.8348 91.5243 76.8775V76.5385H93.9047V76.8775Z" fill="white"/>
<path d="M97.3862 76.5385C97.3374 76.7584 97.3129 76.9783 97.3129 77.1983V79.2325C97.3129 79.4708 97.3374 79.6937 97.3862 79.9014H96.8094C96.846 79.6815 96.8643 79.4585 96.8643 79.2325V77.1983C96.8643 76.9844 96.846 76.7645 96.8094 76.5385H97.3862Z" fill="white"/>
<path d="M103.124 77.4273C102.862 76.9875 102.541 76.7676 102.163 76.7676C101.791 76.7676 101.495 76.9172 101.275 77.2166C101.055 77.5159 100.945 77.8519 100.945 78.2245C100.945 78.5972 101.049 78.924 101.257 79.205C101.495 79.5105 101.788 79.6632 102.136 79.6632C102.587 79.6632 102.972 79.4341 103.289 78.9759H103.317V79.4433C102.981 79.7793 102.584 79.9473 102.126 79.9473C101.669 79.9473 101.275 79.7823 100.945 79.4524C100.622 79.1164 100.46 78.7072 100.46 78.2245C100.46 77.7419 100.622 77.3326 100.945 76.9967C101.269 76.6607 101.647 76.4927 102.081 76.4927C102.514 76.4927 102.868 76.6087 103.143 76.8409V77.4273H103.124Z" fill="white"/>
<path d="M106.322 79.0401C106.548 79.4555 106.823 79.6632 107.146 79.6632C107.39 79.6632 107.573 79.5929 107.695 79.4524C107.817 79.3058 107.879 79.1378 107.879 78.9485C107.879 78.6919 107.75 78.4964 107.494 78.362L107.009 78.0963C106.649 77.8947 106.469 77.6137 106.469 77.2532C106.469 76.9967 106.581 76.789 106.807 76.6301C106.936 76.5385 107.113 76.4927 107.338 76.4927C107.564 76.4927 107.753 76.5629 107.906 76.7034V77.1708H107.888C107.851 77.1158 107.824 77.07 107.805 77.0333C107.695 76.8562 107.555 76.7676 107.384 76.7676C107.219 76.7676 107.103 76.8042 107.036 76.8775C106.926 76.9692 106.871 77.1005 106.871 77.2716C106.871 77.4365 106.984 77.577 107.21 77.6931L107.659 77.9313C108.086 78.1512 108.3 78.472 108.3 78.8935C108.3 79.205 108.193 79.4524 107.979 79.6357C107.753 79.8434 107.476 79.9473 107.146 79.9473C106.823 79.9473 106.542 79.8373 106.304 79.6174V79.0401H106.322Z" fill="white"/>
<defs>
<filter id="filter0_d_1590_1957" x="25.3538" y="0.908877" width="97.6693" height="93.8189" filterUnits="userSpaceOnUse" color-interpolation-filters="sRGB">
<feFlood flood-opacity="0" result="BackgroundImageFix"/>
<feColorMatrix in="SourceAlpha" type="matrix" values="0 0 0 0 0 0 0 0 0 0 0 0 0 0 0 0 0 0 127 0" result="hardAlpha"/>
<feOffset dy="0.631579"/>
<feGaussianBlur stdDeviation="16.5316"/>
<feComposite in2="hardAlpha" operator="out"/>
<feColorMatrix type="matrix" values="0 0 0 0 1 0 0 0 0 1 0 0 0 0 1 0 0 0 0.3 0"/>
<feBlend mode="normal" in2="BackgroundImageFix" result="effect1_dropShadow_1590_1957"/>
<feBlend mode="normal" in="SourceGraphic" in2="effect1_dropShadow_1590_1957" result="shape"/>
</filter>
<filter id="filter1_d_1590_1957" x="0.851419" y="45.9686" width="146.08" height="53.016" filterUnits="userSpaceOnUse" color-interpolation-filters="sRGB">
<feFlood flood-opacity="0" result="BackgroundImageFix"/>
<feColorMatrix in="SourceAlpha" type="matrix" values="0 0 0 0 0 0 0 0 0 0 0 0 0 0 0 0 0 0 127 0" result="hardAlpha"/>
<feOffset dy="1.57895"/>
<feGaussianBlur stdDeviation="10.4132"/>
<feComposite in2="hardAlpha" operator="out"/>
<feColorMatrix type="matrix" values="0 0 0 0 1 0 0 0 0 1 0 0 0 0 1 0 0 0 0.5 0"/>
<feBlend mode="normal" in2="BackgroundImageFix" result="effect1_dropShadow_1590_1957"/>
<feBlend mode="normal" in="SourceGraphic" in2="effect1_dropShadow_1590_1957" result="shape"/>
</filter>
</defs>
</svg>
