<svg width="331" height="200" viewBox="0 0 331 200" fill="none" xmlns="http://www.w3.org/2000/svg">
<mask id="mask0_196_1586" style="mask-type:alpha" maskUnits="userSpaceOnUse" x="1" y="0" width="330" height="200">
<rect x="1" width="330" height="200" fill="url(#paint0_radial_196_1586)"/>
</mask>
<g mask="url(#mask0_196_1586)">
<circle opacity="0.08" cx="165.565" cy="164.435" r="181.435" fill="#6B57F9"/>
<circle opacity="0.15" cx="165.565" cy="164.435" r="143.438" fill="#6B57F9"/>
<circle opacity="0.2" cx="165.565" cy="164.435" r="113.041" fill="#6B57F9"/>
</g>
<ellipse cx="172" cy="157.5" rx="38" ry="8.5" fill="#39316E"/>
<path d="M145.042 41.3399C145.113 40.7765 145.772 40.5055 146.219 40.8556L157.258 49.4962C157.367 49.581 157.491 49.6288 157.618 49.6446L167.104 58.1905L176.415 49.7579C176.56 49.7769 176.711 49.7558 176.849 49.6837L190.095 42.7442C190.582 42.4891 191.166 42.8421 191.166 43.3917V54.5235C191.166 54.984 191.587 55.3299 192.038 55.2413L204.934 52.713C205.429 52.6162 205.871 53.0381 205.798 53.5372L203.774 67.3136C203.703 67.7957 204.114 68.211 204.597 68.1446L215.869 66.5938C216.39 66.5224 216.813 67.0065 216.674 67.5128L212.722 81.8927C212.616 82.2772 212.839 82.6756 213.221 82.7882L224.259 86.0362C224.769 86.1863 224.954 86.8134 224.607 87.2159L215.643 97.5978C215.359 97.9263 215.422 98.4279 215.779 98.6759L224.598 104.816C224.982 105.084 225.02 105.638 224.675 105.955L213.969 115.773C213.652 116.063 213.653 116.564 213.971 116.854L221.993 124.137C222.334 124.446 222.308 124.988 221.941 125.264L210.944 133.505C210.617 133.75 210.554 134.216 210.805 134.539L215.308 140.343C215.602 140.723 215.457 141.278 215.014 141.465L201.965 146.967C190.089 152.977 182.158 159.25 171.821 159.25C156.454 159.25 152.465 150.648 135.955 147.353L122.04 143.935C121.564 143.818 121.335 143.274 121.585 142.852L126.264 134.956C126.473 134.603 126.35 134.146 125.992 133.945L112.908 126.618C112.51 126.395 112.411 125.866 112.702 125.514L119.285 117.544C119.529 117.248 119.503 116.813 119.225 116.548L106.875 104.797C106.517 104.456 106.593 103.865 107.026 103.626L116.208 98.5645C116.561 98.3698 116.69 97.9259 116.496 97.5724L109.773 85.3233C109.529 84.8791 109.801 84.3277 110.301 84.2491L120.04 82.7208C120.49 82.6502 120.767 82.1902 120.618 81.7599L115.721 67.5489C115.545 67.0381 115.965 66.5189 116.501 66.5841L129.383 68.1534C129.882 68.2142 130.293 67.7642 130.187 67.2726L127.243 53.6378C127.131 53.1147 127.6 52.6507 128.121 52.7696L142.379 56.0226C142.801 56.1185 143.213 55.8303 143.267 55.4015L145.042 41.3399ZM166.348 36.9347C166.634 36.493 167.279 36.4888 167.571 36.9269L175.901 49.4405C175.904 49.4449 175.908 49.449 175.91 49.4532L168.031 55.502L167.066 37.6935L166.102 55.502L158.214 49.4474C158.254 49.409 158.291 49.3661 158.323 49.3175L166.348 36.9347Z" fill="url(#paint1_linear_196_1586)"/>
<path fill-rule="evenodd" clip-rule="evenodd" d="M173.275 101.871C184.158 101.871 196.661 116.238 199.667 131.075C200.492 135.144 200.725 139.188 200.267 142.977C199.833 146.569 198.778 149.931 197.018 152.869C191.692 156.776 181.816 159.401 170.512 159.401C159.437 159.401 151 157.013 145.603 153.236C143.072 148.77 141.605 139.974 142.49 134.754C145.506 116.96 162.392 101.871 173.275 101.871Z" fill="#EBE0FF"/>
<path d="M197.756 115.091C195.583 111.326 191.055 110.79 189.063 110.992H186.21L191.508 121.922L203.908 127.531C202.097 123.686 199.93 118.855 197.756 115.091Z" fill="#503ECE"/>
<path d="M171.832 112.499C180.978 112.499 188.393 124.027 188.393 134.497C188.393 139.063 186.982 142.674 184.634 145.294L179.8 143.573L176.558 147.212L174.461 143.573L170.838 148.784L166.261 143.573L161.875 147.578H161.667C157.775 144.969 155.27 140.581 155.27 134.497C155.27 124.027 162.685 112.499 171.832 112.499Z" fill="#FFFEFC"/>
<path d="M141.268 141.785C140.22 135.452 140.766 128.342 147.117 128.964L154.986 144.961C156.602 148.598 159.884 156.504 160.091 159.037C160.298 161.57 159.143 162.376 158.54 162.462L148.714 159.037C146.936 157.107 142.317 148.118 141.268 141.785Z" fill="#503ECE"/>
<path d="M152.941 158.05C157.062 157.661 159.025 159.112 159.025 161.538C159.025 163.337 157.566 163.734 154.677 163.82L154.225 161.487C154.199 161.353 154.02 161.323 153.954 161.443L152.619 163.842C152.596 163.842 152.573 163.843 152.549 163.843C152.16 163.843 151.795 163.842 151.454 163.841L150.947 161.221C150.921 161.087 150.742 161.059 150.675 161.178L149.239 163.761C149.232 163.774 149.226 163.787 149.223 163.8C149.046 163.791 148.88 163.78 148.724 163.768C148.744 163.739 148.754 163.702 148.748 163.663L148.292 160.821C148.269 160.681 148.082 160.652 148.017 160.778L146.82 163.103C146.644 162.869 146.56 162.563 146.529 162.158C146.4 160.474 149.402 158.385 152.941 158.05Z" fill="#9787FF"/>
<path d="M150.676 161.178C150.742 161.059 150.921 161.087 150.948 161.221L151.455 163.844C150.568 163.844 149.832 163.834 149.224 163.8C149.227 163.787 149.232 163.774 149.239 163.761L150.676 161.178ZM153.954 161.443C154.021 161.323 154.2 161.352 154.226 161.486L154.676 163.808C154.056 163.829 153.371 163.837 152.619 163.842L153.954 161.443ZM148.017 160.777C148.082 160.651 148.269 160.681 148.291 160.821L148.747 163.663C148.753 163.701 148.744 163.735 148.726 163.764C147.701 163.671 147.122 163.481 146.823 163.098L148.017 160.777Z" fill="#503ECE"/>
<path d="M201.967 141.515C203.272 134.523 201.096 130.051 197.229 130.051L191.203 143.062C189.012 147.214 184.059 157.265 183.203 159.161C182.347 161.056 184.141 162.291 184.676 162.622C184.676 162.622 191.203 159.515 193.419 157.048C195.636 154.582 200.583 148.938 201.967 141.515Z" fill="#503ECE"/>
<path d="M189.409 161.845C189.951 162.067 190.926 162.642 191.487 163.786C190.889 163.826 190.266 163.849 189.629 163.845C189.54 163.314 189.381 162.474 189.24 162.031C189.217 161.957 189.337 161.816 189.409 161.845ZM192.321 161.133C192.816 161.356 193.97 162.049 194.662 163.386C194.06 163.498 193.381 163.603 192.649 163.683H192.536C192.424 163.002 192.359 161.773 192.205 161.257C192.184 161.19 192.256 161.105 192.321 161.133ZM194.697 159.763C194.703 159.768 194.71 159.773 194.717 159.778C195.536 160.408 196.053 161.086 196.368 161.693C196.702 162.338 196.264 163.045 195.555 163.205C195.427 163.234 195.293 163.259 195.154 163.288H195.083C194.994 162.358 194.782 160.358 194.631 159.82C194.621 159.784 194.666 159.743 194.697 159.763Z" fill="#503ECE"/>
<path d="M189.434 157.877C191.76 158.004 193.5 158.824 194.687 159.762C194.656 159.751 194.62 159.788 194.629 159.821C194.78 160.359 194.991 162.359 195.081 163.288H195.151C194.994 163.321 194.83 163.355 194.66 163.387C193.969 162.049 192.813 161.356 192.318 161.133C192.254 161.104 192.182 161.19 192.202 161.258C192.356 161.773 192.422 163.003 192.533 163.684H192.637C192.265 163.725 191.88 163.759 191.484 163.786C190.924 162.642 189.949 162.067 189.406 161.846C189.334 161.817 189.214 161.958 189.237 162.032C189.379 162.475 189.538 163.315 189.627 163.846C188.827 163.842 188.005 163.799 187.182 163.702C184.971 163.439 182.434 162.221 184.201 159.949C185.202 158.662 187.552 157.775 189.434 157.877Z" fill="#9787FF"/>
<path d="M189.325 117.412C191.501 122.231 193.602 126.31 196.29 132.203C196.29 132.203 207.845 130.3 213.591 118.965C219.337 107.63 223.31 99.2837 222.925 96.3038C222.578 93.6148 218.226 90.7296 214.911 91.5298C212.964 91.9999 211.209 95.4923 210.747 96.3038C207.993 101.141 204.369 108.616 201.355 111.267C199.205 113.16 195.559 115.809 189.325 117.412Z" fill="#503ECE"/>
<path d="M153.212 116.843C150.253 123.03 149.174 126.26 147.539 130.594C147.539 130.594 132.675 130.715 127.065 117.695C121.456 104.674 118.666 99.9798 119.051 96.9999C119.399 94.311 123.75 91.4258 127.065 92.226C129.013 92.696 130.236 94.6009 131.23 96.9999C133.36 102.143 135.902 110.644 140.953 114.131C143.631 115.981 150.02 116.268 153.212 116.843Z" fill="#503ECE"/>
<path d="M144.496 115.091C146.669 111.326 151.197 110.79 153.189 110.992H156.042L150.744 121.922L138.344 127.531C140.155 123.686 142.322 118.855 144.496 115.091Z" fill="#503ECE"/>
<path d="M196.93 59.3053C202.291 59.3054 206.638 63.6519 206.638 69.0134C206.638 73.6927 203.327 77.5991 198.92 78.5173C202.001 84.1251 204.668 90.3522 205.853 94.4255C206.247 95.7819 206.489 97.1463 206.586 98.4841C204.812 98.0464 203.166 97.6939 201.88 97.5153C197.576 96.9175 180.957 100.156 173.186 101.849C169.898 102.995 160.153 104.21 147.48 99.9059C140.425 97.5101 133.939 97.8448 128.912 99.0925C128.972 97.5614 129.226 95.9883 129.681 94.4255C130.801 90.574 133.247 84.7967 136.115 79.4382C131.006 79.1565 126.95 74.9241 126.949 69.7448C126.949 64.3833 131.296 60.0368 136.657 60.0368C140.867 60.0368 144.452 62.7166 145.797 66.4635C150.487 63.7982 165.492 73.0237 169.596 74.8454C173.48 72.3228 182.606 66.0054 187.707 65.9723C188.983 62.1002 192.63 59.3053 196.93 59.3053Z" fill="#EBE0FF"/>
<path d="M183.589 74.1148C187.599 73.2558 191.036 75.2931 192.343 77.7778" stroke="#D4C8EA" stroke-width="1.09718" stroke-linecap="round"/>
<path d="M153.353 73.7809C150.002 73.4161 147.383 74.7083 145.411 77.1571" stroke="#D4C8EA" stroke-width="1.09718" stroke-linecap="round"/>
<path d="M164.452 98.1464C166.388 96.3494 169.729 95.1137 173.274 95.1137C175.893 95.1137 179.586 95.8041 181.456 98.1464C184.672 98.4227 191.576 97.9689 193.473 96.8684L193.474 96.8678C195.846 95.4919 201.13 92.4263 212.489 100.312C210.875 100.378 206.27 99.3601 200.58 98.7604C202.671 99.0084 207.031 100.132 207.707 100.312C208.553 100.536 211.785 101.742 214.411 104.004C213.193 103.711 210.286 103.119 208.401 103.099L211.542 107.12C209.733 106.422 206.138 105.106 203.307 104.931C204.616 105.642 206.781 107.296 207.898 108.732C204.853 109.546 198.814 112.062 195.089 113.285C192.215 114.229 180.224 115.98 174.588 116.92C173.526 117.036 171.168 117.263 170.231 117.245C162.514 117.3 136.371 112.42 135.343 112.137C134.521 111.91 132.667 111.106 131.843 110.733C129.854 109.81 126.04 111.118 124.382 111.887C126.372 109.348 132.327 105.635 135.056 104.096C132.652 104.173 125.764 106.821 122.621 108.136C126.185 100.056 138.199 99.767 143.76 100.633C139.118 99.0937 127.733 100.697 122.621 101.691C130.579 93.3798 141.204 95.9193 145.522 98.2279C146.766 97.8432 149.287 98.0676 150.393 98.2279C155.45 94.3802 161.873 96.8142 164.452 98.1464Z" fill="#FFFEFC"/>
<path d="M173.81 114.389C170.177 114.86 167.758 111.238 167.348 109.739C170.508 110.447 176.521 109.613 178.855 108.639C178.855 110.485 176.973 113.978 173.81 114.389Z" fill="#26126F"/>
<path d="M173.499 109.604V106.29M173.499 109.604C175.441 109.814 176.312 109.612 178.302 108.61M173.499 109.604C171.725 110.312 169.657 110.159 167.858 109.604" stroke="#26126F" stroke-width="1.09718" stroke-linecap="round"/>
<ellipse cx="152.957" cy="88.6954" rx="5.96578" ry="8.14557" transform="rotate(13.4207 152.957 88.6954)" fill="#D4C8EA"/>
<ellipse cx="185.957" cy="88.6954" rx="5.03244" ry="8.14557" transform="rotate(-15 185.957 88.6954)" fill="#D4C8EA"/>
<ellipse cx="152.226" cy="90.5337" rx="3.8158" ry="5.21003" fill="#26126F"/>
<ellipse cx="186.043" cy="89.8023" rx="3.8158" ry="5.21003" transform="rotate(-11.6671 186.043 89.8023)" fill="#26126F"/>
<ellipse cx="173.001" cy="101.732" rx="5.99422" ry="4.69485" fill="#26126F"/>
<path d="M137.79 65.0585C140.229 65.0585 142.281 66.712 142.889 68.9589C141.347 70.6949 139.735 73.0189 138.175 75.6073C138.048 75.6165 137.92 75.623 137.79 75.623C134.873 75.6228 132.508 73.2581 132.508 70.3407C132.508 67.4235 134.873 65.0586 137.79 65.0585Z" fill="url(#paint2_linear_196_1586)"/>
<path d="M196.222 65.0585C199.139 65.0585 201.504 67.4234 201.504 70.3407C201.504 72.9593 199.599 75.1309 197.099 75.5487C195.235 72.4615 193.297 69.7555 191.495 67.9814C192.362 66.2486 194.153 65.0585 196.222 65.0585Z" fill="url(#paint3_linear_196_1586)"/>
<circle cx="152.505" cy="88.3354" r="1.2483" fill="#F2F2F2"/>
<circle cx="186.043" cy="87.3166" r="1.2483" fill="#F2F2F2"/>
<path d="M96.1821 82.3423C96.2069 82.2491 96.3391 82.2491 96.3638 82.3423L96.951 84.5544C96.9597 84.5869 96.9849 84.6122 97.0173 84.621L99.2109 85.215C99.3035 85.2401 99.3035 85.3714 99.2109 85.3965L97.0173 85.9905C96.9849 85.9993 96.9597 86.0247 96.951 86.0571L96.3638 88.2693C96.3391 88.3625 96.2069 88.3625 96.1821 88.2693L95.5949 86.0571C95.5863 86.0247 95.561 85.9993 95.5286 85.9905L93.335 85.3965C93.2425 85.3714 93.2425 85.2401 93.335 85.215L95.5286 84.621C95.561 84.6122 95.5863 84.5869 95.5949 84.5544L96.1821 82.3423Z" fill="white"/>
<path d="M245.182 134.342C245.207 134.249 245.339 134.249 245.364 134.342L245.951 136.554C245.96 136.587 245.985 136.612 246.017 136.621L248.211 137.215C248.303 137.24 248.303 137.371 248.211 137.396L246.017 137.991C245.985 137.999 245.96 138.025 245.951 138.057L245.364 140.269C245.339 140.362 245.207 140.362 245.182 140.269L244.595 138.057C244.586 138.025 244.561 137.999 244.529 137.991L242.335 137.396C242.242 137.371 242.242 137.24 242.335 137.215L244.529 136.621C244.561 136.612 244.586 136.587 244.595 136.554L245.182 134.342Z" fill="#6B57F9"/>
<path d="M243.054 80.7587C243.109 80.5522 243.402 80.5522 243.457 80.7587L244.759 85.6628C244.778 85.7347 244.834 85.791 244.906 85.8104L249.769 87.1273C249.974 87.1828 249.974 87.474 249.769 87.5295L244.906 88.8464C244.834 88.8658 244.778 88.9221 244.759 88.994L243.457 93.8981C243.402 94.1046 243.109 94.1046 243.054 93.8981L241.753 88.994C241.733 88.9221 241.677 88.8658 241.606 88.8464L236.743 87.5295C236.538 87.474 236.538 87.1828 236.743 87.1273L241.606 85.8104C241.677 85.791 241.733 85.7347 241.753 85.6628L243.054 80.7587Z" fill="white"/>
<path d="M82.2987 132.751C82.3539 132.545 82.6461 132.545 82.7013 132.751L83.4203 135.432C83.4395 135.504 83.4957 135.56 83.5676 135.58L86.2493 136.299C86.4552 136.354 86.4552 136.646 86.2493 136.701L83.5676 137.42C83.4957 137.44 83.4395 137.496 83.4203 137.568L82.7013 140.249C82.6461 140.455 82.3539 140.455 82.2987 140.249L81.5797 137.568C81.5605 137.496 81.5043 137.44 81.4324 137.42L78.7507 136.701C78.5448 136.646 78.5448 136.354 78.7507 136.299L81.4324 135.58C81.5043 135.56 81.5605 135.504 81.5797 135.432L82.2987 132.751Z" fill="#6B57F9"/>
<path d="M41.2987 138.751C41.3539 138.545 41.6461 138.545 41.7013 138.751L43.0545 143.798C43.0738 143.87 43.13 143.926 43.2018 143.945L48.2493 145.299C48.4552 145.354 48.4552 145.646 48.2493 145.701L43.2018 147.055C43.13 147.074 43.0738 147.13 43.0545 147.202L41.7013 152.249C41.6461 152.455 41.3539 152.455 41.2987 152.249L39.9455 147.202C39.9262 147.13 39.87 147.074 39.7982 147.055L34.7507 145.701C34.5448 145.646 34.5448 145.354 34.7507 145.299L39.7982 143.945C39.87 143.926 39.9262 143.87 39.9455 143.798L41.2987 138.751Z" fill="#6B57F9"/>
<path d="M11.2987 69.7507C11.3539 69.5448 11.6461 69.5448 11.7013 69.7507L13.9002 77.9524C13.9195 78.0243 13.9757 78.0805 14.0476 78.0998L22.2493 80.2987C22.4552 80.3539 22.4552 80.6461 22.2493 80.7013L14.0476 82.9002C13.9757 82.9195 13.9195 82.9757 13.9002 83.0476L11.7013 91.2493C11.6461 91.4552 11.3539 91.4552 11.2987 91.2493L9.09976 83.0476C9.08048 82.9757 9.02433 82.9195 8.95245 82.9002L0.750701 80.7013C0.544813 80.6461 0.544812 80.3539 0.7507 80.2987L8.95245 78.0998C9.02433 78.0805 9.08048 78.0243 9.09976 77.9524L11.2987 69.7507Z" fill="#6B57F9"/>
<path d="M56.2987 28.7507C56.3539 28.5448 56.6461 28.5448 56.7013 28.7507L58.0545 33.7982C58.0738 33.87 58.13 33.9262 58.2018 33.9455L63.2493 35.2987C63.4552 35.3539 63.4552 35.6461 63.2493 35.7013L58.2018 37.0545C58.13 37.0738 58.0738 37.13 58.0545 37.2018L56.7013 42.2493C56.6461 42.4552 56.3539 42.4552 56.2987 42.2493L54.9455 37.2018C54.9262 37.13 54.87 37.0738 54.7982 37.0545L49.7507 35.7013C49.5448 35.6461 49.5448 35.3539 49.7507 35.2987L54.7982 33.9455C54.87 33.9262 54.9262 33.87 54.9455 33.7982L56.2987 28.7507Z" fill="#6B57F9"/>
<path d="M308.299 79.7507C308.354 79.5448 308.646 79.5448 308.701 79.7507L310.055 84.7982C310.074 84.87 310.13 84.9262 310.202 84.9455L315.249 86.2987C315.455 86.3539 315.455 86.6461 315.249 86.7013L310.202 88.0545C310.13 88.0738 310.074 88.13 310.055 88.2018L308.701 93.2493C308.646 93.4552 308.354 93.4552 308.299 93.2493L306.945 88.2018C306.926 88.13 306.87 88.0738 306.798 88.0545L301.751 86.7013C301.545 86.6461 301.545 86.3539 301.751 86.2987L306.798 84.9455C306.87 84.9262 306.926 84.87 306.945 84.7982L308.299 79.7507Z" fill="#6B57F9"/>
<path d="M287.299 134.751C287.354 134.545 287.646 134.545 287.701 134.751L289.477 141.375C289.497 141.447 289.553 141.503 289.625 141.523L296.249 143.299C296.455 143.354 296.455 143.646 296.249 143.701L289.625 145.477C289.553 145.497 289.497 145.553 289.477 145.625L287.701 152.249C287.646 152.455 287.354 152.455 287.299 152.249L285.523 145.625C285.503 145.553 285.447 145.497 285.375 145.477L278.751 143.701C278.545 143.646 278.545 143.354 278.751 143.299L285.375 141.523C285.447 141.503 285.503 141.447 285.523 141.375L287.299 134.751Z" fill="#6B57F9"/>
<path d="M179.994 30.5371C180.033 30.3909 180.24 30.3909 180.279 30.5371L181.2 34.0086C181.214 34.0596 181.254 34.0994 181.304 34.1132L184.747 35.0454C184.892 35.0847 184.892 35.2908 184.747 35.3301L181.304 36.2623C181.254 36.2761 181.214 36.3159 181.2 36.3669L180.279 39.8384C180.24 39.9846 180.033 39.9846 179.994 39.8384L179.072 36.3669C179.059 36.3159 179.019 36.2761 178.968 36.2623L175.526 35.3301C175.381 35.2908 175.381 35.0847 175.526 35.0454L178.968 34.1132C179.019 34.0994 179.059 34.0596 179.072 34.0086L179.994 30.5371Z" fill="#6B57F9"/>
<foreignObject x="187.267" y="18.2673" width="68.8416" height="68.8416"><div xmlns="http://www.w3.org/1999/xhtml" style="backdrop-filter:blur(4px);clip-path:url(#bgblur_0_196_1586_clip_path);height:100%;width:100%"></div></foreignObject><circle data-figma-bg-blur-radius="8" cx="221.688" cy="52.688" r="26.4142" transform="rotate(15 221.688 52.688)" fill="#6B57F9" fill-opacity="0.2"/>
<path d="M215.768 74.7832C228.012 78.0641 240.502 70.8529 243.783 58.6084C247.064 46.364 239.853 33.8738 227.608 30.5929C215.364 27.312 202.874 34.5232 199.593 46.7677C196.312 59.0121 203.523 71.5023 215.768 74.7832Z" fill="#2775CA"/>
<path d="M226.827 57.8144C227.69 54.5922 226.053 52.9694 222.31 51.4731C219.646 50.3648 219.291 49.4803 219.637 48.1913C219.982 46.9023 221.125 46.3206 222.966 46.814C224.623 47.258 225.396 48.0571 225.486 49.5613C225.504 49.8622 225.731 50.1203 226.007 50.1943L227.48 50.5889C227.848 50.6876 228.199 50.4854 228.297 50.1173L228.322 50.0252C228.496 47.901 227.258 45.892 225.19 45.1406L225.782 42.9311C225.881 42.5628 225.679 42.2126 225.243 41.9971L223.862 41.6271C223.494 41.5284 223.144 41.7306 222.928 42.1664L222.361 44.2837C219.501 43.912 217.258 45.2846 216.641 47.5862C215.827 50.6243 217.348 52.3143 221.091 53.8108C223.546 54.9618 224.226 55.7362 223.832 57.2093C223.437 58.6824 221.876 59.3496 220.127 58.8809C217.734 58.2395 217.176 57.0047 217.27 55.5497C217.277 55.157 217.05 54.8987 216.774 54.8247L215.209 54.4053C214.841 54.3067 214.49 54.5088 214.392 54.8772L214.367 54.9693C214.119 57.3694 215.148 59.4212 218.062 60.6957L217.47 62.9052C217.372 63.2733 217.574 63.6235 218.009 63.839L219.39 64.209C219.759 64.3077 220.109 64.1055 220.324 63.67L220.916 61.4605C223.802 61.74 226.161 60.3001 226.827 57.8144Z" fill="white"/>
<path d="M213.465 64.595C206.975 60.0933 205.439 51.097 210.008 44.7235C212.425 41.2268 216.253 39.0949 220.397 38.7254C220.815 38.64 221.073 38.4131 221.196 37.9527L221.541 36.6639C221.64 36.2955 221.53 35.97 221.186 35.7794C221.094 35.7547 220.91 35.7054 220.793 35.7727C211.307 36.1911 204.029 44.2068 204.447 53.6928C204.723 59.2923 207.621 64.3118 212.332 67.3503C212.651 67.6331 213.069 67.5477 213.259 67.204C213.376 67.1368 213.401 67.0447 213.45 66.8606L213.796 65.5716C213.87 65.2954 213.692 64.8533 213.465 64.595ZM230.921 38.4862C230.602 38.2035 230.184 38.2888 229.993 38.6325C229.876 38.7 229.852 38.7919 229.802 38.9761L229.457 40.265C229.358 40.6333 229.536 41.0754 229.763 41.3337C236.253 45.8354 237.789 54.8316 233.22 61.2052C230.803 64.7018 226.976 66.8337 222.831 67.2033C222.413 67.2887 222.155 67.5155 222.032 67.976L221.687 69.2648C221.588 69.6331 221.698 69.9586 222.042 70.1492C222.134 70.1739 222.318 70.2232 222.435 70.156C231.921 69.7376 239.199 61.7218 238.781 52.2359C238.53 46.5443 235.54 41.5 230.921 38.4862Z" fill="white"/>
<foreignObject x="74.3656" y="18.8413" width="68.5347" height="68.5347"><div xmlns="http://www.w3.org/1999/xhtml" style="backdrop-filter:blur(4px);clip-path:url(#bgblur_1_196_1586_clip_path);height:100%;width:100%"></div></foreignObject><circle data-figma-bg-blur-radius="8" cx="108.633" cy="53.1086" r="26.2608" transform="rotate(-15 108.633 53.1086)" fill="#6B57F9" fill-opacity="0.2"/>
<circle cx="108.633" cy="53.1086" r="22.8321" transform="rotate(-15 108.633 53.1086)" fill="#FFFEFC"/>
<path d="M95.2585 64.946L100.396 63.5695L100.684 60.4536L97.0313 56.2557L95.2585 64.946Z" fill="black"/>
<path d="M107.861 57.4616L99.0662 47.4952L98.3914 51.8961L106.843 61.8419L110.732 60.7997L107.861 57.4616Z" fill="black"/>
<path fill-rule="evenodd" clip-rule="evenodd" d="M118.433 58.7364C122.686 57.5968 125.21 53.2251 124.071 48.972C122.931 44.7189 118.56 42.1949 114.306 43.3345C110.053 44.4741 107.529 48.8458 108.669 53.0989C109.808 57.352 114.18 59.876 118.433 58.7364ZM117.623 55.7136C120.207 55.0213 121.74 52.3656 121.048 49.7819C120.356 47.1983 117.7 45.665 115.116 46.3573C112.533 47.0496 110.999 49.7053 111.692 52.289C112.384 54.8726 115.04 56.4059 117.623 55.7136Z" fill="black"/>
<defs>
<clipPath id="bgblur_0_196_1586_clip_path" transform="translate(-187.267 -18.2673)"><circle cx="221.688" cy="52.688" r="26.4142" transform="rotate(15 221.688 52.688)"/>
</clipPath><clipPath id="bgblur_1_196_1586_clip_path" transform="translate(-74.3656 -18.8413)"><circle cx="108.633" cy="53.1086" r="26.2608" transform="rotate(-15 108.633 53.1086)"/>
</clipPath><radialGradient id="paint0_radial_196_1586" cx="0" cy="0" r="1" gradientUnits="userSpaceOnUse" gradientTransform="translate(166 89.5) rotate(90) scale(90.5 153.037)">
<stop offset="0.685595" stop-color="white"/>
<stop offset="1" stop-color="white" stop-opacity="0"/>
</radialGradient>
<linearGradient id="paint1_linear_196_1586" x1="166.196" y1="159.25" x2="166.196" y2="36.6009" gradientUnits="userSpaceOnUse">
<stop stop-color="#6B57F9"/>
<stop offset="1" stop-color="#9787FF"/>
</linearGradient>
<linearGradient id="paint2_linear_196_1586" x1="137.735" y1="75.623" x2="137.735" y2="65.0585" gradientUnits="userSpaceOnUse">
<stop stop-color="#6B57F9"/>
<stop offset="1" stop-color="#9787FF"/>
</linearGradient>
<linearGradient id="paint3_linear_196_1586" x1="196.535" y1="75.5487" x2="196.535" y2="65.0585" gradientUnits="userSpaceOnUse">
<stop stop-color="#6B57F9"/>
<stop offset="1" stop-color="#9787FF"/>
</linearGradient>
</defs>
</svg>
