<svg width="45" height="40" viewBox="0 0 45 40" fill="none" xmlns="http://www.w3.org/2000/svg">
<g id="Group">
<g id="Group_2">
<g id="Group_3">
<path id="Vector" d="M2.60416 39.7081C18.6686 37.6086 37.5333 25.0407 40.3319 6.94934C40.5169 5.75003 38.2349 3.15549 38.217 3.26436C35.4381 21.2308 16.5964 33.672 0.642992 35.7585C0.391329 35.7908 1.5571 39.8453 2.60416 39.7081Z" fill="#EEEEEE"/>
</g>
</g>
<g id="Group_4">
<g id="Group_5">
<path id="Vector_2" d="M43.9966 16.5248C43.9868 11.7235 43.8748 6.69691 42.5511 2.06774C42.3204 1.26003 41.3745 0.902027 40.6562 1.14371C36.2717 2.61858 32.5726 5.50864 28.0241 6.46435C25.8185 6.92767 25.3716 10.7805 28.0706 10.2132C32.6855 9.2425 36.297 6.37361 40.7043 4.89256C40.0721 4.58454 39.4407 4.27654 38.8094 3.96852C40.0462 8.29747 40.1033 13.0043 40.112 17.4931C40.1186 20.1178 44.0006 18.7076 43.9966 16.5248Z" fill="#EEEEEE"/>
</g>
</g>
</g>
</svg>
