<svg width="220" height="112" viewBox="0 0 220 112" fill="none" xmlns="http://www.w3.org/2000/svg">
<g id="Boat">
<g id="Group 196">
<path id="R" fill-rule="evenodd" clip-rule="evenodd" d="M133.025 42.264L101.456 18.7C100.119 17.6778 99.0887 17.7283 98.3932 19.3975L82.8175 55.6649L111.19 70.1891L100.735 22.2968L115.627 69.0004L133.025 42.264Z" fill="url(#paint0_linear_450_3369)"/>
<path id="R_2" d="M158.03 68.659L168.285 11.1392C168.498 9.88211 166.972 9.09225 166.069 9.99284L135.776 40.1687L119.527 72.6255L158.03 68.659Z" fill="url(#paint1_linear_450_3369)"/>
<path id="R_3" d="M74.2626 91.1044L36.6222 46.4179C35.8086 45.4362 36.7356 43.9889 37.9677 44.3175L79.2903 55.304L109.591 75.2876L74.2626 91.1044Z" fill="url(#paint2_linear_450_3369)"/>
</g>
<path id="Rectangle 20214" d="M0.335938 98.831C0.335938 98.831 179.278 36.4995 215.394 75.9386C225.001 86.4303 215.394 111.61 215.394 111.61H0.335938V98.831Z" fill="url(#paint3_linear_450_3369)"/>
</g>
<defs>
<linearGradient id="paint0_linear_450_3369" x1="113.27" y1="69.632" x2="99.4604" y2="18.0954" gradientUnits="userSpaceOnUse">
<stop stop-color="#6B57F9"/>
<stop offset="1" stop-color="#9787FF"/>
</linearGradient>
<linearGradient id="paint1_linear_450_3369" x1="125.068" y1="55.2058" x2="162.115" y2="64.8547" gradientUnits="userSpaceOnUse">
<stop stop-color="#6B57F9"/>
<stop offset="1" stop-color="#9787FF"/>
</linearGradient>
<linearGradient id="paint2_linear_450_3369" x1="96.0824" y1="62.9723" x2="68.8231" y2="89.8521" gradientUnits="userSpaceOnUse">
<stop stop-color="#6B57F9"/>
<stop offset="1" stop-color="#9787FF"/>
</linearGradient>
<linearGradient id="paint3_linear_450_3369" x1="43.1417" y1="78.4487" x2="47.3249" y2="107.034" gradientUnits="userSpaceOnUse">
<stop offset="0.0690446" stop-color="#361E8D"/>
<stop offset="0.814058" stop-color="#111111"/>
</linearGradient>
</defs>
</svg>
