<svg width="86" height="57" viewBox="0 0 86 57" fill="none" xmlns="http://www.w3.org/2000/svg">
<g id="Group 34859">
<g id="Group 34863">
<rect id="Rectangle 20209" x="15.4355" y="14.0015" width="44.7855" height="37.0434" rx="2.31787" transform="rotate(-15 15.4355 14.0015)" fill="#EEEEEE"/>
<foreignObject x="12.7894" y="1.19227" width="63.3703" height="54.3411"><div xmlns="http://www.w3.org/1999/xhtml" style="backdrop-filter:blur(2.03px);clip-path:url(#bgblur_0_448_3357_clip_path);height:100%;width:100%"></div></foreignObject><rect id="Rectangle 20200" data-figma-bg-blur-radius="4.05627" x="16.3262" y="17.3237" width="48.6656" height="35.897" rx="2.31787" transform="rotate(-15 16.3262 17.3237)" fill="url(#paint0_linear_448_3357)" fill-opacity="0.8"/>
<rect id="Rectangle 20203" x="52.8145" y="18.6528" width="18.23" height="14.4418" rx="2.31787" transform="rotate(-15 52.8145 18.6528)" fill="#DED9FF"/>
<circle id="Ellipse 410" cx="61.059" cy="23.9197" r="2.77358" transform="rotate(-15 61.059 23.9197)" fill="#6B57F9"/>
</g>
<path id="Star 30" d="M5.47398 21.6785C5.51363 21.5292 5.7256 21.5292 5.76525 21.6785L6.70656 25.2246C6.72037 25.2766 6.76087 25.3173 6.81281 25.3314L10.3291 26.2836C10.4775 26.3238 10.4775 26.5343 10.3291 26.5745L6.81281 27.5267C6.76087 27.5407 6.72037 27.5814 6.70656 27.6334L5.76525 31.1795C5.7256 31.3289 5.51363 31.3289 5.47398 31.1795L4.53267 27.6334C4.51886 27.5814 4.47837 27.5407 4.42642 27.5267L0.910128 26.5745C0.761737 26.5343 0.761737 26.3238 0.910128 26.2836L4.42642 25.3314C4.47837 25.3173 4.51886 25.2766 4.53267 25.2246L5.47398 21.6785Z" fill="#9787FF"/>
<path id="Star 32" d="M79.3605 6.23845C79.385 6.14588 79.5164 6.14588 79.541 6.23845L80.1243 8.4361C80.1329 8.46833 80.158 8.49356 80.1902 8.50227L82.3694 9.09239C82.4613 9.1173 82.4613 9.24776 82.3694 9.27266L80.1902 9.86278C80.158 9.8715 80.1329 9.89672 80.1243 9.92895L79.541 12.1266C79.5164 12.2192 79.385 12.2192 79.3605 12.1266L78.7771 9.92895C78.7685 9.89672 78.7434 9.8715 78.7113 9.86278L76.5321 9.27266C76.4401 9.24776 76.4401 9.11729 76.5321 9.09239L78.7113 8.50227C78.7434 8.49356 78.7685 8.46833 78.7771 8.4361L79.3605 6.23845Z" fill="#9787FF"/>
<path id="Star 31" d="M78.2345 42.4705C78.2889 42.2657 78.5796 42.2657 78.6339 42.4705L79.9246 47.3329C79.9436 47.4042 79.9991 47.46 80.0703 47.4793L84.8918 48.7849C85.0953 48.84 85.0953 49.1287 84.8918 49.1838L80.0703 50.4894C79.9991 50.5087 79.9436 50.5645 79.9246 50.6358L78.6339 55.4982C78.5796 55.703 78.2889 55.703 78.2345 55.4982L76.9438 50.6358C76.9249 50.5645 76.8694 50.5087 76.7982 50.4894L71.9767 49.1838C71.7732 49.1287 71.7732 48.84 71.9767 48.7849L76.7982 47.4793C76.8694 47.46 76.9249 47.4042 76.9438 47.3329L78.2345 42.4705Z" fill="#9787FF"/>
<circle id="Ellipse 411" cx="72.7531" cy="2.22962" r="1.15736" fill="#9787FF"/>
<circle id="Ellipse 412" cx="14.921" cy="35.7179" r="1.15736" fill="#9787FF"/>
</g>
<defs>
<clipPath id="bgblur_0_448_3357_clip_path" transform="translate(-12.7894 -1.19227)"><rect x="16.3262" y="17.3237" width="48.6656" height="35.897" rx="2.31787" transform="rotate(-15 16.3262 17.3237)"/>
</clipPath><linearGradient id="paint0_linear_448_3357" x1="40.8304" y1="53.2207" x2="40.8304" y2="17.3237" gradientUnits="userSpaceOnUse">
<stop stop-color="#6B57F9"/>
<stop offset="1" stop-color="#9787FF"/>
</linearGradient>
</defs>
</svg>
