<svg width="75" height="75" viewBox="0 0 75 75" fill="none" xmlns="http://www.w3.org/2000/svg">
<g id="Frame 331">
<g id="Icon">
<path fill-rule="evenodd" clip-rule="evenodd" d="M20.3496 45.7458L20.3496 56.5076L20.3496 64.4373C20.3496 67.6095 20.3496 69.1956 20.9927 70.4072C21.5583 71.4729 22.4609 72.3394 23.5711 72.8825C24.8331 73.4998 26.4853 73.4998 29.7896 73.4998H64.0096C67.3139 73.4998 68.9661 73.4998 70.2281 72.8825C71.3383 72.3394 72.2409 71.4729 72.8065 70.4072C73.4496 69.1956 73.4496 67.6095 73.4496 64.4373V45.7458C73.4496 42.5737 73.4496 40.9876 72.8065 39.776C72.2409 38.7102 71.3383 37.8437 70.2282 37.3007C68.9661 36.6833 67.3139 36.6833 64.0096 36.6833L58.6996 36.6833L29.7896 36.6833C26.4853 36.6833 24.8331 36.6833 23.5711 37.3007C22.4609 37.8437 21.5583 38.7102 20.9927 39.776C20.3496 40.9876 20.3496 42.5737 20.3496 45.7458ZM60.1746 56.5076C60.9892 56.5076 61.6496 55.8736 61.6496 55.0916C61.6496 54.3095 60.9892 53.6755 60.1746 53.6755C59.36 53.6755 58.6996 54.3095 58.6996 55.0916C58.6996 55.8736 59.36 56.5076 60.1746 56.5076Z" fill="#6B57F9"/>
<path d="M58.6996 36.6833V26.773C58.6996 24.4175 58.6996 23.2398 58.1827 22.516C57.7312 21.8836 57.0318 21.454 56.2445 21.3254C55.3433 21.1782 54.2294 21.6717 52.0016 22.6588L25.8337 34.2534C23.8469 35.1337 22.8534 35.5739 22.1258 36.2566C21.4826 36.8601 20.9916 37.5968 20.6903 38.4104C20.3496 39.3307 20.3496 40.3811 20.3496 42.4818V56.5076M58.6996 36.6833L64.0096 36.6833M58.6996 36.6833L29.7896 36.6833M20.3496 56.5076L20.3496 45.7458M20.3496 56.5076L20.3496 64.4373M20.3496 45.7458L20.3496 64.4373M20.3496 45.7458C20.3496 42.5737 20.3496 40.9876 20.9927 39.776C21.5583 38.7102 22.4609 37.8437 23.5711 37.3007C24.8331 36.6833 26.4853 36.6833 29.7896 36.6833M29.7896 36.6833L64.0096 36.6833M20.3496 64.4373C20.3496 67.6095 20.3496 69.1956 20.9927 70.4072C21.5583 71.4729 22.4609 72.3394 23.5711 72.8825C24.8331 73.4998 26.4853 73.4998 29.7896 73.4998H64.0096C67.3139 73.4998 68.9661 73.4998 70.2281 72.8825C71.3383 72.3394 72.2409 71.4729 72.8065 70.4072C73.4496 69.1956 73.4496 67.6095 73.4496 64.4373V45.7458C73.4496 42.5737 73.4496 40.9876 72.8065 39.776C72.2409 38.7102 71.3383 37.8437 70.2282 37.3007C68.9661 36.6833 67.3139 36.6833 64.0096 36.6833M61.6496 55.0916C61.6496 55.8736 60.9892 56.5076 60.1746 56.5076C59.36 56.5076 58.6996 55.8736 58.6996 55.0916C58.6996 54.3095 59.36 53.6755 60.1746 53.6755C60.9892 53.6755 61.6496 54.3095 61.6496 55.0916Z" stroke="#EEEEEE" stroke-width="2.7" stroke-linecap="round" stroke-linejoin="round"/>
</g>
<path id="Icon_2" d="M22.5092 24.18L20.5999 19.2156C20.143 18.0278 19.9146 17.4339 19.5593 16.9343C19.2445 16.4916 18.8577 16.1047 18.4149 15.7899C17.9153 15.4347 17.3214 15.2062 16.1336 14.7494L11.1692 12.84L16.1336 10.9306C17.3214 10.4738 17.9153 10.2453 18.4149 9.89012C18.8577 9.57529 19.2445 9.18845 19.5593 8.74568C19.9146 8.24611 20.143 7.65219 20.5999 6.46436L22.5092 1.5L24.4186 6.46436C24.8754 7.65219 25.1039 8.24611 25.4591 8.74568C25.7739 9.18845 26.1608 9.57529 26.6035 9.89012C27.1031 10.2453 27.697 10.4738 28.8849 10.9306L33.8492 12.84L28.8849 14.7494C27.697 15.2062 27.1031 15.4347 26.6035 15.7899C26.1608 16.1047 25.7739 16.4916 25.4591 16.9343C25.1039 17.4339 24.8754 18.0278 24.4186 19.2156L22.5092 24.18Z" fill="#6B57F9" stroke="#EEEEEE" stroke-width="2.7" stroke-linecap="round" stroke-linejoin="round"/>
</g>
</svg>
