<svg width="128" height="60" viewBox="0 0 128 60" fill="none" xmlns="http://www.w3.org/2000/svg">
<g id="Group 196">
<path id="R" fill-rule="evenodd" clip-rule="evenodd" d="M88.0856 29.8734L65.5215 1.26216C64.5709 0.028604 63.6387 -0.172854 62.6177 1.15206L40.0187 29.8269L61.8918 49.5963L64.016 4.30316L66.1401 49.5963L88.0856 29.8734Z" fill="url(#paint0_linear_639_639)"/>
<path id="R_2" d="M104.109 59.4431L127.041 10.506C127.533 9.43408 126.358 8.36292 125.336 8.95146L91.0461 28.6603L68.7575 53.7691L104.109 59.4431Z" fill="url(#paint1_linear_639_639)"/>
<path id="R_3" d="M23.8911 59.4431L0.958794 10.506C0.466869 9.43408 1.64164 8.36292 2.66377 8.95146L36.9539 28.6603L59.2425 53.7691L23.8911 59.4431Z" fill="url(#paint2_linear_639_639)"/>
</g>
<defs>
<linearGradient id="paint0_linear_639_639" x1="63.8829" y1="49.5963" x2="63.8829" y2="0.244141" gradientUnits="userSpaceOnUse">
<stop stop-color="#6B57F9"/>
<stop offset="1" stop-color="#9787FF"/>
</linearGradient>
<linearGradient id="paint1_linear_639_639" x1="77.8788" y1="39.5318" x2="108.669" y2="57.022" gradientUnits="userSpaceOnUse">
<stop stop-color="#6B57F9"/>
<stop offset="1" stop-color="#9787FF"/>
</linearGradient>
<linearGradient id="paint2_linear_639_639" x1="50.1212" y1="39.5318" x2="19.3309" y2="57.022" gradientUnits="userSpaceOnUse">
<stop stop-color="#6B57F9"/>
<stop offset="1" stop-color="#9787FF"/>
</linearGradient>
</defs>
</svg>
