<svg width="25" height="25" viewBox="0 0 25 25" fill="none" xmlns="http://www.w3.org/2000/svg" color="currentColor">
<path d="M12.4998 9.49999V13.5M12.4998 17.5H12.5098M11.1151 4.39171L2.89019 18.5983C2.43398 19.3863 2.20588 19.7803 2.23959 20.1037C2.269 20.3857 2.41677 20.642 2.64613 20.8088C2.90908 21 3.36435 21 4.27487 21H20.7246C21.6352 21 22.0904 21 22.3534 20.8088C22.5827 20.642 22.7305 20.3857 22.7599 20.1037C22.7936 19.7803 22.5655 19.3863 22.1093 18.5983L13.8844 4.39171C13.4299 3.60654 13.2026 3.21396 12.9061 3.08211C12.6474 2.9671 12.3521 2.9671 12.0935 3.08211C11.7969 3.21396 11.5696 3.60655 11.1151 4.39171Z" stroke="currentColor" stroke-width="2" stroke-linecap="round" stroke-linejoin="round"/>
</svg>
