<svg width="48" height="48" viewBox="0 0 48 48" fill="none" xmlns="http://www.w3.org/2000/svg">
<rect width="48" height="48" rx="9.8" fill="white"/>
<g clip-path="url(#clip0_428_8955)">
<path d="M10.0645 39.9677C8.92432 39.9677 8 39.0435 8 37.9032C8 28.9515 8 20.0116 8 11.0645C8 9.92432 8.92432 9 10.0645 9C19.0121 9 27.952 9 36.9032 9C38.0435 9 38.9677 9.92432 38.9677 11.0645C38.9677 17.4483 38.9677 23.8307 38.9677 30.2119C38.9677 30.8516 38.367 31.2151 37.7273 31.2151C37.0927 31.215 36.4956 30.8502 36.4956 30.2157C36.4956 24.6649 36.4956 19.1187 36.4956 13.5644C36.4956 12.4242 35.5712 11.4999 34.431 11.4999C27.1354 11.4999 19.8575 11.4999 12.5689 11.4999C11.4287 11.4999 10.5044 12.4242 10.5044 13.5644C10.5044 20.84 10.5044 28.1188 10.5044 35.4078C10.5044 36.548 11.4287 37.4724 12.5689 37.4724C20.407 37.4724 28.2477 37.4724 36.1038 37.4724C36.3126 37.4724 36.4819 37.3163 36.4819 37.1075C36.4819 36.8355 36.7622 36.6387 37.0266 36.7028C37.26 36.7595 37.492 36.7869 37.7232 36.7858C38.3315 36.7829 38.976 37.1877 38.976 37.7959C38.976 38.0655 38.976 38.3345 38.976 38.6035C38.976 39.357 38.3652 39.9677 37.6117 39.9677C28.4323 39.9677 19.2547 39.9677 10.0645 39.9677Z" fill="#003153"/>
<path d="M33.9817 35.8118C32.1565 35.8118 30.3646 35.8118 28.5701 35.8118C28.5608 35.7795 28.5496 35.7574 28.5487 35.7349C28.528 35.1941 28.5261 35.1874 29.051 35.0227C29.4464 34.8986 29.848 34.7948 30.2684 34.6758C29.7921 33.3955 29.3164 32.1169 28.8371 30.8285C28.2898 30.8285 27.7518 30.8285 27.2138 30.8285C26.1367 30.8285 25.0595 30.8257 23.9824 30.8342C23.9011 30.8348 23.7709 30.8981 23.7468 30.9631C23.2913 32.1923 22.8484 33.426 22.3973 34.6742C22.7373 34.7569 23.0661 34.8347 23.3935 34.9177C23.5039 34.9457 23.6111 34.9861 23.7192 35.0226C24.2636 35.2067 24.2635 35.2069 24.1803 35.8098C22.6282 35.8098 21.0744 35.8098 19.5161 35.8098C19.5082 35.7804 19.4976 35.7582 19.497 35.7357C19.4808 35.1842 19.4796 35.1802 20.0097 34.9939C20.2706 34.9021 20.5347 34.8145 20.8035 34.7507C20.9666 34.712 21.0448 34.6308 21.1032 34.4783C22.8191 29.9987 24.5392 25.5207 26.2605 21.043C26.3001 20.9403 26.3459 20.777 26.4159 20.7611C26.594 20.7207 26.7892 20.7345 26.9739 20.7573C27.0196 20.763 27.0596 20.8821 27.0876 20.9548C27.9341 23.1506 28.7794 25.347 29.6238 27.5438C30.5091 29.8471 31.3958 32.1498 32.273 34.4562C32.3438 34.6424 32.4458 34.7125 32.6323 34.7546C32.9965 34.837 33.3531 34.9537 33.7112 35.0615C33.9114 35.1219 34.0295 35.2391 33.985 35.4733C33.9657 35.5746 33.9817 35.6824 33.9817 35.8118ZM24.2476 29.6876C25.6465 29.6876 27.0447 29.6876 28.4538 29.6876C27.7762 27.594 26.7471 25.6354 26.4256 23.4842C25.7017 25.5464 24.9748 27.6164 24.2476 29.6876Z" fill="#003153"/>
<path d="M39.7177 34.0627C39.7167 35.1712 38.8184 36.0676 37.7092 36.0667C36.601 36.0658 35.7043 35.1672 35.7051 34.0582C35.7058 32.9504 36.6049 32.0531 37.7136 32.054C38.8215 32.0549 39.7185 32.954 39.7177 34.0627Z" fill="#003153"/>
</g>
<defs>
<clipPath id="clip0_428_8955">
<rect width="32" height="30.9677" fill="white" transform="translate(8 9)"/>
</clipPath>
</defs>
</svg>
