<svg width="48" height="48" viewBox="0 0 48 48" fill="none" xmlns="http://www.w3.org/2000/svg">
<rect width="48" height="48" rx="9.8" fill="white"/>
<g clip-path="url(#clip0_428_8978)">
<path d="M8 27.2896H9.93604L10.3311 26.2212L9.44215 24.4009L8 27.2896Z" fill="black"/>
<path d="M13.1363 25.8451L10.983 21.512L10.3311 22.9959L12.3659 27.2895H13.8317L13.1363 25.8451Z" fill="black"/>
<path fill-rule="evenodd" clip-rule="evenodd" d="M16.7338 27.2895C18.3368 27.2895 19.6361 25.9901 19.6361 24.3872C19.6361 22.7843 18.3368 21.4849 16.7338 21.4849C15.1309 21.4849 13.8315 22.7843 13.8315 24.3872C13.8315 25.9901 15.1309 27.2895 16.7338 27.2895ZM16.7338 26.1503C17.7076 26.1503 18.4969 25.3609 18.4969 24.3872C18.4969 23.4134 17.7076 22.6241 16.7338 22.6241C15.7601 22.6241 14.9707 23.4134 14.9707 24.3872C14.9707 25.3609 15.7601 26.1503 16.7338 26.1503Z" fill="black"/>
<path d="M21.4895 26.4789H23.9561V27.054H20.8486V21.7207H21.4895V26.4789Z" fill="#9EA2AA"/>
<path d="M24.9556 21.7207H28.0041V22.3104H26.7951V26.4679H28.0041V27.054H24.9556V26.4679H26.1369V22.3104H24.9556V21.7207Z" fill="#9EA2AA"/>
<path d="M32.3049 27.054H31.6536L29.6963 23.0687L29.6859 27.054H29.0381V21.7207H29.6893L31.6467 25.6987L31.657 21.7207H32.3049V27.054Z" fill="#9EA2AA"/>
<path d="M34.5446 24.5778L33.9834 25.2518V27.054H33.3286V21.7207H33.9834V24.3251L34.4718 23.6804L35.9511 21.7207H36.7306L34.9672 24.054L36.8483 27.054H36.0689L34.5446 24.5778Z" fill="#9EA2AA"/>
<path d="M38.3032 22.9394L39.7578 21.4849M39.7578 21.4849H38.511M39.7578 21.4849V22.7316" stroke="black" stroke-width="0.484848"/>
</g>
<defs>
<clipPath id="clip0_428_8978">
<rect width="32" height="6.30303" fill="white" transform="translate(8 21)"/>
</clipPath>
</defs>
</svg>
