<svg width="48" height="48" viewBox="0 0 48 48" fill="none" xmlns="http://www.w3.org/2000/svg">
<rect width="48" height="48" rx="9.8" fill="white"/>
<path d="M8 31.9626H13.3241L14.4107 29.0243L11.9659 24.0185L8 31.9626Z" fill="black"/>
<path d="M22.1252 27.9905L16.2035 16.0745L14.4107 20.1553L20.0065 31.9626H24.0374L22.1252 27.9905Z" fill="black"/>
<path fill-rule="evenodd" clip-rule="evenodd" d="M32.0186 31.9627C36.4266 31.9627 40 28.3893 40 23.9813C40 19.5734 36.4266 16 32.0186 16C27.6106 16 24.0372 19.5734 24.0372 23.9813C24.0372 28.3893 27.6106 31.9627 32.0186 31.9627ZM32.0186 28.8298C34.6964 28.8298 36.8671 26.6591 36.8671 23.9813C36.8671 21.3036 34.6964 19.1329 32.0186 19.1329C29.3409 19.1329 27.1701 21.3036 27.1701 23.9813C27.1701 26.6591 29.3409 28.8298 32.0186 28.8298Z" fill="black"/>
</svg>
