<svg xmlns="http://www.w3.org/2000/svg" width="11" height="11" viewBox="0 0 11 11" fill="none">
  <path d="M5.5033 10C7.98858 10 10.0033 7.98528 10.0033 5.5C10.0033 3.01472 7.98858 1 5.5033 1C3.01801 1 1.0033 3.01472 1.0033 5.5C1.0033 7.98528 3.01801 10 5.5033 10Z" stroke="#9C9C9C" stroke-width="0.9"/>
  <path d="M6.22417 7.11796C6.19356 7.08734 6.19356 7.02612 6.16295 6.96489C6.16295 6.90367 6.13233 6.84244 6.13233 6.78122C6.07111 6.84244 6.00989 6.87306 5.94866 6.93428C5.88744 6.99551 5.7956 7.02612 5.73438 7.05673C5.64254 7.08734 5.58131 7.11795 5.45887 7.14857C5.36703 7.17918 5.24458 7.17918 5.15274 7.17918C4.96907 7.17918 4.81601 7.14857 4.66295 7.08734C4.50989 7.02612 4.38744 6.96489 4.26499 6.87306C4.14254 6.78122 4.08131 6.65877 4.02009 6.53632C3.95887 6.41387 3.92825 6.26081 3.92825 6.10775C3.92825 5.7404 4.08131 5.43428 4.35682 5.25061C4.63234 5.03632 5.06091 4.94449 5.61193 4.94449H6.13233V4.7302C6.13233 4.54653 6.07111 4.42408 5.97927 4.33224C5.85682 4.2404 5.70376 4.17918 5.48948 4.17918C5.3058 4.17918 5.18336 4.20979 5.09152 4.30163C4.99968 4.39347 4.96907 4.4853 4.96907 4.60775H4.0507C4.0507 4.45469 4.08131 4.30163 4.14254 4.17918C4.20376 4.05673 4.2956 3.93428 4.44866 3.81183C4.57111 3.72 4.72417 3.62816 4.90784 3.56693C5.09152 3.50571 5.3058 3.4751 5.5507 3.4751C5.76499 3.4751 5.94866 3.50571 6.13233 3.56693C6.31601 3.62816 6.46907 3.68938 6.62213 3.81183C6.74458 3.90367 6.86703 4.05673 6.92825 4.20979C6.98948 4.36285 7.0507 4.54653 7.0507 4.76081V6.29142C7.0507 6.4751 7.0507 6.62816 7.08131 6.75061C7.11193 6.87306 7.14254 6.99551 7.17315 7.05673V7.11796H6.22417ZM5.33642 6.4751C5.42825 6.4751 5.52009 6.4751 5.58131 6.44449C5.67315 6.41387 5.73438 6.38326 5.7956 6.35265C5.85682 6.32204 5.91805 6.29142 5.94866 6.2302L6.07111 6.10775V5.49551H5.61193C5.45887 5.49551 5.33642 5.49551 5.24458 5.52612C5.15274 5.55673 5.06091 5.58734 4.99968 5.64857C4.93846 5.70979 4.87723 5.7404 4.84662 5.83224C4.81601 5.89347 4.81601 5.9853 4.81601 6.04653C4.81601 6.16898 4.84662 6.26081 4.93846 6.35265C5.03029 6.44449 5.18336 6.4751 5.33642 6.4751Z" fill="#9C9C9C"/>
</svg>