<svg width="48" height="48" viewBox="0 0 48 48" fill="none" xmlns="http://www.w3.org/2000/svg">
<rect width="48" height="48" rx="9.8" fill="#121212"/>
<path d="M38.6455 26.2481C38.6455 17.8269 31.8578 11 23.4851 11C15.1119 11 8.00001 17.8269 8.00001 26.2481V35.7651C7.99907 36.0875 8.12595 36.3972 8.35313 36.6253C8.57983 36.8539 8.88771 36.9817 9.20864 36.9808H10.9355C11.0945 36.9811 11.252 36.9499 11.3989 36.889C11.5457 36.8281 11.679 36.7386 11.791 36.6258C12.018 36.3969 12.145 36.0874 12.1442 35.7651V27.8598C12.1442 27.1881 12.6853 26.6442 13.3528 26.6442H15.8116C16.133 26.6451 16.441 26.7738 16.6676 27.0017C16.8943 27.2297 17.0211 27.5383 17.0202 27.8598V35.7651C17.0193 36.0875 17.1462 36.3972 17.3733 36.6253C17.6001 36.8539 17.9079 36.9817 18.2289 36.9808H19.9557C20.1147 36.9811 20.2722 36.9499 20.4191 36.889C20.5659 36.8281 20.6992 36.7386 20.8113 36.6258C21.0383 36.3969 21.1652 36.0874 21.1644 35.7651V33.3647C21.1644 30.9637 22.4379 28.7452 24.5053 27.5445C25.52 26.9547 26.6727 26.644 27.8464 26.644C29.0201 26.644 30.1728 26.9547 31.1875 27.5445C32.2052 28.1373 33.0493 28.9868 33.6357 30.0082C34.2221 31.0296 34.5301 32.1869 34.5289 33.3647V35.7651C34.5284 35.9243 34.5592 36.082 34.6197 36.2292C34.6801 36.3764 34.769 36.5103 34.8812 36.6232C34.9934 36.7361 35.1267 36.8257 35.2736 36.8871C35.4204 36.9484 35.5779 36.9803 35.737 36.9808H37.4434C37.6026 36.9803 37.7601 36.9486 37.907 36.8872C38.0539 36.8259 38.1873 36.7362 38.2996 36.6233C38.4118 36.5104 38.5007 36.3766 38.5612 36.2293C38.6217 36.082 38.6525 35.9243 38.652 35.7651L38.6455 26.2481ZM16.7268 23.0024C16.5009 23.3689 16.1906 23.676 15.8219 23.898C15.5051 24.081 15.1523 24.1929 14.788 24.2259C14.4236 24.2589 14.0565 24.2123 13.712 24.0893C13.6105 24.0578 13.514 24.0122 13.4251 23.954C13.0334 23.7368 12.707 23.4187 12.4799 23.0326C12.2528 22.6465 12.1333 22.2067 12.1339 21.7588C12.1333 21.3109 12.2528 20.871 12.4799 20.4849C12.707 20.0989 13.0334 19.7807 13.4251 19.5635C13.5184 19.5038 13.6196 19.4586 13.726 19.4283C14.1704 19.2712 14.65 19.2426 15.1099 19.3457C15.5698 19.4489 15.9914 19.6796 16.3261 20.0114C16.5647 20.2333 16.7547 20.5022 16.8843 20.8012C17.0139 21.1001 17.0801 21.4227 17.079 21.7485C17.0783 22.1908 16.9565 22.6244 16.7268 23.0024Z" fill="#B3B3B3"/>
<path d="M39.9932 26.2481C39.9932 17.8269 33.206 11 24.8328 11C16.4605 11 9.34815 17.8269 9.34815 26.2481V35.7651C9.34722 36.0875 9.4741 36.3972 9.70127 36.6253C9.92798 36.8539 10.2359 36.9817 10.5568 36.9808H12.2837C12.4427 36.9811 12.6002 36.9499 12.747 36.889C12.8939 36.8281 13.0272 36.7386 13.1392 36.6258C13.3662 36.3969 13.4932 36.0874 13.4923 35.7651V27.8598C13.4923 27.1881 14.0334 26.6442 14.7005 26.6442H17.1597C17.4811 26.6453 17.7889 26.7739 18.0154 27.0019C18.242 27.2298 18.3688 27.5384 18.3679 27.8598V35.7651C18.3672 36.0874 18.4944 36.3967 18.7215 36.6253C18.9482 36.8539 19.2561 36.9817 19.577 36.9808H21.3039C21.4629 36.9811 21.6204 36.9499 21.7672 36.889C21.9141 36.8281 22.0474 36.7386 22.1594 36.6258C22.3864 36.3969 22.5134 36.0874 22.5125 35.7651V33.3647C22.5125 30.9637 23.786 28.7452 25.8534 27.5445C26.8681 26.9547 28.0209 26.644 29.1945 26.644C30.3682 26.644 31.5209 26.9547 32.5357 27.5445C33.5533 28.1373 34.3975 28.9868 34.9839 30.0082C35.5702 31.0296 35.8782 32.1869 35.877 33.3647V35.7651C35.8765 35.9243 35.9074 36.082 35.9678 36.2292C36.0283 36.3764 36.1172 36.5103 36.2293 36.6232C36.3415 36.7361 36.4749 36.8257 36.6217 36.8871C36.7685 36.9484 36.926 36.9803 37.0852 36.9808H38.7916C39.113 36.9798 39.4209 36.8512 39.6476 36.6232C39.8742 36.3952 40.0011 36.0866 40.0002 35.7651L39.9932 26.2481ZM18.0754 23.0024C17.8496 23.3689 17.5393 23.676 17.1705 23.898C16.8537 24.081 16.5009 24.1929 16.1366 24.226C15.7723 24.259 15.4051 24.2123 15.0606 24.0893C14.9591 24.0578 14.8626 24.0122 14.7737 23.954C14.382 23.7368 14.0556 23.4187 13.8285 23.0326C13.6014 22.6465 13.482 22.2067 13.4825 21.7588C13.482 21.3109 13.6014 20.871 13.8285 20.4849C14.0556 20.0989 14.382 19.7807 14.7737 19.5635C14.867 19.5038 14.9682 19.4586 15.0741 19.4283C15.5186 19.2711 15.9983 19.2424 16.4583 19.3456C16.9183 19.4487 17.3399 19.6795 17.6747 20.0114C17.9133 20.2333 18.1033 20.5022 18.2329 20.8012C18.3625 21.1001 18.4288 21.4227 18.4276 21.7485C18.427 22.1908 18.3051 22.6244 18.0754 23.0024Z" fill="#FCFCFC"/>
</svg>
