<svg width="48" height="48" viewBox="0 0 48 48" fill="none" xmlns="http://www.w3.org/2000/svg">
<rect width="48" height="48" rx="9.8" fill="#231940"/>
<path fill-rule="evenodd" clip-rule="evenodd" d="M16.8804 11.1699C17.1345 10.4699 17.8297 10 18.6112 10H18.5891C17.6588 10 16.9334 10.6421 16.7852 11.4323L16.8804 11.1699ZM23.9858 31.9336L25.6663 36.5635C25.9203 37.2634 26.6156 37.7333 27.3971 37.7333H38.1682C39.4247 37.7333 40.3076 36.5618 39.8991 35.4365L31.0911 11.1699L31.1872 11.4362C31.2382 11.7122 31.2188 12.006 31.1132 12.2968L23.9858 31.9336Z" fill="#63E6E2"/>
<path fill-rule="evenodd" clip-rule="evenodd" d="M16.8122 11.4362L8.10087 35.4365C7.69243 36.5618 8.57526 37.7333 9.83171 37.7333H20.6029C21.3844 37.7333 22.0797 37.2634 22.3338 36.5635L24.0139 31.9345L16.886 12.2968C16.7805 12.006 16.7612 11.7122 16.8122 11.4362ZM31.2155 11.4362C31.0691 10.6443 30.3427 10 29.4109 10H29.388C30.1695 10 30.8648 10.4699 31.1189 11.1699L31.2155 11.4362Z" fill="url(#paint0_linear_428_9303)"/>
<path fill-rule="evenodd" clip-rule="evenodd" d="M18.6397 10C17.8582 10 17.163 10.4699 16.9089 11.1699L16.8136 11.4324C16.7617 11.7094 16.78 12.0047 16.886 12.2968L24.0139 31.9345L31.1418 12.2968C31.2479 12.0047 31.2668 11.7094 31.2148 11.4324L31.1189 11.1699C30.8648 10.4699 30.1695 10 29.388 10H18.6397Z" fill="#6F83FE"/>
<defs>
<linearGradient id="paint0_linear_428_9303" x1="24.0001" y1="10" x2="18.2307" y2="43.3756" gradientUnits="userSpaceOnUse">
<stop stop-color="#6F83FE"/>
<stop offset="1" stop-color="#65DDE5"/>
</linearGradient>
</defs>
</svg>
