<svg width="48" height="48" viewBox="0 0 48 48" fill="none" xmlns="http://www.w3.org/2000/svg">
<g id="Frame 307">
<rect width="48" height="48" rx="9.8" fill="#0000FE"/>
<g id="Layer_1">
<path id="Vector" d="M32.079 16H15.921C11.5645 16 8 19.5645 8 23.921V25.272C8 29.6285 11.5645 33.193 15.921 33.193H32.079C36.4355 33.193 40 29.6285 40 25.272V23.921C40 19.5645 36.4355 16 32.079 16ZM22.3904 28.7479C22.2639 28.8743 22.0962 28.9436 21.9175 28.9436H15.8344C15.1348 28.9436 14.4771 28.6711 13.9823 28.1762C13.4877 27.6813 13.2151 27.0236 13.2151 26.3241C13.2151 24.8799 14.3902 23.7048 15.8347 23.7048H16.8302C17.1155 23.7048 17.3476 23.4727 17.3476 23.1874V22.1607C17.3476 21.4609 17.6202 20.8031 18.1147 20.3086C18.6096 19.8137 19.2673 19.5414 19.9669 19.5414C20.6664 19.5414 21.3241 19.814 21.819 20.3086C22.3136 20.8034 22.5861 21.4611 22.5861 22.1607V28.2746C22.5861 28.4534 22.5168 28.6214 22.3904 28.7476V28.7479ZM33.1166 24.6229L34.098 25.6043C34.482 25.9883 34.6936 26.501 34.6936 27.0482C34.6936 27.5953 34.482 28.1081 34.098 28.4921C33.714 28.876 33.2012 29.0877 32.6541 29.0877C32.107 29.0877 31.5942 28.876 31.2102 28.4921L30.2288 27.5107C30.1971 27.4789 30.1549 27.4616 30.1102 27.4616C30.0654 27.4616 30.0233 27.4789 29.9915 27.5107L29.0102 28.4921C28.6262 28.876 28.1134 29.0877 27.5663 29.0877C27.0191 29.0877 26.5064 28.876 26.1224 28.4921C25.3261 27.6958 25.3261 26.4006 26.1224 25.6043L27.1037 24.6229C27.1355 24.5912 27.1528 24.549 27.1528 24.5042C27.1528 24.4595 27.1355 24.4173 27.1037 24.3856L26.1224 23.4042C25.7384 23.0202 25.5267 22.5075 25.5267 21.9603C25.5267 21.4132 25.7384 20.9004 26.1224 20.5164C26.5064 20.1324 27.0194 19.9208 27.5663 19.9208C28.1131 19.9208 28.6262 20.1324 29.0102 20.5164L29.9915 21.4978C30.0233 21.5296 30.0654 21.5469 30.1102 21.5469C30.1549 21.5469 30.1971 21.5293 30.2288 21.4978L31.2102 20.5164C31.5942 20.1324 32.107 19.9208 32.6541 19.9208C33.2012 19.9208 33.714 20.1324 34.098 20.5164C34.482 20.9004 34.6936 21.4132 34.6936 21.9603C34.6936 22.5075 34.482 23.0202 34.098 23.4042L33.1166 24.3856C33.0511 24.4511 33.0511 24.5574 33.1166 24.6229Z" fill="white"/>
</g>
</g>
</svg>
