<svg xmlns="http://www.w3.org/2000/svg" width="48" height="48" viewBox="0 0 48 48" fill="none">
  <rect width="48" height="48" rx="9.8" fill="white"/>
  <path fill-rule="evenodd" clip-rule="evenodd" d="M24.0854 11.3413L20.9413 15.2133L23.5345 19.2404H26.9513L29.5967 15.2855L24.0854 11.3413ZM30.363 14.14L24.531 9.96632C24.1388 9.68568 23.596 9.75876 23.2921 10.1331L20.1565 13.9946L17.7881 10.3165C17.4332 9.76543 16.6303 9.75739 16.2644 10.3012L10.2218 19.284C9.41735 19.4645 8.81632 20.1831 8.81632 21.0419L8.81628 28.9016C8.81628 29.5979 9.26316 30.1901 9.88578 30.4066C9.22158 31.1281 8.81628 32.0945 8.81628 33.1537C8.81628 35.3763 10.6006 37.1905 12.8172 37.1905C15.0338 37.1905 16.8181 35.3763 16.8181 33.1537C16.8181 32.1372 16.4447 31.2059 15.8273 30.4946H33.1522C32.5348 31.2059 32.1614 32.1372 32.1614 33.1537C32.1614 35.3763 33.9458 37.1905 36.1624 37.1905C38.3788 37.1905 40.1632 35.3763 40.1632 33.1537C40.1632 32.1012 39.763 31.1404 39.1063 30.4202C39.7196 30.2214 40.1632 29.645 40.1632 28.9654V21.7906C40.1632 20.4052 39.0586 19.2778 37.6821 19.2413L33.9988 12.349C33.5087 11.4315 32.2174 11.3677 31.6391 12.2323L30.363 14.14ZM37.6175 20.6179C37.616 20.6178 37.6145 20.6178 37.613 20.6178H10.6179C10.3837 20.6178 10.1938 20.8077 10.1938 21.042L10.1938 28.9016C10.1938 29.0205 10.2902 29.1171 10.4092 29.1171H38.634C38.7178 29.1171 38.7857 29.0492 38.7857 28.9654V21.7906C38.7857 21.1443 38.263 20.6202 37.6175 20.6179ZM36.1198 19.2403H28.6084L32.784 12.9982L36.1198 19.2403ZM12.8172 30.4946C14.2591 30.4946 15.4407 31.6781 15.4407 33.1537C15.4407 34.6295 14.2591 35.813 12.8172 35.813C11.3753 35.813 10.1938 34.6295 10.1938 33.1537C10.1938 31.6781 11.3753 30.4946 12.8172 30.4946ZM11.9113 19.2404H21.8961L17.0127 11.6567L11.9113 19.2404ZM36.1624 30.4946C34.7203 30.4946 33.5389 31.6781 33.5389 33.1537C33.5389 34.6295 34.7203 35.813 36.1624 35.813C37.6043 35.813 38.7857 34.6295 38.7857 33.1537C38.7857 31.6781 37.6043 30.4946 36.1624 30.4946Z" fill="black"/>
</svg>