<svg width="48" height="48" viewBox="0 0 48 48" fill="none" xmlns="http://www.w3.org/2000/svg">
<rect width="48" height="48" rx="9.8" fill="black"/>
<path d="M22.9977 8.4727C23.1275 8.9268 23.1058 8.94842 22.7599 8.64569C22.3922 8.34296 22.3706 8.36458 22.5004 8.73218C22.6734 9.16466 22.2841 9.79174 21.9814 9.59713C21.8733 9.53226 21.7868 9.27277 21.7868 9.01329C21.7868 8.62406 21.7435 8.60244 21.5705 8.86193C21.2894 9.2944 21.3111 9.42414 21.7003 9.81337C21.8733 10.008 21.9382 10.1593 21.8084 10.1593C21.6787 10.1593 21.5705 10.354 21.5705 10.5918C21.5705 11.5865 20.7272 10.5918 20.4677 9.2944C20.338 8.62406 20.3164 8.60244 20.2948 9.12141C20.2948 9.46739 20.1866 9.72687 20.1001 9.72687C19.8623 9.72687 19.2784 9.07816 19.1271 8.64569C19.0406 8.3862 18.9973 8.40783 18.9973 8.68893C18.9757 8.90517 18.8676 9.07816 18.7378 9.07816C18.6297 9.07816 18.5649 8.99167 18.6514 8.88355C18.7162 8.77543 18.673 8.62406 18.5432 8.53757C18.2838 8.3862 18.2838 8.77543 18.5216 9.40252C18.673 9.79174 18.6946 9.79174 18.9108 9.42414C19.1055 9.07816 19.1487 9.07816 19.4082 9.40252C19.646 9.68362 19.646 9.83499 19.4082 10.2675C19.0622 10.9378 18.8676 10.9378 18.3702 10.354C17.5053 9.27277 17.0296 8.81868 17.0296 9.03491C17.0296 9.16466 17.1377 9.33764 17.2674 9.40252C17.808 9.7485 18.7162 11.2622 18.6081 11.673C18.5432 11.9109 18.4135 12.1055 18.327 12.1055C18.0675 12.1055 16.8998 10.5918 16.5106 9.72687C16.316 9.31602 16.2079 9.14303 16.2728 9.33764C16.3809 9.79174 16.143 9.83499 15.7754 9.46739C15.5808 9.27277 15.5159 9.27277 15.5159 9.46739C15.5159 9.61875 15.6024 9.72687 15.7322 9.72687C15.8619 9.72687 15.8619 9.92148 15.7538 10.2026C15.5159 10.8513 15.6673 11.2405 16.1214 11.2189C16.3592 11.2189 16.3809 11.1757 16.2295 11.0892C16.0781 11.0459 15.9484 10.7432 15.9484 10.4188V9.85661L16.5971 10.4837C16.9647 10.8297 17.2026 11.2405 17.1593 11.3919C17.0945 11.5433 17.1161 11.673 17.2242 11.673C17.5269 11.673 17.9161 13.4678 17.8513 14.5922L17.7864 15.6734L17.0945 14.5922C16.7268 13.9867 16.2944 13.0785 16.143 12.5379C15.9916 11.9974 15.7322 11.4351 15.5808 11.2838C15.4294 11.1324 15.1699 10.7864 14.9753 10.5486C14.8023 10.2891 14.6077 10.1161 14.5645 10.181C14.4996 10.2458 14.7158 10.6351 15.0618 11.0459C15.6673 11.8027 16.2511 13.165 16.0565 13.3596C15.9916 13.4245 15.5375 13.1002 15.0402 12.6244C14.5645 12.1703 14.2401 11.9109 14.3266 12.0839C14.4347 12.3001 14.4131 12.3433 14.2401 12.2352C14.1104 12.1487 14.0455 11.9974 14.1104 11.8892C14.305 11.5865 13.9806 11.0675 13.3968 10.6999L12.813 10.354L13.3103 10.7864C13.8509 11.2622 13.9374 11.8892 13.4617 11.8892C13.3103 11.8892 13.0508 11.7162 12.9427 11.5C12.7481 11.1757 12.7265 11.1757 12.7048 11.5C12.7048 11.7162 12.986 11.9541 13.4401 12.1055C15.3429 12.7326 17.4404 15.1544 18.1973 17.5763C18.4135 18.2682 18.5432 18.8953 18.4784 18.9386C18.4351 18.9818 17.8945 18.6142 17.2891 18.1169C15.97 17.0573 14.5645 15.003 14.1969 13.5759C14.0455 13.0137 13.8077 12.5163 13.6563 12.4515C13.4617 12.3866 13.4833 12.5163 13.6779 12.9272C14.1104 13.8137 14.2618 14.4841 14.0671 14.4841C13.959 14.4841 13.5049 14.1165 13.0724 13.684C12.6184 13.2515 12.2724 13.0353 12.3156 13.2083C12.3589 13.3596 12.7913 13.8137 13.2887 14.203C14.0671 14.8301 15.5159 16.6032 15.5159 16.9492C15.5159 17.1438 13.3968 16.0842 12.5967 15.4571C12.1426 15.1328 11.5155 14.4192 11.1696 13.8786C10.8236 13.338 10.5425 12.9704 10.5425 13.1002C10.5425 13.2083 10.6938 13.5326 10.8885 13.7921C11.0831 14.0732 11.1696 14.3543 11.1047 14.4192C11.0398 14.4841 11.4074 14.8517 11.9048 15.1977C12.9211 15.9545 12.6832 16.1923 11.3209 15.8031C10.8885 15.695 10.5425 15.6734 10.5425 15.7815C10.5425 15.9545 11.602 16.214 12.3156 16.214C13.2238 16.214 15.8835 17.6195 17.3972 18.8953C18.2405 19.6305 18.9541 20.2792 18.9541 20.3657C18.9757 20.4522 19.5163 21.2955 20.165 22.247C21.1597 23.6741 21.5057 24.4526 22.3274 27.1555L23.3221 30.3558L23.3004 35.1779L23.2788 40H24.1654H25.052L25.0303 35.1779L25.0087 30.3558L26.0034 27.1555C26.8251 24.4526 27.1711 23.6741 28.1658 22.247C28.8145 21.2955 29.3551 20.4522 29.3767 20.3657C29.3767 20.2792 30.0903 19.6305 30.9336 18.8953C32.4473 17.6195 35.107 16.214 36.0152 16.214C36.7287 16.214 37.7883 15.9545 37.7883 15.7815C37.7883 15.6734 37.4423 15.695 37.0098 15.8031C35.6476 16.1923 35.4097 15.9545 36.426 15.1977C36.9233 14.8517 37.291 14.4841 37.2261 14.4192C37.1612 14.3543 37.2477 14.0732 37.4423 13.7921C37.6369 13.5326 37.7883 13.2083 37.7883 13.1002C37.7883 12.9704 37.5072 13.338 37.1612 13.8786C36.8152 14.4192 36.1881 15.1328 35.734 15.4571C34.934 16.0842 32.8149 17.1438 32.8149 16.9492C32.8149 16.6032 34.2636 14.8301 35.0421 14.203C35.5394 13.8137 35.9719 13.3596 36.0152 13.2083C36.0584 13.0353 35.7124 13.2515 35.2583 13.684C34.8259 14.1165 34.3718 14.4841 34.2636 14.4841C34.069 14.4841 34.2204 13.8137 34.6529 12.9272C34.8475 12.5163 34.8691 12.3866 34.6745 12.4515C34.5231 12.5163 34.2853 13.0137 34.1339 13.5759C33.7663 15.003 32.3608 17.0573 31.0417 18.1169C30.4363 18.6142 29.8957 18.9818 29.8524 18.9386C29.7875 18.8953 29.9173 18.2682 30.1335 17.5763C30.8903 15.1544 32.9878 12.7326 34.8907 12.1055C35.3448 11.9541 35.6259 11.7162 35.6259 11.5C35.6043 11.1757 35.5827 11.1757 35.3881 11.5C35.28 11.7162 35.0205 11.8892 34.8691 11.8892C34.3934 11.8892 34.4799 11.2622 35.0421 10.7864L35.5178 10.354L34.934 10.6999C34.3501 11.0675 34.0258 11.5865 34.2204 11.8892C34.2853 11.9974 34.2204 12.1487 34.0907 12.2352C33.9177 12.3433 33.896 12.3001 34.0042 12.0839C34.0907 11.9109 33.7663 12.1703 33.2906 12.6244C32.7932 13.1002 32.3391 13.4245 32.2743 13.3596C32.0796 13.165 32.6635 11.8027 33.269 11.0459C33.6149 10.6351 33.8312 10.2458 33.7663 10.181C33.723 10.1161 33.5284 10.2891 33.3554 10.5486C33.1608 10.7864 32.9013 11.1324 32.75 11.2838C32.5986 11.4351 32.3391 11.9974 32.1878 12.5379C32.0364 13.0785 31.6039 13.9867 31.2363 14.5922L30.5444 15.6734L30.4795 14.5922C30.4146 13.4678 30.8039 11.673 31.1066 11.673C31.2147 11.673 31.2363 11.5433 31.1715 11.3919C31.1282 11.2405 31.3661 10.8297 31.7337 10.4837L32.3824 9.85661V10.4188C32.3824 10.7432 32.2526 11.0459 32.1229 11.0892C31.9499 11.1757 31.9715 11.2189 32.2094 11.2189C32.6635 11.2405 32.8149 10.8513 32.577 10.2026C32.4689 9.92148 32.4689 9.72687 32.5986 9.72687C32.7284 9.72687 32.8149 9.61875 32.8149 9.46739C32.8149 9.27277 32.75 9.27277 32.5554 9.46739C32.1878 9.83499 31.9499 9.79174 32.058 9.33764C32.1229 9.14303 32.0148 9.31602 31.8202 9.72687C31.4309 10.5918 30.2633 12.1055 30.0038 12.1055C29.9173 12.1055 29.7875 11.9109 29.7227 11.673C29.6146 11.2622 30.5227 9.7485 31.0633 9.40252C31.1931 9.33764 31.3012 9.16466 31.3012 9.03491C31.3012 8.81868 30.8255 9.27277 29.9605 10.354C29.4632 10.9378 29.2686 10.9378 28.9226 10.2675C28.6847 9.83499 28.6847 9.68362 28.9226 9.40252C29.1821 9.07816 29.2253 9.07816 29.4199 9.42414C29.6362 9.79174 29.6578 9.79174 29.8092 9.40252C30.047 8.77543 30.047 8.3862 29.7875 8.53757C29.6578 8.62406 29.6146 8.77543 29.6794 8.88355C29.7659 8.99167 29.701 9.07816 29.5929 9.07816C29.4632 9.07816 29.3551 8.90517 29.3334 8.68893C29.3334 8.40783 29.2902 8.3862 29.2037 8.64569C29.0523 9.07816 28.4685 9.72687 28.2306 9.72687C28.1441 9.72687 28.036 9.46739 28.036 9.12141C28.0144 8.60244 27.9928 8.62406 27.863 9.2944C27.6036 10.5918 26.7602 11.5865 26.7602 10.5918C26.7602 10.354 26.6521 10.1593 26.5224 10.1593C26.3926 10.1593 26.4575 10.008 26.6305 9.81337C27.0197 9.42414 27.0413 9.2944 26.7602 8.86193C26.5872 8.60244 26.544 8.62406 26.544 9.01329C26.544 9.27277 26.4575 9.53226 26.3494 9.59713C26.0466 9.79174 25.6574 9.16466 25.8304 8.73218C25.9602 8.36458 25.9385 8.34296 25.5709 8.64569C25.2249 8.94842 25.2033 8.9268 25.3331 8.4727C25.5709 7.75912 25.3331 7.88886 25.0736 8.62406C24.879 9.16466 24.9006 9.25115 25.1601 9.14303C25.3979 9.05654 25.4628 9.25115 25.4628 10.0728C25.4628 11.2405 25.2898 12.1055 25.052 12.1055C24.7709 12.1055 24.4032 10.2891 24.6195 9.89986C24.7492 9.68362 24.7276 9.48901 24.5979 9.40252C24.4897 9.33764 24.3816 9.46739 24.3816 9.70525C24.3816 9.96473 24.2951 10.1593 24.1654 10.1593C24.0573 10.1593 23.9492 9.96473 23.9492 9.70525C23.9492 9.46739 23.841 9.33764 23.7329 9.40252C23.6032 9.48901 23.5815 9.68362 23.7113 9.89986C23.9275 10.2891 23.5599 12.1055 23.2788 12.1055C23.041 12.1055 22.868 11.2405 22.868 10.0728C22.868 9.25115 22.9328 9.05654 23.1707 9.14303C23.4302 9.25115 23.4518 9.16466 23.2572 8.62406C22.9977 7.88886 22.7599 7.75912 22.9977 8.4727ZM20.1866 10.4621C20.2083 10.8513 20.1434 10.9594 19.8623 10.8945C19.6677 10.8297 19.7325 10.8945 19.9704 11.0459C20.2299 11.1757 20.5326 11.6514 20.684 12.1055C20.9651 13.0569 21.0083 14.7003 20.7272 14.7003C20.4245 14.7003 19.4731 13.1218 19.1703 12.1487C18.9541 11.4351 18.9757 11.2189 19.2136 10.9378C19.3866 10.7648 19.646 10.4621 19.7974 10.2675C20.165 9.85661 20.165 9.85661 20.1866 10.4621ZM28.7064 10.3756C28.7064 10.4837 28.8577 10.7216 29.0523 10.9162C29.3767 11.2189 29.3767 11.3919 29.1605 12.1487C28.8577 13.1218 27.9063 14.7003 27.6036 14.7003C27.3224 14.7003 27.3657 13.0569 27.6468 12.1055C27.7982 11.6514 28.1009 11.1757 28.3604 11.0459C28.5982 10.8945 28.6631 10.8297 28.4685 10.8945C28.209 10.9594 28.1225 10.8513 28.1441 10.5053C28.1658 10.0512 28.7064 9.94311 28.7064 10.3756ZM21.2029 11.6946C21.1381 11.9109 21.0083 12.0406 20.9002 11.9974C20.8137 11.9325 20.7705 11.7379 20.8353 11.5865C20.9002 11.4135 20.857 11.2189 20.7272 11.1324C20.5975 11.0675 20.4894 10.8297 20.4894 10.6351C20.4894 10.354 20.5759 10.3756 20.9002 10.7864C21.1165 11.0675 21.2462 11.4784 21.2029 11.6946ZM22.6734 11.3486C23.2572 12.6461 23.1275 12.8407 22.2625 12.1055C21.6787 11.6298 21.5705 11.4135 21.7003 10.9378C21.8949 10.1161 22.176 10.2458 22.6734 11.3486ZM26.6305 10.9378C26.7602 11.4135 26.6521 11.6298 26.0683 12.1055C25.2033 12.8407 25.0736 12.6461 25.6574 11.3486C26.1548 10.2458 26.4359 10.1161 26.6305 10.9378ZM27.7117 10.9594C27.6252 11.1757 27.5171 11.4351 27.4954 11.5649C27.4738 11.673 27.4306 11.8676 27.4089 11.9974C27.3873 12.1055 27.3008 12.019 27.2143 11.7811C27.1062 11.5 27.1495 11.1757 27.3657 10.8513C27.7333 10.2891 27.9928 10.3756 27.7117 10.9594ZM24.5979 11.7379C24.8573 12.9056 24.6844 13.8354 24.1654 13.8354C23.6464 13.8354 23.4734 12.9056 23.7329 11.7379C23.8843 11.1108 24.0789 10.5918 24.1654 10.5918C24.2519 10.5918 24.4465 11.1108 24.5979 11.7379ZM22.349 12.4731C23.0193 13.0353 23.0842 13.165 23.0842 14.2895C23.0842 15.3058 22.868 16.2572 22.2841 17.9439C22.0679 18.5709 21.1381 15.3058 21.1381 13.9219C21.1381 12.6677 21.2678 11.8892 21.5057 11.8892C21.5489 11.8892 21.9382 12.1487 22.349 12.4731ZM27.063 12.2352C27.3657 13.0353 27.1711 15.3058 26.6737 16.7762C26.3926 17.6195 26.1115 18.1169 26.0466 17.9439C25.4628 16.2572 25.2466 15.3058 25.2466 14.2895C25.2466 13.2299 25.3114 13.0569 25.9602 12.5163C26.7819 11.8027 26.89 11.7811 27.063 12.2352ZM18.9325 12.4731C18.9108 12.6893 19.2784 13.4461 19.7758 14.1813C21.0083 15.9761 21.7868 18.6142 21.7868 20.9279C21.7868 21.901 21.7219 22.7011 21.6354 22.7011C21.2246 22.6794 19.3001 19.3926 18.846 17.9222C18.3054 16.2572 18.1108 13.1218 18.5432 12.8623C18.6514 12.7974 18.6946 12.6028 18.6081 12.4298C18.5432 12.2568 18.6081 12.1055 18.7595 12.1055C18.8892 12.1055 18.9757 12.2785 18.9325 12.4731ZM29.7227 12.4298C29.6362 12.6028 29.6794 12.7974 29.7875 12.8623C30.22 13.1218 30.0254 16.2572 29.4848 17.9222C29.0307 19.3926 27.1062 22.6794 26.717 22.7011C26.6089 22.7011 26.544 21.901 26.544 20.9279C26.544 18.6142 27.3224 15.9761 28.555 14.1813C29.0523 13.4461 29.4199 12.6893 29.3983 12.4731C29.3551 12.2785 29.4416 12.1055 29.5713 12.1055C29.7227 12.1055 29.7875 12.2568 29.7227 12.4298ZM25.1168 16.8843C25.679 18.5061 25.7223 18.9602 25.7007 21.2955C25.679 23.5444 25.5926 24.1931 24.9871 26.2041C24.5979 27.5015 24.2303 28.5395 24.1654 28.5395C24.1005 28.5395 23.7329 27.5015 23.3437 26.2041C22.7382 24.1931 22.6517 23.566 22.6301 21.2955C22.6085 19.1764 22.695 18.4196 23.0842 17.187C23.9924 14.3111 24.2303 14.2678 25.1168 16.8843Z" fill="white"/>
<path d="M9.46113 15.241C9.76387 15.414 10.1098 15.5437 10.218 15.5437C10.3477 15.5437 10.1963 15.414 9.89361 15.241C9.59088 15.068 9.26652 14.9382 9.13678 14.9382C9.02866 14.9382 9.1584 15.068 9.46113 15.241Z" fill="white"/>
<path d="M38.437 15.241C38.1342 15.414 38.0045 15.5437 38.1126 15.5437C38.2424 15.5437 38.5667 15.414 38.8694 15.241C39.1722 15.068 39.3235 14.9382 39.1938 14.9382C39.0857 14.9382 38.7397 15.068 38.437 15.241Z" fill="white"/>
<path d="M9.09364 16.149C9.28825 16.1922 9.63423 16.1922 9.85047 16.149C10.0451 16.0841 9.87209 16.0408 9.46124 16.0408C9.05039 16.0408 8.8774 16.0841 9.09364 16.149Z" fill="white"/>
<path d="M38.5018 16.149C38.6965 16.1922 39.0424 16.1922 39.2587 16.149C39.4533 16.0841 39.2803 16.0408 38.8694 16.0408C38.4586 16.0408 38.2856 16.0841 38.5018 16.149Z" fill="white"/>
</svg>
