<svg width="48" height="48" viewBox="0 0 48 48" fill="none" xmlns="http://www.w3.org/2000/svg">
<rect width="48" height="48" rx="8" fill="white"/>
<path d="M15.7419 19.2471H30.3471C33.3945 19.2471 35.8604 16.732 35.8604 13.6236C35.8604 10.5151 33.3945 8 30.3471 8H12.3955C11.6248 8 11 8.63727 11 9.42337V24.2773" stroke="black" stroke-width="2.44282" stroke-miterlimit="10"/>
<path d="M21.6977 13.1335L15.7039 19.2472L21.6977 25.348" stroke="black" stroke-width="2.44282" stroke-miterlimit="10"/>
<path d="M24.4414 35.6019L30.4226 29.5011L24.4414 23.3875" stroke="black" stroke-width="2.44282" stroke-miterlimit="10"/>
<path d="M29.7401 23.439C34.2292 23.439 37.871 27.1407 37.871 31.7195C37.871 36.2854 34.2418 40 29.7528 40H12.3955C11.6248 40 11 39.3628 11 38.5767V30.8986C11 30.1125 11.6248 29.4753 12.3955 29.4753H30.423" stroke="black" stroke-width="2.44282" stroke-miterlimit="10"/>
</svg>
