<svg width="48" height="48" viewBox="0 0 48 48" fill="none" xmlns="http://www.w3.org/2000/svg">
<g id="Frame 308">
<rect width="48" height="48" rx="9.8" fill="white"/>
<g id="Clip path group">
<mask id="mask0_1316_4155" style="mask-type:luminance" maskUnits="userSpaceOnUse" x="8" y="8" width="32" height="32">
<g id="clip0_106_5505">
<path id="Vector" d="M40 24C40 15.1634 32.8366 8 24 8C15.1634 8 8 15.1634 8 24C8 32.8366 15.1634 40 24 40C32.8366 40 40 32.8366 40 24Z" fill="white"/>
</g>
</mask>
<g mask="url(#mask0_1316_4155)">
<g id="Group">
<path id="Vector_2" d="M16.3784 3.02222C18.3482 3.02222 20.0291 3.41618 21.4212 4.20412C22.8132 4.99205 24.0476 5.91134 25.1244 6.96189C26.2013 8.01244 27.2519 8.93173 28.2762 9.71966C29.3005 10.5076 30.4036 10.9016 31.5855 10.9016C33.2139 10.9016 34.6453 10.2844 35.8797 9.04991C37.1142 7.78922 38.2436 6.21336 39.2678 4.32231L44.35 6.8437C43.5358 8.49836 42.551 10.1268 41.3953 11.7289C40.2659 13.3048 38.8871 14.618 37.2586 15.6686C35.6302 16.7191 33.6604 17.2444 31.3491 17.2444C29.4843 17.2444 27.8691 16.8504 26.5033 16.0625C25.1638 15.2746 23.9294 14.3553 22.8 13.3048C21.6969 12.2542 20.6201 11.3349 19.5695 10.547C18.5189 9.75905 17.3764 9.36509 16.142 9.36509C14.4611 9.36509 13.0165 9.99544 11.8083 11.2561C10.6002 12.4906 9.48394 14.0533 8.45962 15.9443L3.37744 13.4623C4.21791 11.8077 5.18969 10.1793 6.2928 8.57715C7.42217 6.97505 8.80103 5.64864 10.4295 4.59809C12.0579 3.54753 14.0408 3.02222 16.3784 3.02222Z" fill="#F8F8FF"/>
<path id="Vector_3" d="M16.3784 7.64453C18.3482 7.64453 20.0291 8.0385 21.4212 8.82643C22.8132 9.61437 24.0476 10.5337 25.1244 11.5842C26.2013 12.6348 27.2519 13.554 28.2762 14.342C29.3005 15.1299 30.4036 15.5239 31.5855 15.5239C33.2139 15.5239 34.6453 14.9067 35.8797 13.6722C37.1142 12.4115 38.2436 10.8357 39.2678 8.94462L44.35 11.466C43.5358 13.1207 42.551 14.7491 41.3953 16.3512C40.2659 17.9271 38.8871 19.2403 37.2586 20.2909C35.6302 21.3414 33.6604 21.8667 31.3491 21.8667C29.4843 21.8667 27.8691 21.4727 26.5033 20.6848C25.1638 19.8969 23.9294 18.9776 22.8 17.9271C21.6969 16.8765 20.6201 15.9572 19.5695 15.1693C18.5189 14.3814 17.3764 13.9874 16.142 13.9874C14.4611 13.9874 13.0165 14.6177 11.8083 15.8784C10.6002 17.1129 9.48394 18.6756 8.45962 20.5666L3.37744 18.0847C4.21791 16.43 5.18969 14.8016 6.2928 13.1995C7.42217 11.5974 8.80103 10.271 10.4295 9.2204C12.0579 8.16985 14.0408 7.64453 16.3784 7.64453Z" fill="#E0E1FF"/>
<path id="Vector_4" d="M16.3784 12.2666C18.3482 12.2666 20.0291 12.6606 21.4212 13.4485C22.8132 14.2364 24.0476 15.1557 25.1244 16.2063C26.2013 17.2569 27.2519 18.1761 28.2762 18.9641C29.3005 19.752 30.4036 20.1459 31.5855 20.1459C33.2139 20.1459 34.6453 19.5287 35.8797 18.2943C37.1142 17.0336 38.2436 15.4577 39.2678 13.5667L44.35 16.0881C43.5358 17.7427 42.551 19.3712 41.3953 20.9733C40.2659 22.5491 38.8871 23.8624 37.2586 24.9129C35.6302 25.9635 33.6604 26.4888 31.3491 26.4888C29.4843 26.4888 27.8691 26.0948 26.5033 25.3069C25.1638 24.5189 23.9294 23.5997 22.8 22.5491C21.6969 21.4986 20.6201 20.5793 19.5695 19.7913C18.5189 19.0034 17.3764 18.6095 16.142 18.6095C14.4611 18.6095 13.0165 19.2398 11.8083 20.5005C10.6002 21.735 9.48394 23.2977 8.45962 25.1887L3.37744 22.7067C4.21791 21.052 5.18969 19.4237 6.2928 17.8215C7.42217 16.2194 8.80103 14.893 10.4295 13.8425C12.0579 12.7919 14.0408 12.2666 16.3784 12.2666Z" fill="#C6C8FF"/>
<path id="Vector_5" d="M16.3784 16.8889C18.3482 16.8889 20.0291 17.2829 21.4212 18.0709C22.8132 18.8588 24.0476 19.7781 25.1244 20.8286C26.2013 21.8792 27.2519 22.7985 28.2762 23.5864C29.3005 24.3743 30.4036 24.7683 31.5855 24.7683C33.2139 24.7683 34.6453 24.1511 35.8797 22.9166C37.1142 21.6559 38.2436 20.0801 39.2678 18.189L44.35 20.7104C43.5358 22.365 42.551 23.9935 41.3953 25.5956C40.2659 27.1715 38.8871 28.4848 37.2586 29.5353C35.6302 30.5858 33.6604 31.1112 31.3491 31.1112C29.4843 31.1112 27.8691 30.7172 26.5033 29.9292C25.1638 29.1413 23.9294 28.222 22.8 27.1715C21.6969 26.121 20.6201 25.2016 19.5695 24.4137C18.5189 23.6257 17.3764 23.2318 16.142 23.2318C14.4611 23.2318 13.0165 23.8622 11.8083 25.1229C10.6002 26.3573 9.48394 27.92 8.45962 29.811L3.37744 27.3291C4.21791 25.6744 5.18969 24.046 6.2928 22.4439C7.42217 20.8418 8.80103 19.5154 10.4295 18.4648C12.0579 17.4143 14.0408 16.8889 16.3784 16.8889Z" fill="#A8ABFF"/>
<path id="Vector_6" d="M16.3784 21.511C18.3482 21.511 20.0291 21.905 21.4212 22.6929C22.8132 23.4809 24.0476 24.4001 25.1244 25.4507C26.2013 26.5013 27.2519 27.4205 28.2762 28.2085C29.3005 28.9964 30.4036 29.3903 31.5855 29.3903C33.2139 29.3903 34.6453 28.7731 35.8797 27.5387C37.1142 26.278 38.2436 24.7021 39.2678 22.8111L44.35 25.3325C43.5358 26.9871 42.551 28.6156 41.3953 30.2177C40.2659 31.7936 38.8871 33.1068 37.2586 34.1574C35.6302 35.2079 33.6604 35.7332 31.3491 35.7332C29.4843 35.7332 27.8691 35.3392 26.5033 34.5513C25.1638 33.7634 23.9294 32.8441 22.8 31.7936C21.6969 30.743 20.6201 29.8237 19.5695 29.0357C18.5189 28.2478 17.3764 27.8539 16.142 27.8539C14.4611 27.8539 13.0165 28.4842 11.8083 29.7449C10.6002 30.9794 9.48394 32.5421 8.45962 34.4331L3.37744 31.9511C4.21791 30.2964 5.18969 28.6681 6.2928 27.0659C7.42217 25.4638 8.80103 24.1375 10.4295 23.0869C12.0579 22.0363 14.0408 21.511 16.3784 21.511Z" fill="#767BFF"/>
<path id="Vector_7" d="M16.3784 26.1333C18.3482 26.1333 20.0291 26.5273 21.4212 27.3152C22.8132 28.1032 24.0476 29.0224 25.1244 30.073C26.2013 31.1235 27.2519 32.0428 28.2762 32.8308C29.3005 33.6187 30.4036 34.0126 31.5855 34.0126C33.2139 34.0126 34.6453 33.3955 35.8797 32.161C37.1142 30.9003 38.2436 29.3245 39.2678 27.4334L44.35 29.9548C43.5358 31.6094 42.551 33.2379 41.3953 34.84C40.2659 36.4159 38.8871 37.7291 37.2586 38.7797C35.6302 39.8302 33.6604 40.3555 31.3491 40.3555C29.4843 40.3555 27.8691 39.9615 26.5033 39.1736C25.1638 38.3857 23.9294 37.4664 22.8 36.4159C21.6969 35.3653 20.6201 34.446 19.5695 33.6581C18.5189 32.8701 17.3764 32.4762 16.142 32.4762C14.4611 32.4762 13.0165 33.1065 11.8083 34.3672C10.6002 35.6017 9.48394 37.1644 8.45962 39.0554L3.37744 36.5735C4.21791 34.9188 5.18969 33.2904 6.2928 31.6883C7.42217 30.0861 8.80103 28.7598 10.4295 27.7092C12.0579 26.6586 14.0408 26.1333 16.3784 26.1333Z" fill="#545BFF"/>
</g>
</g>
</g>
</g>
</svg>
