<svg width="48" height="48" viewBox="0 0 48 48" fill="none" xmlns="http://www.w3.org/2000/svg">
<rect width="48" height="48" rx="8" fill="white"/>
<g clip-path="url(#clip0_403_5494)">
<path d="M21.161 15.2785C22.0764 15.1367 23.0252 15.0622 24 15.0622C24.9125 15.0622 25.8021 15.1274 26.6629 15.2521C26.5553 14.7872 26.3225 14.3674 26.0002 14.0269C25.345 13.9603 24.6773 13.926 24 13.926C23.2574 13.926 22.5266 13.9672 21.8108 14.047C21.4923 14.3904 21.2639 14.8122 21.161 15.2785Z" fill="black"/>
<path d="M19.9291 15.5139C19.9672 15.0795 20.0808 14.6656 20.2574 14.2845C13.2263 15.6575 8 20.8129 8 26.963C8 34.1631 15.1634 40 24 40C32.8365 40 40 34.1631 40 26.963C40 20.7586 34.681 15.5665 27.5558 14.249C27.7365 14.6286 27.8545 15.0414 27.8971 15.4752C34.2889 16.8662 38.8148 21.5943 38.8148 26.963C38.8148 33.3695 32.3699 38.8639 24 38.8639C15.6301 38.8639 9.18519 33.3695 9.18519 26.963C9.18519 21.643 13.6292 16.9522 19.9291 15.5139Z" fill="black"/>
<path d="M34.806 8.13868C35.6751 7.6978 36.7486 8.37306 36.6194 9.2501C36.4271 10.556 36.2233 12.3399 36.1654 14.3073C36.1342 15.3689 36.4616 16.3843 36.8848 17.2408C37.3267 18.1351 36.4637 19.375 35.3787 19.1859C32.3666 18.6611 30.0533 18.0422 27.5212 17.1551C27.7736 16.6926 27.9149 16.1741 27.9149 15.6265C27.9149 14.6518 27.4671 13.7694 26.7429 13.1308C29.2702 11.2106 31.5776 9.77638 34.806 8.13868Z" fill="#EBB9CE"/>
<path d="M20.4114 13.9224C17.1657 12.3082 14.3313 11.424 10.4604 10.3909C9.56255 10.1513 8.72435 10.8886 8.98835 11.6826L10.131 15.1192C10.4247 16.0026 10.5268 16.9269 10.4321 17.8437L10.1346 20.7219C10.0532 21.509 10.9546 22.0876 11.7757 21.7713C15.4495 20.3562 18.0036 19.2121 20.6194 17.6269C20.1751 17.0584 19.9149 16.3692 19.9149 15.6264C19.9149 15.0084 20.0951 14.4276 20.4114 13.9224Z" fill="#EBB9CE"/>
<path d="M26.7297 15.6265C26.7297 16.9979 25.4695 18.1097 23.9149 18.1097C22.3603 18.1097 21.1001 16.9979 21.1001 15.6265C21.1001 14.2551 22.3603 13.1433 23.9149 13.1433C25.4695 13.1433 26.7297 14.2551 26.7297 15.6265Z" fill="#EBB9CE"/>
<path fill-rule="evenodd" clip-rule="evenodd" d="M18.3194 24.5925C18.6935 24.5925 18.9967 24.872 18.9967 25.2169V26.35C18.9967 26.6948 18.6935 26.9743 18.3194 26.9743C17.9453 26.9743 17.6421 26.6948 17.6421 26.35V25.2169C17.6421 24.872 17.9453 24.5925 18.3194 24.5925ZM21.3966 24.8605C21.7107 25.0476 21.8006 25.4341 21.5975 25.7237L20.9202 26.689C20.717 26.9785 20.2977 27.0615 19.9836 26.8742C19.6695 26.687 19.5795 26.3005 19.7827 26.011L20.46 25.0456C20.6631 24.7561 21.0825 24.6732 21.3966 24.8605ZM15.2413 24.861C15.5551 24.6732 15.9745 24.7556 16.1782 25.0448L16.9392 26.1256C17.1429 26.4148 17.0536 26.8015 16.7398 26.9891C16.426 27.1768 16.0066 27.0946 15.8029 26.8054L15.0419 25.7245C14.8382 25.4353 14.9275 25.0487 15.2413 24.861Z" fill="black"/>
<path d="M13.9259 27.2439C13.9298 27.8708 14.6105 28.2969 15.2566 28.0994C16.2593 27.7929 17.1615 27.592 18.0749 27.5234C19.2949 27.4317 20.5351 27.5761 22.0622 28.0206C22.7182 28.2115 23.4113 27.774 23.4074 27.1394C23.4051 26.7694 23.1564 26.4371 22.7772 26.3163C19.6566 25.3224 17.6695 25.4624 14.5855 26.3925C14.1877 26.5124 13.9235 26.8585 13.9259 27.2439Z" fill="black"/>
<mask id="mask0_403_5494" style="mask-type:luminance" maskUnits="userSpaceOnUse" x="13" y="24" width="11" height="5">
<path fill-rule="evenodd" clip-rule="evenodd" d="M18.3194 24.5925C18.6935 24.5925 18.9967 24.872 18.9967 25.2169V26.35C18.9967 26.6948 18.6935 26.9743 18.3194 26.9743C17.9453 26.9743 17.6421 26.6948 17.6421 26.35V25.2169C17.6421 24.872 17.9453 24.5925 18.3194 24.5925ZM21.3966 24.8605C21.7107 25.0476 21.8006 25.4341 21.5975 25.7237L20.9202 26.689C20.717 26.9785 20.2977 27.0615 19.9836 26.8742C19.6695 26.687 19.5795 26.3005 19.7827 26.011L20.46 25.0456C20.6631 24.7561 21.0825 24.6732 21.3966 24.8605ZM15.2413 24.861C15.5551 24.6732 15.9745 24.7556 16.1782 25.0448L16.9392 26.1256C17.1429 26.4148 17.0536 26.8015 16.7398 26.9891C16.426 27.1768 16.0066 27.0946 15.8029 26.8054L15.0419 25.7245C14.8382 25.4353 14.9275 25.0487 15.2413 24.861Z" fill="black"/>
<path d="M13.9259 27.2439C13.9298 27.8708 14.6105 28.2969 15.2566 28.0994C16.2593 27.7929 17.1615 27.592 18.0749 27.5234C19.2949 27.4317 20.5351 27.5761 22.0622 28.0206C22.7182 28.2115 23.4113 27.774 23.4074 27.1394C23.4051 26.7694 23.1564 26.4371 22.7772 26.3163C19.6566 25.3224 17.6695 25.4624 14.5855 26.3925C14.1877 26.5124 13.9235 26.8585 13.9259 27.2439Z" fill="black"/>
</mask>
<g mask="url(#mask0_403_5494)">
<path fill-rule="evenodd" clip-rule="evenodd" d="M18.3194 24.5925C18.6935 24.5925 18.9967 24.872 18.9967 25.2169V26.35C18.9967 26.6948 18.6935 26.9743 18.3194 26.9743C17.9453 26.9743 17.6421 26.6948 17.6421 26.35V25.2169C17.6421 24.872 17.9453 24.5925 18.3194 24.5925ZM21.3966 24.8605C21.7107 25.0476 21.8006 25.4341 21.5975 25.7237L20.9202 26.689C20.717 26.9785 20.2977 27.0615 19.9836 26.8742C19.6695 26.687 19.5795 26.3005 19.7827 26.011L20.46 25.0456C20.6631 24.7561 21.0825 24.6732 21.3966 24.8605ZM15.2413 24.861C15.5551 24.6732 15.9745 24.7556 16.1782 25.0448L16.9392 26.1256C17.1429 26.4148 17.0536 26.8015 16.7398 26.9891C16.426 27.1768 16.0066 27.0946 15.8029 26.8054L15.0419 25.7245C14.8382 25.4353 14.9275 25.0487 15.2413 24.861Z" fill="black" stroke="black" stroke-width="2.37037"/>
</g>
<mask id="mask1_403_5494" style="mask-type:luminance" maskUnits="userSpaceOnUse" x="13" y="24" width="11" height="5">
<path fill-rule="evenodd" clip-rule="evenodd" d="M18.3194 24.5925C18.6935 24.5925 18.9967 24.872 18.9967 25.2169V26.35C18.9967 26.6948 18.6935 26.9743 18.3194 26.9743C17.9453 26.9743 17.6421 26.6948 17.6421 26.35V25.2169C17.6421 24.872 17.9453 24.5925 18.3194 24.5925ZM21.3966 24.8605C21.7107 25.0476 21.8006 25.4341 21.5975 25.7237L20.9202 26.689C20.717 26.9785 20.2977 27.0615 19.9836 26.8742C19.6695 26.687 19.5795 26.3005 19.7827 26.011L20.46 25.0456C20.6631 24.7561 21.0825 24.6732 21.3966 24.8605ZM15.2413 24.861C15.5551 24.6732 15.9745 24.7556 16.1782 25.0448L16.9392 26.1256C17.1429 26.4148 17.0536 26.8015 16.7398 26.9891C16.426 27.1768 16.0066 27.0946 15.8029 26.8054L15.0419 25.7245C14.8382 25.4353 14.9275 25.0487 15.2413 24.861Z" fill="black"/>
<path d="M13.9259 27.2439C13.9298 27.8708 14.6105 28.2969 15.2566 28.0994C16.2593 27.7929 17.1615 27.592 18.0749 27.5234C19.2949 27.4317 20.5351 27.5761 22.0622 28.0206C22.7182 28.2115 23.4113 27.774 23.4074 27.1394C23.4051 26.7694 23.1564 26.4371 22.7772 26.3163C19.6566 25.3224 17.6695 25.4624 14.5855 26.3925C14.1877 26.5124 13.9235 26.8585 13.9259 27.2439Z" fill="black"/>
</mask>
<g mask="url(#mask1_403_5494)">
<path d="M13.9259 27.2439C13.9298 27.8708 14.6105 28.2969 15.2566 28.0994C16.2593 27.7929 17.1615 27.592 18.0749 27.5234C19.2949 27.4317 20.5351 27.5761 22.0622 28.0206C22.7182 28.2115 23.4113 27.774 23.4074 27.1394C23.4051 26.7694 23.1564 26.4371 22.7772 26.3163C19.6566 25.3224 17.6695 25.4624 14.5855 26.3925C14.1877 26.5124 13.9235 26.8585 13.9259 27.2439Z" fill="black" stroke="black" stroke-width="2.37037"/>
</g>
<path fill-rule="evenodd" clip-rule="evenodd" d="M31.7052 24.5925C32.0793 24.5906 32.3842 24.8686 32.3863 25.2133L32.3932 26.3465C32.3953 26.6913 32.0937 26.9724 31.7196 26.9743C31.3456 26.9762 31.0406 26.6983 31.0385 26.3535L31.0316 25.2203C31.0296 24.8756 31.3311 24.5944 31.7052 24.5925ZM34.7839 24.8446C35.0992 25.0302 35.1915 25.4164 34.9901 25.7068L34.3186 26.6756C34.1173 26.9662 33.6984 27.0513 33.3832 26.8657C33.0679 26.68 32.9756 26.294 33.1771 26.0035L33.8485 25.0346C34.0499 24.7441 34.4687 24.659 34.7839 24.8446ZM28.6288 24.8769C28.9414 24.6875 29.3613 24.7676 29.5667 25.0558L30.3344 26.1327C30.5398 26.4208 30.4528 26.8079 30.1401 26.9973C29.8275 27.1866 29.4076 27.1064 29.2022 26.8183L28.4345 25.7415C28.2291 25.4532 28.3161 25.0661 28.6288 24.8769Z" fill="black"/>
<path d="M26.9629 27.244C26.9668 27.8708 27.6476 28.2969 28.2936 28.0994C29.2963 27.793 30.1985 27.5921 31.1119 27.5234C32.3319 27.4317 33.5721 27.5762 35.0992 28.0206C35.7552 28.2116 36.4483 27.774 36.4444 27.1394C36.4421 26.7694 36.1934 26.4371 35.8142 26.3163C32.6935 25.3224 30.7064 25.4623 27.6225 26.3925C27.2247 26.5125 26.9605 26.8586 26.9629 27.244Z" fill="black"/>
<path fill-rule="evenodd" clip-rule="evenodd" d="M28.2936 28.0994C27.6476 28.2969 26.9668 27.8708 26.9629 27.244C26.9605 26.8586 27.2247 26.5125 27.6225 26.3925C30.7064 25.4623 32.6935 25.3224 35.8142 26.3163C36.1934 26.4371 36.4421 26.7694 36.4444 27.1394C36.4483 27.774 35.7552 28.2116 35.0992 28.0206C33.5721 27.5762 32.3319 27.4317 31.1119 27.5234C30.1985 27.5921 29.2963 27.793 28.2936 28.0994Z" fill="black"/>
</g>
<defs>
<clipPath id="clip0_403_5494">
<rect width="32" height="32" fill="white" transform="translate(8 8)"/>
</clipPath>
</defs>
</svg>
