<svg width="48" height="48" viewBox="0 0 48 48" fill="none" xmlns="http://www.w3.org/2000/svg">
<rect width="48" height="48" rx="9.8" fill="#03BD12"/>
<path d="M36.6742 9.92286L35.3709 10.479C34.6782 10.772 34.3505 11.0651 34.2391 11.489L34.1958 11.6558L29.5363 13.6352C29.3636 13.7089 29.2839 13.9088 29.3576 14.0801L31.0048 17.9428C31.0769 18.1157 31.2768 18.1953 31.4497 18.1232L36.1075 16.1407L36.2593 16.2264C36.641 16.4398 37.0799 16.4053 37.7714 16.1122L39.0759 15.5576L36.6742 9.92286ZM31.3174 18.8521C30.9115 18.8521 30.5238 18.6147 30.3554 18.2194L28.7097 14.3552C28.4827 13.8261 28.7307 13.2129 29.2597 12.989L33.6111 11.1388C33.871 10.4339 34.5022 10.0822 35.0944 9.82966L37.0467 9L40.0001 15.9288L38.0478 16.7585C37.4541 17.011 36.7629 17.2214 36.076 16.9208L31.7263 18.771C31.5924 18.8266 31.4526 18.8521 31.3174 18.8521Z" fill="white"/>
<path d="M34.5578 13.2971C34.421 13.2971 34.2902 13.2175 34.233 13.0822L33.5747 11.5371C33.4982 11.3568 33.5822 11.1509 33.7595 11.0757C33.9385 10.9991 34.1459 11.0817 34.2226 11.2606L34.8809 12.8072C34.9575 12.986 34.8749 13.1934 34.6961 13.2701C34.6508 13.2881 34.6043 13.2971 34.5578 13.2971Z" fill="white"/>
<path d="M19.9246 23.0712C19.4948 23.0712 19.0875 22.8202 18.9086 22.4023L17.7558 19.697C17.6401 19.4264 17.6386 19.1273 17.7483 18.8538C17.858 18.5817 18.0684 18.3683 18.3375 18.2541L28.8479 13.7842L29.1245 14.432L18.614 18.9019C18.4126 18.986 18.3194 19.2205 18.4036 19.4204L19.5579 22.1258C19.6436 22.3272 19.8765 22.4204 20.0779 22.3347L30.5883 17.8663L30.8635 18.5141L20.3545 22.9825C20.2147 23.0426 20.0674 23.0712 19.9246 23.0712Z" fill="white"/>
<path d="M9.26539 23.1553C9.25037 23.1553 9.23383 23.1583 9.22031 23.1643L8.77692 23.3522C8.73785 23.3687 8.7198 23.3988 8.7138 23.4153C8.70779 23.4318 8.69876 23.4664 8.7153 23.504L9.89366 26.2695C9.91018 26.3086 9.94023 26.3266 9.95828 26.3326C9.97482 26.3401 10.0079 26.3477 10.0469 26.3326L10.4903 26.1432C10.549 26.1192 10.5775 26.0501 10.552 25.9914L10.4137 25.6668L18.7839 22.1077L17.8821 19.99L9.51038 23.5491L9.3736 23.2244C9.35408 23.1808 9.31049 23.1553 9.26539 23.1553ZM10.0004 27.045C9.89666 27.045 9.79295 27.0256 9.69375 26.9849C9.49085 26.9038 9.33153 26.7474 9.24586 26.546L8.06751 23.7805C7.98033 23.5791 7.97733 23.3567 8.05999 23.1523C8.14115 22.9494 8.29897 22.7901 8.50037 22.7044L8.94375 22.5165C9.14516 22.4293 9.3691 22.4278 9.57352 22.509C9.66068 22.5466 9.74034 22.5947 9.81099 22.6563L18.2533 19.0671L19.7097 22.4804L11.2659 26.0696C11.2524 26.3762 11.0675 26.6633 10.7669 26.7925L10.3235 26.9789C10.2198 27.0225 10.1101 27.045 10.0004 27.045Z" fill="white"/>
<path d="M10.206 24.6327C10.0677 24.6327 9.93844 24.5515 9.87983 24.4178L9.37331 23.2244C9.29666 23.047 9.37932 22.8396 9.55969 22.763C9.73703 22.6863 9.94445 22.7705 10.0196 22.9493L10.5291 24.1427C10.6058 24.3216 10.5231 24.529 10.3427 24.6042C10.2977 24.6237 10.2511 24.6327 10.206 24.6327Z" fill="white"/>
<path d="M24.3929 24.5125C23.942 24.5125 23.4895 24.4238 23.0627 24.2434C22.2135 23.8872 21.5552 23.2244 21.208 22.3752L21.8603 22.1077C22.1369 22.784 22.6599 23.3116 23.3348 23.5926C24.0096 23.8767 24.7521 23.8797 25.4299 23.6031C25.6028 23.5325 25.7681 23.4453 25.9214 23.3416L26.3137 23.9248C26.1213 24.0555 25.9139 24.1668 25.696 24.2554C25.2751 24.4253 24.8347 24.5125 24.3929 24.5125Z" fill="white"/>
<path d="M18.7131 38.3897H16.7637L22.9455 23.8091C23.0222 23.6302 23.2281 23.5476 23.4069 23.6227C23.5873 23.6978 23.6699 23.9053 23.5933 24.0841L17.8278 37.6846H18.7131C19.176 37.6846 19.5848 37.4083 19.7591 36.9798L23.6444 27.6657C23.7195 27.4853 23.9254 27.4013 24.1058 27.4763C24.2847 27.5514 24.3688 27.7575 24.2937 27.9363L20.4099 37.2474C20.1319 37.9387 19.4646 38.3897 18.7131 38.3897Z" fill="white"/>
<path d="M38.9118 38.3896H36.6334C36.0051 38.3896 35.4219 38.0783 35.0717 37.5583L25.2211 22.9327C25.1128 22.7719 25.1549 22.5525 25.3173 22.4443C25.4781 22.336 25.6975 22.3781 25.8072 22.5389L35.6563 37.1645C35.8758 37.4907 36.2395 37.6845 36.6334 37.6845H37.6073L26.2205 20.3641C26.1138 20.2018 26.1589 19.9838 26.3213 19.8771C26.4851 19.7689 26.703 19.8155 26.8097 19.9778L38.9118 38.3896Z" fill="white"/>
</svg>
