<svg width="48" height="48" viewBox="0 0 48 48" fill="none" xmlns="http://www.w3.org/2000/svg">
<rect width="48" height="48" rx="8" fill="white"/>
<path d="M22.4945 9.68874C18.9099 11.2161 16.4786 13.6163 15.0759 17.045C14.4213 18.6659 14.3901 19.227 14.2966 28.9834L14.2031 39.1763H18.2553H22.3387V29.7004C22.3387 20.4115 22.3387 20.2245 23.0556 19.227C25.1752 16.0164 29.7262 16.2658 31.347 19.6634C32.1575 21.2843 32.1575 22.1259 31.4094 23.7779C30.2249 26.3651 26.7026 27.3626 24.0843 25.8352C23.4297 25.43 22.8374 25.1806 22.7751 25.2429C22.7127 25.3053 23.0244 27.0508 23.492 29.1393C24.2713 32.7551 24.3336 32.9109 25.2687 33.3162C25.7986 33.5344 27.3884 33.7214 28.8845 33.7214C31.16 33.7214 31.7834 33.5967 33.3108 32.8486C37.8929 30.6043 40.8229 24.4325 39.7943 19.3205C38.9839 15.4242 35.9915 11.6213 32.4068 9.9381C30.9106 9.25235 30.069 9.09649 27.4819 9.03415C24.7388 8.94064 24.1466 9.00298 22.4945 9.68874Z" fill="#58C864"/>
<path d="M8 13.3045V17.3567H9.02863C10.2755 17.3878 12.2081 18.0736 12.9562 18.7282C13.4861 19.2269 13.5484 19.1646 14.0783 17.606C14.7017 15.7046 15.855 13.6473 16.7278 12.8369C17.0707 12.5252 17.3512 12.1823 17.3512 12.0576C17.3512 11.2784 11.3664 9.25226 9.02863 9.25226H8V13.3045Z" fill="#58C864"/>
</svg>
