<svg width="25" height="25" viewBox="0 0 25 25" fill="none" xmlns="http://www.w3.org/2000/svg">
<g clip-path="url(#clip0_132_2322)">
<path d="M12.5 0.799805C18.9617 0.799805 24.2002 6.03827 24.2002 12.5C24.2002 18.9617 18.9617 24.2002 12.5 24.2002C6.03827 24.2002 0.799805 18.9617 0.799805 12.5C0.799805 6.03827 6.03827 0.799805 12.5 0.799805Z" fill="#104124" stroke="#333333" stroke-width="0.6"/>
<path d="M11.8902 18.3986L11.8939 17.2783C11.4833 17.2209 11.1102 17.1123 10.7746 16.9525C10.439 16.7927 10.1503 16.591 9.90831 16.3474C9.66637 16.1039 9.47589 15.8232 9.33688 15.5053C9.19788 15.1874 9.11969 14.8324 9.1023 14.4402L10.5728 14.445C10.5813 14.6971 10.6412 14.9214 10.7526 15.1178C10.864 15.3142 11.0128 15.4828 11.1991 15.6234C11.3854 15.7548 11.5998 15.8535 11.8424 15.9196C12.0849 15.9858 12.3462 16.0193 12.6263 16.0202C12.8784 16.0211 13.1212 15.9939 13.3548 15.9386C13.5884 15.874 13.7894 15.786 13.9579 15.6745C14.1357 15.5537 14.2762 15.4095 14.3794 15.2417C14.492 15.0647 14.5487 14.8642 14.5495 14.6401C14.5503 14.3693 14.4717 14.1497 14.3135 13.9811C14.1554 13.8125 13.9644 13.6765 13.7407 13.5731C13.517 13.4603 13.2745 13.3755 13.0133 13.3186C12.7614 13.2524 12.5375 13.2004 12.3416 13.1624C11.9777 13.0771 11.6139 12.9826 11.2501 12.8787C10.8864 12.7655 10.5554 12.615 10.2573 12.4273C9.96847 12.2396 9.73117 12.0008 9.54539 11.7107C9.35965 11.4113 9.26752 11.0329 9.26902 10.5754C9.27138 9.85654 9.50667 9.28312 9.9749 8.85518C10.4525 8.42727 11.1022 8.16798 11.9241 8.07731L11.9278 6.95695L13.1602 6.96099L13.1564 8.09535C13.959 8.20069 14.5836 8.48283 15.0303 8.94178C15.4863 9.40076 15.7271 9.99908 15.7526 10.7367L14.3102 10.732C14.3016 10.4986 14.2463 10.293 14.1442 10.1153C14.0514 9.93757 13.9211 9.79242 13.7534 9.67984C13.5951 9.55795 13.404 9.46862 13.1801 9.41187C12.9656 9.35515 12.7369 9.32639 12.4942 9.32559C12.2608 9.32483 12.0366 9.3521 11.8217 9.40741C11.6068 9.45339 11.4152 9.52746 11.2468 9.6296C11.0784 9.72242 10.9426 9.84801 10.8394 10.0064C10.7456 10.1555 10.6983 10.3327 10.6976 10.5381C10.6968 10.7902 10.7708 10.9958 10.9197 11.155C11.0779 11.3143 11.2688 11.4456 11.4926 11.549C11.7163 11.6431 11.9495 11.7186 12.1921 11.7754C12.444 11.8323 12.6632 11.8843 12.8498 11.9316C13.2136 12.0168 13.5821 12.1161 13.9552 12.2293C14.3376 12.3426 14.6825 12.4978 14.99 12.6949C15.2975 12.8826 15.5441 13.1309 15.7298 13.4396C15.9249 13.739 16.0216 14.1268 16.0201 14.6029C16.0187 15.0044 15.9429 15.3636 15.7925 15.6805C15.642 15.9975 15.4357 16.2722 15.1735 16.5048C14.9207 16.7373 14.6167 16.9231 14.2614 17.062C13.9155 17.1915 13.5371 17.2743 13.1262 17.3103L13.1226 18.4027L11.8902 18.3986Z" fill="white"/>
<path d="M5.50723 18.9746C3.97189 17.2997 3.03492 15.0673 3.03492 12.6161C3.03492 7.41768 7.24908 3.20352 12.4475 3.20352C17.6459 3.20352 21.8601 7.41768 21.8601 12.6161C21.8601 15.0673 20.9231 17.2997 19.3878 18.9746" stroke="white" stroke-width="1.51076"/>
<path d="M7.40002 20.5547C8.8587 21.4832 10.5903 22.0211 12.4475 22.0211C14.3047 22.0211 16.0363 21.4832 17.495 20.5547" stroke="white" stroke-width="1.51076"/>
</g>
<defs>
<clipPath id="clip0_132_2322">
<rect width="24" height="24" fill="white" transform="translate(0.5 0.5)"/>
</clipPath>
</defs>
</svg>
