<svg width="49" height="48" viewBox="0 0 49 48" fill="none" xmlns="http://www.w3.org/2000/svg">
<g id="Frame 309">
<rect x="0.875" width="48" height="48" rx="9.8" fill="white"/>
<g id="Group">
<path id="Vector" d="M40.875 23.5706H38.1492C37.9243 16.625 32.25 10.951 25.3044 10.7261V8H24.4456V10.7261C17.5 10.951 11.8256 16.625 11.6006 23.5706H8.875V24.4294H11.6006C11.8256 31.375 17.5 37.049 24.4456 37.2739V40H25.3044V37.2739C32.25 37.049 37.9243 31.375 38.1492 24.4294H40.875V23.5706Z" fill="#17171E"/>
<path id="Vector_2" d="M15.0227 18.1595L24.875 23.8477L34.7268 18.1595L24.875 12.4713L15.0227 18.1595Z" fill="#81D6F7"/>
<path id="Vector_3" d="M34.9655 18.5728L25.1133 24.261V35.6372L34.9655 29.9495V18.5728Z" fill="#316BBD"/>
<path id="Vector_4" d="M14.7844 29.9495L24.6363 35.6372V24.261L14.7844 18.5728V29.9495Z" fill="#469FDE"/>
<path id="Vector_5" d="M24.8749 23.1812C24.7328 23.1812 24.6174 23.0726 24.6174 22.9301V22.9174C24.6174 22.7753 24.7328 22.6603 24.8749 22.6603C25.017 22.6603 25.1324 22.7753 25.1324 22.9174C25.1324 23.0599 25.017 23.1812 24.8749 23.1812Z" fill="#316BBD"/>
<path id="Vector_6" d="M24.8749 15.0221C24.7328 15.0221 24.6174 14.9072 24.6174 14.7645V14.7383C24.6174 14.5959 24.7328 14.4807 24.8749 14.4807C25.017 14.4807 25.1324 14.5959 25.1324 14.7383V14.7645C25.1324 14.9072 25.017 15.0221 24.8749 15.0221ZM24.8749 16.3853C24.7328 16.3853 24.6174 16.2704 24.6174 16.1277V16.1011C24.6174 15.9591 24.7328 15.8439 24.8749 15.8439C25.017 15.8439 25.1324 15.9591 25.1324 16.1011V16.1277C25.1324 16.2704 25.017 16.3853 24.8749 16.3853ZM24.8749 17.7487C24.7328 17.7487 24.6174 17.6338 24.6174 17.4913V17.4644C24.6174 17.3221 24.7328 17.2073 24.8749 17.2073C25.017 17.2073 25.1324 17.3221 25.1324 17.4644V17.4913C25.1324 17.6338 25.017 17.7487 24.8749 17.7487ZM24.8749 19.1119C24.7328 19.1119 24.6174 18.9969 24.6174 18.8544V18.8278C24.6174 18.6856 24.7328 18.5703 24.8749 18.5703C25.017 18.5703 25.1324 18.6856 25.1324 18.8278V18.8544C25.1324 18.9969 25.017 19.1119 24.8749 19.1119ZM24.8749 20.4754C24.7328 20.4754 24.6174 20.3604 24.6174 20.2179V20.191C24.6174 20.0487 24.7328 19.9338 24.8749 19.9338C25.017 19.9338 25.1324 20.0487 25.1324 20.191V20.2179C25.1324 20.3604 25.017 20.4754 24.8749 20.4754ZM24.8749 21.8384C24.7328 21.8384 24.6174 21.7234 24.6174 21.5809V21.5544C24.6174 21.4123 24.7328 21.2971 24.8749 21.2971C25.017 21.2971 25.1324 21.4123 25.1324 21.5544V21.5809C25.1324 21.7234 25.017 21.8384 24.8749 21.8384Z" fill="#316BBD"/>
<path id="Vector_7" d="M24.8749 13.6526C24.7328 13.6526 24.6174 13.5438 24.6174 13.4017V13.3889C24.6174 13.2465 24.7328 13.1313 24.8749 13.1313C25.017 13.1313 25.1324 13.2465 25.1324 13.3889C25.1324 13.531 25.017 13.6526 24.8749 13.6526Z" fill="#316BBD"/>
<path id="Vector_8" d="M23.8309 24.9834C23.7415 24.9834 23.6544 24.9367 23.6073 24.8532C23.5369 24.7294 23.58 24.5726 23.7037 24.5022C23.8273 24.4313 23.9904 24.4723 24.06 24.5957C24.1304 24.7192 24.0929 24.8732 23.969 24.9434L23.9581 24.9498C23.9179 24.9726 23.8741 24.9834 23.8309 24.9834Z" fill="#81D6F7"/>
<path id="Vector_9" d="M22.6503 25.665C22.5615 25.665 22.4746 25.6187 22.4272 25.5362C22.3558 25.4127 22.3983 25.2556 22.5215 25.1846L22.5447 25.1712C22.6681 25.1004 22.8256 25.1429 22.8962 25.266C22.9675 25.389 22.925 25.5465 22.8019 25.6171L22.7787 25.6306C22.7381 25.654 22.6937 25.665 22.6503 25.665ZM21.4697 26.3469C21.3806 26.3469 21.2941 26.3006 21.2465 26.2179C21.1754 26.0946 21.2179 25.9371 21.341 25.8662L21.364 25.8531C21.4872 25.7819 21.645 25.8244 21.7156 25.9475C21.7865 26.0706 21.744 26.2281 21.621 26.2991L21.5979 26.3122C21.5575 26.3356 21.5131 26.3469 21.4697 26.3469ZM20.289 27.0285C20.201 27.0285 20.115 26.9831 20.0669 26.9012C19.995 26.7787 20.0358 26.6208 20.1583 26.549L20.1815 26.5356C20.3037 26.4631 20.4619 26.5046 20.5337 26.6272C20.6056 26.7497 20.5647 26.9075 20.4422 26.9793L20.4191 26.9931C20.3783 27.0171 20.3333 27.0285 20.289 27.0285ZM19.1087 27.71C19.0196 27.71 18.9329 27.6637 18.8852 27.5808C18.8143 27.4579 18.8569 27.3004 18.98 27.2297L19.0031 27.2162C19.1262 27.145 19.2837 27.1875 19.3543 27.3106C19.4256 27.434 19.3831 27.5912 19.26 27.6621L19.2369 27.6756C19.1962 27.6987 19.1521 27.71 19.1087 27.71ZM17.9277 28.3915C17.8391 28.3915 17.7521 28.3452 17.7047 28.2629C17.6337 28.1393 17.6758 27.9821 17.7994 27.9112L17.8225 27.8979C17.946 27.8269 18.1027 27.8697 18.1737 27.9925C18.245 28.1156 18.2025 28.2731 18.0794 28.3437L18.0562 28.3571C18.0156 28.3806 17.9716 28.3915 17.9277 28.3915ZM16.7472 29.0735C16.6583 29.0735 16.5716 29.0272 16.524 28.9444C16.4529 28.8212 16.4954 28.6637 16.6183 28.5931L16.6415 28.5796C16.765 28.5081 16.9222 28.551 16.9931 28.674C17.0644 28.7975 17.0219 28.9546 16.8987 29.0256L16.8756 29.0391C16.835 29.0621 16.7906 29.0735 16.7472 29.0735Z" fill="#81D6F7"/>
<path id="Vector_10" d="M15.5787 29.748C15.4897 29.748 15.403 29.7018 15.3553 29.6193C15.2843 29.4962 15.3264 29.3387 15.4497 29.2674C15.5728 29.1966 15.7355 29.2355 15.8068 29.3587C15.878 29.4815 15.8414 29.6358 15.7183 29.7072L15.7072 29.7134C15.6664 29.7368 15.6224 29.748 15.5787 29.748Z" fill="#81D6F7"/>
<path id="Vector_11" d="M25.9186 24.9834C25.8755 24.9834 25.8318 24.9726 25.7918 24.9498C25.668 24.8797 25.6193 24.7192 25.6896 24.5957C25.7595 24.4719 25.9108 24.4257 26.0349 24.4959L26.0462 24.5022C26.1696 24.5726 26.213 24.7294 26.1424 24.8532C26.0953 24.9367 26.008 24.9834 25.9186 24.9834Z" fill="#469FDE"/>
<path id="Vector_12" d="M27.0994 25.665C27.0559 25.665 27.0117 25.654 26.9713 25.6306L26.9481 25.6171C26.825 25.5465 26.7825 25.389 26.8534 25.266C26.924 25.1429 27.0819 25.1004 27.205 25.1712L27.2281 25.1846C27.3513 25.2556 27.3938 25.4127 27.3225 25.5362C27.275 25.6187 27.1885 25.665 27.0994 25.665ZM28.28 26.3469C28.2367 26.3469 28.1921 26.3356 28.1519 26.3122L28.1288 26.2991C28.0057 26.2281 27.9632 26.0706 28.0342 25.9475C28.1048 25.8244 28.2625 25.7819 28.3856 25.8531L28.4088 25.8662C28.5319 25.9371 28.5744 26.0946 28.5032 26.2179C28.4557 26.3006 28.369 26.3469 28.28 26.3469ZM29.4607 27.0285C29.4167 27.0285 29.3717 27.0171 29.3306 26.9931L29.3075 26.9793C29.185 26.9075 29.144 26.7497 29.2159 26.6272C29.2881 26.5046 29.4453 26.4631 29.5681 26.5356L29.5913 26.549C29.7138 26.6208 29.7546 26.7787 29.6828 26.9012C29.635 26.9831 29.549 27.0285 29.4607 27.0285ZM30.6413 27.71C30.5975 27.71 30.5534 27.6987 30.5129 27.6756L30.4898 27.6621C30.3665 27.5912 30.324 27.434 30.3954 27.3106C30.4663 27.1875 30.6235 27.145 30.7465 27.2162L30.7698 27.2297C30.8931 27.3004 30.9357 27.4579 30.8644 27.5808C30.8169 27.6637 30.73 27.71 30.6413 27.71ZM31.8219 28.3915C31.7784 28.3915 31.7342 28.3806 31.6934 28.3571L31.6704 28.3437C31.5473 28.2731 31.5048 28.1156 31.5759 27.9925C31.6469 27.8697 31.804 27.8269 31.9275 27.8979L31.9506 27.9112C32.0738 27.9821 32.1163 28.1393 32.045 28.2629C31.9975 28.3452 31.9106 28.3915 31.8219 28.3915ZM33.0024 29.0735C32.9592 29.0735 32.9147 29.0621 32.8744 29.0391L32.8513 29.0256C32.7281 28.9546 32.6856 28.7975 32.7566 28.674C32.8277 28.551 32.9848 28.5081 33.1083 28.5796L33.1313 28.5931C33.2545 28.6637 33.2968 28.8212 33.2257 28.9444C33.1781 29.0272 33.0917 29.0735 33.0024 29.0735Z" fill="#469FDE"/>
<path id="Vector_13" d="M34.171 29.748C34.1265 29.748 34.0817 29.7366 34.0404 29.7122C33.9179 29.6399 33.8718 29.4787 33.9441 29.3562C34.0167 29.2339 34.1687 29.1902 34.2913 29.2624L34.3022 29.2689C34.4247 29.3412 34.4654 29.4991 34.3931 29.6216C34.3447 29.7028 34.259 29.748 34.171 29.748Z" fill="#469FDE"/>
</g>
</g>
</svg>
