<svg width="16" height="16" viewBox="0 0 16 16" fill="none" xmlns="http://www.w3.org/2000/svg">
<path d="M7.99757 0.34375C4.49603 0.34375 1.64081 3.148 1.64081 6.61338C1.63983 6.90174 1.87131 7.13616 2.15968 7.13812H13.8357C14.124 7.13616 14.3555 6.90174 14.3545 6.61338C14.3545 3.149 11.4991 0.34375 7.99757 0.34375ZM6.73719 1.53548C5.41991 3.36673 5.28947 5.17337 5.32967 6.0964H2.71174C2.93341 3.86596 4.57153 2.05148 6.73719 1.53548ZM9.29536 1.54136C11.4424 2.06907 13.0638 3.87774 13.2845 6.09651H10.698C10.7382 5.1745 10.6077 3.36985 9.29637 1.54136H9.29536ZM8.01437 1.61297C9.65533 3.47462 9.73282 5.30383 9.67005 6.0963H6.35783C6.29506 5.30378 6.37353 3.47535 8.01547 1.61297H8.01437Z" fill="#EBE0FF"/>
<path d="M5.87373 11.4699C5.73347 11.4689 5.60008 11.5248 5.501 11.6229C5.40291 11.7219 5.34798 11.8553 5.34798 11.9946V15.1303C5.34798 15.2696 5.40291 15.404 5.501 15.5021C5.60006 15.6011 5.73346 15.6561 5.87373 15.6561H10.1218H10.1208C10.2611 15.6561 10.3944 15.6011 10.4935 15.5021C10.5916 15.404 10.6465 15.2696 10.6465 15.1303V11.9946C10.6465 11.8553 10.5916 11.722 10.4935 11.6229C10.3945 11.5248 10.2611 11.4689 10.1208 11.4699H5.87373ZM6.39847 12.5125H9.59593V14.6056H6.39847V12.5125Z" fill="#EBE0FF"/>
<path d="M13.7748 6.14731C13.6374 6.16399 13.5129 6.23265 13.4266 6.34054L7.61895 11.6695V11.6705C7.44044 11.8961 7.47869 12.2247 7.70428 12.4042C7.92988 12.5827 8.25845 12.5445 8.43796 12.3189L14.2456 6.98987C14.4241 6.76329 14.3868 6.43472 14.1602 6.25619C14.0514 6.16987 13.9121 6.13064 13.7748 6.14731Z" fill="#EBE0FF"/>
<path d="M2.25163 6.14731C2.11333 6.13064 1.97404 6.16987 1.86517 6.25619C1.63957 6.4347 1.60131 6.76328 1.77983 6.98987L7.58745 12.3189C7.76694 12.5445 8.09551 12.5827 8.3221 12.4042C8.5477 12.2247 8.58498 11.8961 8.40646 11.6705L2.60663 6.34152V6.34054C2.51835 6.23167 2.39092 6.16203 2.25163 6.14731Z" fill="#EBE0FF"/>
<path d="M5.75848 6.16365C5.4809 6.24506 5.322 6.5354 5.40243 6.81295L7.52595 12.1418H7.52693C7.60736 12.4194 7.8977 12.5783 8.17526 12.4969C8.45285 12.4165 8.61175 12.1262 8.53034 11.8486L6.40682 6.52673C6.36954 6.39236 6.28029 6.27858 6.15768 6.20993C6.03606 6.14225 5.89187 6.1254 5.75848 6.16365Z" fill="#EBE0FF"/>
<path d="M10.269 6.1637C10.1347 6.12545 9.99047 6.14212 9.86884 6.2098C9.74721 6.27846 9.65796 6.39224 9.62069 6.52661L7.49619 11.8486C7.41576 12.1262 7.57465 12.4165 7.85126 12.4969C8.12885 12.5783 8.41917 12.4194 8.50057 12.1418L10.6241 6.81284C10.7055 6.53525 10.5466 6.24511 10.269 6.1637Z" fill="#EBE0FF"/>
</svg>
