<svg width="48" height="48" viewBox="0 0 48 48" fill="none" xmlns="http://www.w3.org/2000/svg">
<rect width="48" height="48" rx="8" fill="white"/>
<g clip-path="url(#clip0_1316_4114)">
<path d="M30.1914 21.679C30.113 21.8228 30.0149 22.0025 29.9136 22.1758C28.211 25.1725 26.5019 28.166 24.8025 31.1627C24.5999 31.5222 24.3646 31.8097 23.9071 31.8131C23.4496 31.8131 23.211 31.5386 23.0051 31.1758C22.113 29.5941 21.211 28.0189 20.3156 26.4438C20.2502 26.3294 20.1849 26.2183 20.1162 26.1071C19.6195 25.3098 19.1358 25.2182 18.3875 25.7902C18.162 25.9633 17.9594 26.1627 17.6653 26.4241C17.7568 26.2313 17.7992 26.13 17.8548 26.0352C19.5803 23.0058 21.309 19.9797 23.028 16.9503C23.2372 16.5843 23.4888 16.3098 23.9365 16.3163C24.3678 16.3229 24.6065 16.594 24.8058 16.947C25.7078 18.5516 26.6228 20.1496 27.5313 21.7477C27.5378 21.7575 27.5443 21.7705 27.5509 21.7804C28.1914 22.9111 28.7535 22.9928 29.7208 22.0974C29.8809 21.947 30.0476 21.8065 30.1914 21.679Z" fill="#6671F3"/>
<path d="M31.3876 28.5284C31.6163 28.9271 31.8223 29.2866 32.0249 29.646C32.8124 31.0317 33.6033 32.414 34.3843 33.8029C34.9399 34.7898 34.7569 35.7049 33.8811 36.414C32.5608 37.4859 31.1033 38.3127 29.5151 38.914C29.0379 39.0937 28.5542 39.1787 28.0576 39.0349C26.9007 38.7048 26.404 37.4271 27.015 36.3127C27.9072 34.6885 28.819 33.0742 29.7275 31.4565C30.2046 30.6036 30.6883 29.7506 31.1686 28.8944C31.2308 28.7833 31.2993 28.6754 31.3909 28.5251L31.3876 28.5284Z" fill="#6671F3"/>
<path d="M16.4268 19.5969C16.2798 19.3387 16.1589 19.1263 16.0379 18.9139C15.1621 17.3714 14.2798 15.8322 13.4137 14.2832C12.8941 13.355 13.0706 12.4237 13.8876 11.757C15.2634 10.6328 16.7863 9.75701 18.4627 9.16551C19.1719 8.91388 19.8582 8.95309 20.4497 9.46616C21.1458 10.0707 21.2765 10.9694 20.7863 11.8518C19.8255 13.5871 18.8516 15.3159 17.8843 17.0446C17.4823 17.7603 17.0804 18.4792 16.6784 19.1949C16.6098 19.3159 16.5314 19.4302 16.4301 19.5936L16.4268 19.5969Z" fill="#6671F3"/>
<path d="M31.3941 19.5842C30.0445 17.2051 28.7438 14.911 27.4431 12.6201C27.283 12.3358 27.1131 12.058 26.9628 11.7672C26.5837 11.0384 26.6131 10.326 27.1327 9.67894C27.6523 9.03842 28.368 8.86195 29.1164 9.10378C30.9497 9.69201 32.6098 10.6267 34.0641 11.8946C34.6817 12.4338 34.8974 13.2868 34.5151 14.0025C33.5183 15.8652 32.4562 17.6953 31.3941 19.5842Z" fill="#6671F3"/>
<path d="M16.453 28.6067C16.8158 29.244 17.1785 29.8747 17.538 30.5087C18.6262 32.427 19.7145 34.3453 20.8027 36.2636C21.2439 37.0446 21.1916 37.8551 20.6589 38.489C20.1818 39.0577 19.3419 39.2734 18.5413 38.9891C16.8158 38.378 15.2373 37.4956 13.8321 36.3191C13.1262 35.7276 12.9106 34.7897 13.3583 33.9826C14.3419 32.2015 15.3648 30.44 16.3713 28.6688C16.3812 28.6492 16.4073 28.6394 16.4563 28.6067H16.453Z" fill="#6671F3"/>
<path d="M15.2895 21.6789C14.9889 22.2115 14.7307 22.6756 14.4693 23.1364C13.5836 24.705 12.7013 26.2704 11.8156 27.839C11.4006 28.5711 10.7176 28.9501 9.98231 28.8521C9.16532 28.7442 8.55421 28.1952 8.36793 27.3652C7.8712 25.1691 7.88754 22.9665 8.35486 20.7671C8.51826 20.0024 9.1065 19.4566 9.83852 19.3423C10.6098 19.2181 11.3222 19.5547 11.7274 20.2442C12.1032 20.8848 12.4529 21.5416 12.8483 22.1723C13.2699 22.8456 13.6915 22.9305 14.3516 22.4763C14.6653 22.2606 14.9366 21.9861 15.2928 21.6789H15.2895Z" fill="#6671F3"/>
<path d="M32.6163 26.3126C32.6654 26.2146 32.7111 26.1133 32.7667 26.0152C33.8517 24.0937 34.9333 22.1754 36.0216 20.2571C36.417 19.561 37.1261 19.1819 37.8353 19.2799C38.6458 19.391 39.2504 19.914 39.4399 20.7309C39.9595 22.9793 39.9431 25.2374 39.4333 27.4859C39.2634 28.2342 38.7144 28.6656 37.9726 28.7865C37.2177 28.9107 36.5673 28.6557 36.1523 27.9858C35.783 27.3878 35.4595 26.7571 35.1033 26.1525C34.5445 25.2048 34.0379 25.1263 33.1883 25.8453C33.002 26.0022 32.8353 26.1786 32.6588 26.3453C32.6458 26.3355 32.6294 26.3257 32.6163 26.3159V26.3126Z" fill="#6671F3"/>
</g>
<defs>
<clipPath id="clip0_1316_4114">
<rect width="32" height="30.1176" fill="white" transform="translate(8 9)"/>
</clipPath>
</defs>
</svg>
