<svg width="49" height="49" viewBox="0 0 49 49" fill="none" xmlns="http://www.w3.org/2000/svg">
<g id="Frame 309">
<rect x="1.17857" y="0.928571" width="47.1429" height="47.1429" rx="23.5714" fill="#AB9AFF"/>
<rect x="1.17857" y="0.928571" width="47.1429" height="47.1429" rx="23.5714" stroke="#333333" stroke-width="0.857143"/>
<path id="Vector" d="M38.0421 29.0397L40.648 28.5731L38.2866 25.9297L40.3318 24.787L37.7448 22.8582L39.4086 18.858H35.7685L36.7248 14.9296L32.825 16.9301L33.8942 11.7515L29.9541 15.0012L29.5359 10.0017L26.5567 14.4997L24.6985 8.5L22.8422 14.4997L19.8638 9.99993L19.4465 14.9994L15.5064 11.7497L16.572 16.9283L12.6713 14.9296L13.6286 18.858H9.99024L11.654 22.8582L9.067 24.787L11.1114 25.9297L8.75 28.5731L11.3559 29.0397L9.56489 32.4425L11.8752 33.3048L11.2162 35.4952L13.0895 35.0824L13.2767 37.7823L14.8339 36.9889L14.9754 39.4649L16.2147 39.052C16.2147 39.052 18.4096 41.3302 22.8189 40.1714C23.073 40.1075 23.3091 39.9864 23.5092 39.8172C23.7093 39.648 23.868 39.4353 23.9732 39.1953C24.2024 38.658 24.1263 37.999 22.655 37.7572C20.0626 37.3309 16.4762 37.8306 15.1751 34.5764C15.1659 34.5536 15.164 34.5285 15.1696 34.5045C15.1753 34.4805 15.1882 34.4589 15.2067 34.4426C15.2252 34.4263 15.2482 34.4161 15.2727 34.4134C15.2972 34.4108 15.3219 34.4158 15.3434 34.4278C16.9437 35.3331 20.6921 36.1507 21.0047 34.4394C21.3378 32.6153 19.7367 32.0127 18.8313 31.5139C17.926 31.0151 13.8166 29.6826 14.0047 27.2317C14.1927 24.7808 16.8702 25.4362 17.4765 25.9243C18.0227 26.2825 23.4225 29.6029 23.4225 29.6029C23.4225 29.6029 21.4649 32.1998 24.6985 32.1998C27.9321 32.1998 25.9764 29.6029 25.9764 29.6029C25.9764 29.6029 31.3743 26.2807 31.9224 25.9243C32.5286 25.4362 35.2043 24.7825 35.3942 27.2317C35.584 29.6808 31.4702 31.0106 30.5657 31.5139C29.6613 32.0171 28.0584 32.6153 28.3933 34.4394C28.7067 36.1498 32.4525 35.3349 34.0536 34.4278C34.0752 34.4156 34.1001 34.4105 34.1247 34.4132C34.1494 34.4158 34.1726 34.4261 34.1911 34.4425C34.2096 34.459 34.2226 34.4808 34.2281 34.505C34.2336 34.5292 34.2315 34.5544 34.222 34.5773C32.9226 37.8306 29.3344 37.3309 26.742 37.7572C25.2716 37.999 25.1946 38.6527 25.4248 39.1953C25.5296 39.4352 25.688 39.6479 25.8878 39.8171C26.0875 39.9863 26.3234 40.1075 26.5772 40.1714C30.9884 41.3302 33.1841 39.052 33.1841 39.052L34.4235 39.4649L34.5649 36.9889L36.1213 37.7823L36.3093 35.0833L38.1827 35.4961L37.5236 33.3048L39.8304 32.4479L38.0421 29.0397ZM21.2491 25.575C20.8983 25.575 20.5553 25.471 20.2636 25.2761C19.9719 25.0812 19.7445 24.8041 19.6102 24.48C19.476 24.1558 19.4408 23.7991 19.5093 23.455C19.5777 23.1109 19.7467 22.7948 19.9948 22.5467C20.2429 22.2986 20.5589 22.1297 20.9031 22.0612C21.2472 21.9928 21.6038 22.0279 21.928 22.1622C22.2521 22.2964 22.5292 22.5238 22.7241 22.8155C22.919 23.1073 23.0231 23.4502 23.0231 23.8011C23.0231 24.2716 22.8362 24.7228 22.5035 25.0555C22.1708 25.3881 21.7196 25.575 21.2491 25.575ZM28.1488 25.575C27.798 25.575 27.455 25.471 27.1633 25.2761C26.8715 25.0812 26.6442 24.8041 26.5099 24.48C26.3756 24.1558 26.3405 23.7991 26.409 23.455C26.4774 23.1109 26.6464 22.7948 26.8944 22.5467C27.1425 22.2986 27.4586 22.1297 27.8027 22.0612C28.1469 21.9928 28.5035 22.0279 28.8277 22.1622C29.1518 22.2964 29.4289 22.5238 29.6238 22.8155C29.8187 23.1073 29.9228 23.4502 29.9228 23.8011C29.9229 24.0341 29.8771 24.2648 29.788 24.4801C29.6989 24.6954 29.5682 24.891 29.4035 25.0557C29.2387 25.2205 29.0431 25.3511 28.8278 25.4403C28.6125 25.5294 28.3818 25.5752 28.1488 25.575Z" fill="white"/>
</g>
</svg>
