<svg width="200" height="200" viewBox="0 0 200 200" fill="none" xmlns="http://www.w3.org/2000/svg">
<g id="arlink">
<rect width="200" height="200" fill="black"/>
<g id="Group 2091">
<path id="Vector" d="M111.403 33.9942C111.945 34.8074 111.883 35.2518 111.741 36.1983C111.385 37.6826 110.754 39.0691 110.172 40.4689L109.399 42.3397L109.052 43.1707C108.768 43.8018 108.768 43.8018 108.799 44.3928L109.563 44.815C111.965 46.1481 114.328 47.5485 116.651 49.0144C118.147 49.9472 119.656 50.8568 121.18 51.7429L121.726 52.0584L124.415 53.6093L125.41 54.187L126.294 54.6981C128.556 56.1468 128.556 56.1468 129.072 57.1733C129.201 58.5998 129.307 59.9863 128.707 61.3017C127.805 62.0127 126.872 62.5237 125.854 63.0525C124.757 63.6436 123.695 64.2835 122.633 64.9323L121.997 65.3233C119.917 66.6089 117.842 67.9021 115.771 69.2028C114.162 70.2103 112.549 71.2117 110.932 72.2069L108.781 73.54C107.861 74.1126 106.935 74.6755 106.004 75.2287L104.702 76.0241L104.093 76.3752C103.035 77.0329 102.738 77.2462 102.422 78.5082L102.409 79.3926C104.417 79.1304 105.559 78.4549 107.15 77.224C107.941 76.6389 108.761 76.0945 109.608 75.5931C111.123 74.6776 112.607 73.7222 114.087 72.749C116.396 71.2448 118.734 69.7854 121.1 68.3718C123.494 66.949 125.847 65.4582 128.156 63.9013C129.334 63.1059 130.534 62.3415 131.734 61.5816C132.387 61.1683 132.96 60.7817 133.507 60.2307C135.555 59.6308 137.133 60.4662 138.946 61.4527C139.697 61.8975 140.442 62.3523 141.181 62.817L142.017 63.3325C142.885 63.8687 143.753 64.4079 144.621 64.9501L146.283 65.9855L151.282 69.1184L154.717 71.2692L155.553 71.7891C156.837 72.5955 158.129 73.3895 159.428 74.1711L160.121 74.5843C160.542 74.8361 160.962 75.0865 161.383 75.3353C162.516 76.0152 163.467 76.6996 164.329 77.7172C164.556 78.7749 164.556 78.7749 164.609 79.6637L165.267 79.8903C165.996 80.2191 165.996 80.2191 166.551 81.0546C166.622 81.6234 166.622 81.6234 166.627 82.2811L166.636 83.041L166.631 83.8764L166.636 84.7563C166.642 85.7191 166.643 86.6805 166.64 87.6404L166.645 89.649V93.8707C166.642 95.666 166.645 97.4613 166.654 99.2566L166.658 103.412C166.658 104.075 166.659 104.737 166.662 105.398C166.665 106.328 166.664 107.257 166.658 108.184L166.667 109.002C166.645 111.988 166.085 114.872 164.058 117.161C162.574 118.614 160.859 119.663 159.095 120.734L157.308 121.836L156.384 122.409C154.869 123.355 153.361 124.312 151.86 125.28L150.971 125.849C149.539 126.767 148.109 127.69 146.683 128.617C143.519 130.668 140.331 132.681 137.12 134.656L136.386 135.127C135.733 135.492 135.733 135.492 134.929 135.47C134.27 135.282 133.647 134.983 133.089 134.585C132.169 133.985 132.169 133.985 131.334 134.323C130.841 134.661 130.35 135.003 129.863 135.35C128.145 136.557 126.389 137.708 124.597 138.802C122.202 140.29 119.819 141.795 117.447 143.317C115.003 144.886 112.554 146.455 110.092 147.992C109.132 148.597 108.178 149.212 107.23 149.837L105.662 150.85L104.928 151.343C103.817 152.054 103.204 152.432 101.862 152.427C101.004 152.156 101.004 152.156 100.173 151.601L99.6846 152.001C99.0581 152.436 98.6937 152.605 97.9471 152.712C97.4316 152.547 97.4316 152.547 96.9117 152.263L96.3207 151.947C95.3316 151.37 94.3566 150.768 93.3966 150.143C90.8115 148.501 88.2117 146.882 85.5976 145.286L84.7 144.735L83.9001 144.242C83.3927 143.925 82.8905 143.601 82.3936 143.269H81.5582C81.1893 143.655 81.1893 143.655 80.8738 144.197L80.4739 144.828L80.0339 145.539L79.0563 147.072L78.523 147.921C77.5987 149.374 76.6477 150.805 75.7012 152.245C74.2468 154.448 72.8085 156.661 71.3862 158.884L71.0929 159.377L69.6531 161.644L69.1376 162.453L68.6932 163.159C67.3556 165.146 67.3556 165.146 66.178 165.528C65.187 165.492 65.187 165.492 64.3383 164.972C63.8006 164.101 63.8005 164.101 63.9605 163.048C64.4227 161.213 65.0537 159.426 65.667 157.635L66.058 156.476L67.0934 153.436L67.9156 151.01C69.4798 146.388 71.0692 141.774 72.6838 137.167L72.2528 136.896L71.6751 136.532L71.0751 136.149L69.8353 135.363L69.2976 135.025L68.7466 134.674C68.2088 134.345 68.2089 134.345 67.4134 134.11L66.7868 134.63C65.7958 135.394 65.3337 135.558 64.0761 135.501C63.4761 135.141 63.4761 135.141 62.8229 134.647C61.2961 133.559 59.7293 132.527 58.1257 131.555L56.3438 130.448L55.4594 129.901C51.3619 127.339 47.2823 124.748 43.2211 122.129L40.9858 120.703L39.7371 119.907L39.186 119.561C37.4707 118.463 35.8576 117.312 34.8266 115.517L34.4311 114.85C33.5201 112.935 33.4401 111.206 33.4401 109.113L33.4313 108.202C33.4253 107.21 33.4209 106.217 33.4179 105.225L33.409 103.149C33.4031 101.704 33.4002 100.256 33.4002 98.8078C33.3972 97.3235 33.3913 95.8378 33.3824 94.3506C33.3705 92.5523 33.3646 90.757 33.3646 88.9646C33.3616 88.2803 33.3572 87.5959 33.3513 86.9116C33.3453 85.9547 33.3439 84.9992 33.3468 84.0453L33.3335 83.1876C33.3468 81.8767 33.3646 81.2634 34.1645 80.1836C34.9022 79.6725 34.9022 79.6725 35.7332 79.6725L35.7821 78.7882C36.1198 77.1929 37.1285 76.4863 38.4528 75.6197L39.706 74.8465L40.4037 74.411L41.8968 73.4867C42.6848 72.9979 43.4699 72.5076 44.252 72.0158C48.0448 69.6386 51.8503 67.2819 55.6683 64.9456L58.3746 63.2703L60.0944 62.2082L60.8809 61.7105C62.6896 60.5951 64.3649 59.6708 66.5691 59.9463C67.4623 60.4351 67.4623 60.4351 68.3422 61.0572L69.2354 61.6838L69.9064 62.1726L69.9953 61.6305C70.3463 59.5863 70.8396 57.6088 71.3995 55.6091L71.6706 54.627L72.2394 52.5873L73.1015 49.4721L73.6526 47.4813L73.9103 46.5481C74.139 45.7364 74.3775 44.9276 74.6258 44.1217L74.8035 43.5085C75.1413 42.5264 75.3857 42.2153 76.3233 41.7443C77.3898 41.3221 78.483 41.0199 79.5984 40.7444L80.2339 40.5844L82.3181 40.0645L83.7979 39.6912L87.6996 38.7091L91.5702 37.7359C93.084 37.3537 94.5979 36.973 96.1118 36.5938C98.237 36.0663 100.36 35.5286 102.48 34.9807L104.973 34.3408L106.119 34.0386L107.679 33.6342L108.555 33.4076C109.697 33.2254 110.425 33.3632 111.385 33.9942M103.053 39.1357L102.311 39.3224L99.8846 39.9356L98.196 40.3622L94.6587 41.2599L90.1259 42.4064L86.6419 43.2863L84.9711 43.7084L82.6336 44.3039L81.9359 44.4817C79.9673 44.8416 79.9673 44.8416 78.4964 45.9792L78.3364 46.5614L78.1364 47.2457L77.9276 48.019L77.6876 48.8589C77.4545 49.683 77.2249 50.508 76.9988 51.3341C76.7055 52.3799 76.4107 53.4257 76.1145 54.4714C75.3424 57.2071 74.5766 59.9445 73.817 62.6837L73.146 65.1056C71.244 71.9313 69.3465 78.766 67.4978 85.6095C66.9093 87.7762 66.3168 89.9419 65.7203 92.1064L64.676 95.9148L63.8094 99.0611L63.0007 102.016L62.5518 103.638C62.1297 105.185 61.7297 106.687 61.5653 108.286L62.1119 108.162C77.5143 104.691 77.5143 104.691 82.6069 103.598L83.7357 103.354L85.2644 103.029L86.0954 102.852C87.9396 102.549 87.9395 102.549 88.8861 103.149C89.526 104.136 89.286 104.967 89.0594 106.065C88.8407 106.738 88.5991 107.403 88.3351 108.06L88.1084 108.629L87.624 109.842C87.2745 110.719 86.9264 111.597 86.5797 112.477L86.0243 113.881C84.3845 118.036 82.8069 122.218 81.2293 126.395L80.0295 129.546C79.6977 130.414 79.3674 131.285 79.0385 132.159L78.6786 133.083L78.3675 133.919L78.0964 134.634C77.8742 135.274 77.8742 135.274 78.2208 136.065C78.7408 136.407 78.7408 136.407 79.3496 136.674L79.9673 136.963L80.4428 137.18L80.9538 136.416L82.3447 134.332L82.7491 133.723L83.8068 132.141C85.6487 129.379 87.4811 126.61 89.3038 123.836C92.6864 118.695 96.0875 113.567 99.5069 108.451L102.578 103.852L104.262 101.327L107.666 96.2214C109.156 93.9906 110.643 91.7569 112.127 89.5201L113.816 86.9782L114.598 85.7962C114.957 85.254 115.317 84.7133 115.678 84.1742L116.287 83.2587C116.851 82.4455 116.851 82.4455 117.478 81.6812C118.016 81.1168 118.016 81.1168 117.958 80.5035C114.474 80.9257 111.088 81.7878 107.679 82.601L105.791 83.0499C102.863 83.7423 99.9393 84.4474 97.0183 85.1651L96.2895 85.3429C95.1815 85.6155 94.0721 85.8895 92.9611 86.165L91.7879 86.4583L90.7792 86.7116C88.8816 87.0938 88.8816 87.0938 87.9929 86.5961C87.5041 85.7562 87.7307 85.0185 87.9573 84.1164C88.3662 82.921 88.8505 81.7611 89.326 80.5924L89.7704 79.5037C90.1852 78.4845 90.6014 77.4669 91.0191 76.4507L92.1612 73.6556C94.2057 68.6337 96.2692 63.6195 98.3515 58.6131C100.117 54.3696 101.863 50.1183 103.591 45.8593L104.311 44.0862C104.645 43.2655 104.977 42.4464 105.306 41.6287L105.613 40.8821L105.888 40.2022L106.128 39.6068C106.328 39.1179 106.328 39.1179 106.297 38.5669C105.173 38.5669 104.155 38.8691 103.071 39.1446M106.857 48.2812C104.746 53.005 102.809 57.7955 100.902 62.6081C100.383 63.914 99.8541 65.2161 99.3158 66.5143L98.9203 67.483L98.1826 69.2561L97.8627 70.0427L97.5783 70.7182C97.3916 71.4159 97.4316 71.7714 97.6938 72.438C98.1515 72.8823 98.1515 72.8823 98.7337 73.2201L99.3025 73.5889C100.12 73.9044 100.471 73.8378 101.302 73.5489C101.941 73.1583 102.566 72.7463 103.178 72.3135C104.649 71.2992 106.162 70.3445 107.71 69.4517C109.786 68.2373 111.834 66.9749 113.852 65.6655C115.31 64.7288 116.78 63.8089 118.26 62.9059L118.758 62.6037C119.561 62.1119 120.365 61.6246 121.171 61.1417L122.055 60.604L122.837 60.1329C123.526 59.6663 124.073 59.1553 124.641 58.5509L123.975 58.1643C116.576 53.8538 116.576 53.8538 114.158 52.3206C112.633 51.356 111.094 50.4138 109.541 49.4943L108.923 49.1255C107.964 48.4989 107.964 48.4989 106.866 48.2767M58.4813 68.0119C56.6933 69.1457 54.892 70.2583 53.0775 71.3492C50.9856 72.6104 48.9159 73.9082 46.8695 75.242C45.3169 76.254 43.748 77.2406 42.1634 78.2016C41.328 78.7171 40.5636 79.197 39.9193 79.9392C43.6343 82.6544 47.6072 85.0007 51.5222 87.4093C52.8968 88.2566 54.2655 89.1098 55.6283 89.9689L56.5482 90.5466L58.3257 91.6709L59.1389 92.182L59.8588 92.6353C60.4854 93.0263 60.4854 93.0263 61.3075 93.2707L62.183 90.1067L62.4629 89.1068L64.4271 81.9789L64.7338 80.8679C65.3077 78.779 65.8884 76.6918 66.4757 74.6065L67.2756 71.7403L67.6445 70.4471C67.8119 69.8584 67.9763 69.2688 68.1377 68.6784L68.4133 67.7008C68.5466 66.812 68.4933 66.4965 67.9778 65.7766C67.4801 65.35 67.4801 65.35 66.9024 65.0123L66.3291 64.6523C63.9694 63.568 60.4277 66.772 58.4813 68.0119ZM133.889 64.9812L133.271 65.3767L132.6 65.8122L131.894 66.2654L130.396 67.2253C129.378 67.8803 128.357 68.5321 127.334 69.1806L125.801 70.1583C124.536 70.9653 123.267 71.7652 121.993 72.5579L121.26 73.0112L119.9 73.8555C118.86 74.5043 117.949 75.122 117.122 76.0508L117.402 76.3308C117.86 76.3021 118.316 76.2606 118.771 76.2063C122.922 75.8108 122.922 75.8108 123.993 76.6418C124.339 77.4373 124.339 77.4373 124.179 78.1838C123.681 79.3437 123.019 80.2769 122.277 81.2901L121.38 82.5388L120.917 83.1787C120.173 84.2257 119.44 85.2805 118.718 86.3428L118.318 86.9294L117.398 88.2669C118.064 89.0135 118.78 89.4535 119.655 89.9334L120.522 90.4133L121.442 90.9244L122.384 91.4443C123.314 91.9598 124.244 92.4738 125.175 92.9863L127.352 94.1995L128.579 94.875L129.658 95.4749C130.014 95.6734 130.371 95.8704 130.729 96.0659C132.085 96.8125 132.085 96.8125 132.391 97.4302C133.24 97.2569 133.876 96.9769 134.609 96.5325L135.262 96.1415L135.964 95.7104L136.706 95.2616C139.306 93.6796 141.87 92.0398 144.434 90.3955C145.557 89.6816 146.681 88.9706 147.807 88.2625C152.033 85.5983 156.246 82.9127 160.445 80.2058C160.125 79.2459 159.983 79.1837 159.143 78.6993L158.481 78.3127L157.757 77.8994C157.244 77.6002 156.733 77.2995 156.224 76.9973L155.419 76.5218C154.138 75.7444 152.868 74.9474 151.611 74.1311C148.722 72.2906 145.81 70.4877 142.874 68.7229C141.683 67.9997 140.494 67.2739 139.306 66.5454L137.595 65.5011C137.175 65.2418 136.757 64.9781 136.342 64.7101C135.324 64.1546 134.791 64.3812 133.88 64.9723M95.4674 76.0552L95.1964 76.7129L94.8275 77.5973L94.4454 78.5171C94.163 79.1857 93.8726 79.8508 93.5744 80.5124C93.1922 81.3079 93.1922 81.3079 93.2455 82.1611L95.4141 81.6234L96.0363 81.4679C96.8761 81.259 97.7027 81.0412 98.5204 80.7702C98.6003 79.0682 98.6004 79.0682 98.2404 77.4373C97.3738 76.6285 96.6717 76.0464 95.463 76.0464M116.571 76.0464L116.016 76.6018H117.407L116.571 76.0464ZM37.6974 83.5565C37.6636 87.2478 37.6384 90.9391 37.6218 94.6305C37.6159 96.3459 37.6055 98.0597 37.5907 99.7721C37.5759 101.425 37.567 103.08 37.564 104.736C37.5611 105.367 37.5552 105.998 37.5463 106.629C37.5364 107.515 37.532 108.401 37.5329 109.286L37.5152 110.073C37.5285 111.855 37.9595 112.993 39.075 114.388C39.5816 114.917 39.5816 114.917 40.1193 115.263L40.7014 115.663L41.3013 116.054L41.8924 116.441C42.5079 116.839 43.1271 117.232 43.7499 117.619L45.1541 118.498L45.874 118.947C46.9939 119.646 48.1093 120.35 49.2203 121.058L50.5401 121.894L55.1528 124.804C56.2875 125.521 57.4207 126.24 58.5524 126.96L59.2589 127.408L60.5832 128.253C61.9967 129.145 63.4403 129.988 64.9115 130.781C65.6847 129.684 65.8447 128.942 65.8403 127.604V126.529L65.8269 125.369L65.8225 124.178C65.8198 123.136 65.8139 122.095 65.8047 121.054C65.7958 119.99 65.7899 118.927 65.7869 117.863C65.7781 115.777 65.7647 113.693 65.747 111.611L64.556 111.739L63.8894 111.81C63.0528 111.93 62.2246 112.102 61.4098 112.326C58.859 112.926 58.859 112.926 57.6947 112.726C57.0637 112.153 57.0637 112.153 56.5837 111.335C56.6405 110.618 56.7746 109.908 56.9837 109.22L57.1437 108.598C57.3184 107.934 57.5006 107.272 57.6903 106.611C59.3834 101.594 59.3834 101.594 58.5257 96.6125C57.9863 96.1689 57.4177 95.7621 56.8237 95.3949L56.2815 95.0438C55.644 94.6357 55.0041 94.2313 54.3618 93.8307L53.5886 93.3463C52.4569 92.6382 51.3252 91.9316 50.1935 91.2266C48.5288 90.1931 46.8756 89.1413 45.2341 88.0714C43.5707 86.9889 41.8922 85.9297 40.1992 84.8941L39.5416 84.4897C38.675 83.8542 38.675 83.8542 37.7018 83.5609M160.445 84.703L159.574 85.2629L158.641 85.8717L157.686 86.4894C156.759 87.0878 155.833 87.6863 154.908 88.2847L153.615 89.1246L151.94 90.2089C148.741 92.2854 145.522 94.3312 142.283 96.3459L141.381 96.9058L139.666 97.9634C136.538 99.7321 136.538 99.7321 134.356 102.452C134.236 103.345 134.244 104.229 134.253 105.127L134.249 105.936C134.249 106.816 134.25 107.698 134.253 108.584V110.424C134.253 111.707 134.256 112.991 134.262 114.277C134.268 115.924 134.27 117.573 134.267 119.223L134.271 123.022L134.276 124.844C134.276 125.692 134.279 126.54 134.284 127.391L134.28 128.155C134.227 129.466 134.227 129.466 134.911 130.506C136.155 130.421 136.991 130.061 138.035 129.399L138.857 128.879L139.724 128.319L140.626 127.746C141.503 127.187 142.378 126.626 143.252 126.062L143.937 125.618C144.902 124.995 145.867 124.372 146.829 123.747C148.044 122.962 149.263 122.184 150.487 121.414L151.131 121.005C152.418 120.195 153.708 119.39 155.002 118.592L155.908 118.027L157.664 116.948C160.81 115.081 160.81 115.081 162.414 111.904C162.525 110.962 162.521 110.028 162.507 109.078V108.247C162.507 107.349 162.503 106.45 162.494 105.549L162.49 103.674C162.484 102.033 162.478 100.39 162.472 98.7456L162.454 93.7107C162.445 90.4252 162.432 87.1367 162.414 83.8453C161.588 83.8453 161.143 84.263 160.45 84.7119M114.923 92.182C114.429 92.7775 114.429 92.7775 113.967 93.564L113.403 94.4617L112.821 95.4127C111.543 97.5003 110.192 99.5413 108.768 101.532C107.56 103.209 106.384 104.908 105.239 106.629C105.002 106.979 104.765 107.327 104.528 107.673C104.176 108.188 103.828 108.704 103.484 109.224L102.866 110.135C102.315 111.299 102.342 112.015 102.427 113.286L102.902 113.512C104.8 114.432 106.59 115.486 108.386 116.592L110.972 118.174L111.492 118.494C112.997 119.409 114.511 120.313 116.034 121.205C118.421 122.612 120.799 124.036 123.166 125.475L123.659 125.773C125.575 126.924 127.464 128.118 129.325 129.355L129.921 129.675L130.476 129.395C130.488 125.798 130.497 122.2 130.503 118.601C130.506 116.93 130.51 115.26 130.516 113.592C130.522 111.981 130.526 110.369 130.529 108.758L130.538 106.913C130.544 106.054 130.546 105.194 130.543 104.331L130.552 103.563C130.547 102.341 130.538 101.336 129.925 100.239C129.383 99.781 129.383 99.781 128.712 99.4388L127.956 99.0122L127.148 98.5722L125.517 97.6479L123.784 96.6836C120.251 94.715 120.251 94.715 118.798 93.8795L118.176 93.524L117.06 92.8797C116.282 92.4353 115.838 92.1909 114.927 92.1909M82.2959 107.718L81.5315 107.882L80.7094 108.064L79.8606 108.251L77.1721 108.842L75.3679 109.237L72.0528 109.962L71.3818 110.108C70.8041 110.239 70.2293 110.377 69.6575 110.522C69.5983 113.064 69.5553 115.606 69.5287 118.147C69.5171 119.328 69.4978 120.509 69.4709 121.689C69.4443 122.828 69.428 123.967 69.422 125.106C69.4175 125.541 69.4086 125.975 69.3954 126.409C69.2398 128.795 69.2398 128.795 70.1997 130.861C70.8352 131.292 71.4529 131.603 72.1594 131.901C72.4767 132.114 72.7893 132.333 73.0971 132.559C73.8037 133.083 73.8037 133.083 74.6569 133.012L74.9946 132.097C77.5474 125.157 80.1784 118.246 82.8869 111.366C83.3969 110.07 83.8947 108.77 84.38 107.464C83.6201 107.464 83.0335 107.553 82.2959 107.718ZM97.9871 118.019C97.4998 118.714 97.0228 119.416 96.5562 120.125L96.1118 120.792L94.672 122.965L93.681 124.453L91.6946 127.44C90.5402 129.179 89.3833 130.916 88.224 132.652C87.233 134.132 87.233 134.132 86.2509 135.616C85.922 136.106 85.5872 136.592 85.2466 137.074L84.7755 137.749L84.3534 138.336L84.0912 138.851C84.4511 139.922 84.8333 140.047 85.7932 140.62L86.6953 141.167L87.6685 141.749L89.1527 142.646L90.1526 143.251C91.8768 144.291 93.5699 145.366 95.2675 146.455L95.8674 146.837L96.3829 147.166C96.9028 147.481 97.4405 147.757 97.9871 148.019C98.2493 147.241 98.2982 146.779 98.2982 145.979L98.3026 145.233L98.2982 144.415V143.553L98.2937 140.727L98.2893 138.767L98.2804 133.608L98.2759 128.346C98.273 124.904 98.2685 121.461 98.2626 118.019H97.9871ZM102.542 118.641C102.067 119.245 102.049 119.534 102.049 120.289L102.044 121.005L102.053 121.787L102.049 122.613C102.049 123.517 102.052 124.421 102.058 125.324L102.062 127.204C102.065 128.516 102.07 129.829 102.075 131.141C102.084 132.83 102.089 134.517 102.089 136.203L102.098 140.082L102.102 141.949C102.105 142.817 102.11 143.685 102.115 144.553V145.335L102.12 146.05L102.124 146.672C102.133 147.201 102.133 147.201 102.435 147.73C103.415 147.363 104.352 146.892 105.231 146.326L106.044 145.815L106.91 145.268L107.812 144.699C108.704 144.137 109.596 143.574 110.488 143.011L111.887 142.131C113.182 141.313 114.475 140.496 115.767 139.678L116.514 139.207C119.879 137.061 123.233 134.897 126.574 132.714C126.259 131.772 126.148 131.71 125.326 131.235L124.69 130.861L123.984 130.457L122.451 129.555L121.611 129.062C120.215 128.239 118.838 127.395 117.46 126.551C114.601 124.806 111.73 123.08 108.848 121.374L107.906 120.814C107.091 120.331 106.278 119.851 105.466 119.374L104.844 119.001C103.693 118.205 103.693 118.205 102.524 118.605M76.3055 139.647C75.926 140.693 75.5497 141.74 75.1768 142.789L74.848 143.691L74.5413 144.557L74.2525 145.353C74.0081 146.064 74.0081 146.064 74.3591 146.868L76.0078 144.157L76.4833 143.384L76.9366 142.633L77.3587 141.944C77.6572 141.399 77.8658 140.809 77.9764 140.198C77.1943 139.567 77.1943 139.567 76.31 139.642" fill="white"/>
<path id="Vector_2" d="M106.856 96.8882C107.012 97.4081 107.012 97.4081 107.136 97.9991C106.839 98.5324 106.839 98.5324 106.39 99.0746L105.923 99.6611L105.47 100.226C104.723 101.256 104.23 102.012 104.079 103.283L103.244 103.563C102.953 104.019 102.674 104.483 102.408 104.954L101.853 105.629C101.262 106.385 100.866 107.145 100.462 108.007H99.9106C100.284 106.989 100.737 106.158 101.355 105.265C102.559 103.482 103.745 101.689 104.914 99.8833L105.492 98.999L106.856 96.8882Z" fill="white"/>
<path id="Vector_3" d="M69.3582 110.495H69.6382V130.217L68.8027 129.382L69.0827 128.826C69.1153 128.243 69.1345 127.661 69.1405 127.08L69.1494 126.538L69.1716 124.76L69.1893 123.529L69.2293 120.285L69.2738 116.979L69.3582 110.495Z" fill="white"/>
<path id="Vector_4" d="M43.2515 121.885C44.0914 122.067 44.7846 122.343 45.54 122.738L46.1355 123.045L46.5844 123.276V123.827L47.1309 124.018C48.2552 124.511 49.2462 125.151 50.2816 125.809L50.9082 126.2C51.4148 126.517 51.9199 126.837 52.4236 127.16L52.1436 127.715C49.7077 126.25 47.2886 124.757 44.8868 123.236L44.3846 122.921C44.0041 122.674 43.6278 122.42 43.2559 122.161L43.2515 121.885Z" fill="white"/>
<path id="Vector_5" d="M123.746 76.0912C124.142 76.5045 124.142 76.5045 124.63 77.4422C124.457 79.0108 123.306 80.3395 122.409 81.6105L122.129 80.775C122.488 80.2127 122.859 79.6571 123.24 79.1086C123.528 78.2909 123.52 77.7888 123.52 76.8867C122.475 76.3978 121.671 76.269 120.52 76.2956L119.698 76.3134L119.076 76.3312V76.0557C120.502 75.6735 122.431 75.278 123.751 76.0912" fill="white"/>
<path id="Vector_6" d="M116.575 82.4458L116.855 83.2812L116.299 83.8367L116.073 84.6188C115.677 85.6765 115.157 86.0942 114.353 86.8897C113.83 87.6901 113.325 88.502 112.838 89.3249L112.407 89.947H111.851C112.233 88.8849 112.731 88.0184 113.375 87.0896L113.94 86.2675L114.531 85.4187L115.126 84.5522C115.609 83.8501 116.093 83.1494 116.579 82.4502" fill="white"/>
<path id="Vector_7" d="M71.0249 57.1691H71.3049C71.3539 58.3677 71.1961 59.5658 70.8383 60.7108L70.5761 61.6618C70.1984 62.4439 70.1984 62.4439 69.4607 62.835L68.8074 63.0038V61.8929L68.1675 61.6662C67.5471 61.4215 67.0006 61.0204 66.5811 60.502C67.5898 60.502 67.8964 60.7641 68.7141 61.3374L69.394 61.804L69.9139 62.1684L70.0162 61.5685C70.2783 60.0709 70.5761 58.6222 71.0249 57.1691Z" fill="white"/>
<path id="Vector_8" d="M69.9158 75.2244H70.4713L69.9514 77.4641L69.8047 78.0951C69.5076 79.3693 69.1741 80.6349 68.8049 81.8901H68.5249C68.476 80.4192 68.5827 79.4016 69.0804 78.0018L69.0626 77.2908C69.0848 76.402 69.387 75.9309 69.9158 75.2244Z" fill="white"/>
<path id="Vector_9" d="M126.573 55.2272C127.813 55.6093 128.448 56.0182 129.075 57.1736C129.212 58.2979 129.252 59.3866 129.075 60.5065C128.648 61.0264 128.648 61.0264 128.239 61.3419L127.959 60.2309L128.515 59.951C128.613 58.3823 128.613 58.3823 128.235 56.8936C127.686 56.5129 127.131 56.1425 126.568 55.7827L126.573 55.2272Z" fill="white"/>
<path id="Vector_10" d="M114.076 140.491L114.356 141.047C112.761 142.438 112.761 142.438 112.135 142.438C111.348 142.936 110.579 143.46 109.81 143.984L109.077 144.38L108.242 144.1L110.846 142.451L111.597 141.976L112.312 141.522L112.974 141.1C113.521 140.763 113.521 140.763 114.076 140.483" fill="white"/>
<path id="Vector_11" d="M92.4131 144.66C93.5996 145.087 94.6306 145.691 95.6971 146.362L96.1993 146.673L97.4169 147.437L97.1369 147.993C95.9859 147.54 95.2127 147.215 94.3595 146.326C93.724 145.931 93.0752 145.575 92.4131 145.215V144.66Z" fill="white"/>
<path id="Vector_12" d="M105.745 150.77C103.105 152.601 103.105 152.601 101.857 152.472C101.021 152.161 101.021 152.161 100.621 151.588L100.466 151.05L101.577 151.33V151.885L104.079 151.33V150.774C104.767 150.428 105.025 150.552 105.745 150.77Z" fill="white"/>
<path id="Vector_13" d="M76.0255 139.105C77.2875 139.003 77.2875 139.003 77.9186 139.518L78.2474 139.936C77.1364 139.936 77.1364 139.936 76.301 139.656L76.141 140.292L75.9188 141.131L75.7011 141.962C75.4655 142.713 75.4656 142.713 74.9101 143.544C74.599 142.62 74.6479 142.491 74.9945 141.638L75.23 141.047L75.4611 140.487L75.79 139.652L76.0255 139.105Z" fill="white"/>
<path id="Vector_14" d="M56.5827 109.664C57.0137 110.487 57.347 111.291 57.6937 112.166L60.751 112.446C59.5512 113.046 59.009 113.188 57.6937 113.002C56.8582 112.273 56.8582 112.273 56.3027 111.335C56.3516 110.398 56.3516 110.393 56.5827 109.664Z" fill="white"/>
<path id="Vector_15" d="M87.1351 108.829H87.9705C87.3989 110.799 86.7496 112.745 86.0241 114.664H85.7441C85.8597 113.553 86.0374 112.61 86.4552 111.571C86.7898 110.796 86.9272 109.95 86.8551 109.109L87.1351 108.829Z" fill="white"/>
<path id="Vector_16" d="M89.0445 102.998C89.6622 103.874 89.72 103.998 89.6178 104.994C89.3556 106.051 89.3556 106.051 88.8046 106.607L89.0134 105.567C89.1112 104.718 89.129 104.474 88.7024 103.709C87.6625 103.092 86.6626 103.047 85.4717 102.998V102.718C87.8625 102.172 87.8625 102.172 89.0445 102.998Z" fill="white"/>
<path id="Vector_17" d="M136.571 60.2267V60.5067L136.082 60.6089C134.211 60.9955 134.211 60.9955 132.403 61.6176L132.123 62.4531L131.012 62.1731C131.397 61.8531 131.785 61.5347 132.176 61.2177L132.829 60.68C134.1 59.8356 135.113 59.9201 136.571 60.2267Z" fill="white"/>
<path id="Vector_18" d="M68.8039 161.6H69.3594C68.9347 162.972 68.1704 164.215 67.1375 165.213C66.4309 165.475 65.9554 165.493 65.1911 165.493L64.9111 164.937L65.5333 165.021C66.3465 165.008 66.3465 165.008 66.9109 164.35L67.4797 163.586L68.0574 162.822C68.5195 162.195 68.5195 162.195 68.7995 161.604" fill="white"/>
<path id="Vector_19" d="M144.347 94.6664L144.903 94.9464C144.13 95.4633 143.355 95.9773 142.579 96.4884L141.912 96.9372L141.272 97.3594L140.681 97.7505L140.183 97.9993L139.628 97.7194C140.712 96.7373 141.517 96.1551 142.961 95.773V95.2175C143.619 94.9197 143.619 94.9197 144.352 94.662" fill="white"/>
<path id="Vector_20" d="M73.5279 154.378L74.0834 154.658L71.0261 159.378L70.7461 158.542C70.9949 158.084 70.9949 158.084 71.3727 157.605C71.9557 156.841 72.4886 156.041 72.968 155.209L73.5279 154.378Z" fill="white"/>
<path id="Vector_21" d="M74.6389 44.1177L74.7456 44.6554L74.9189 45.2286L75.4744 45.5086L75.0878 45.8108C74.4701 46.5529 74.3901 47.2417 74.2079 48.1794C74.0932 48.7744 73.9598 49.3658 73.8079 49.9525L73.2524 50.2324C73.4302 48.8059 73.7191 47.4639 74.1057 46.0863L74.2612 45.5086L74.6389 44.1177Z" fill="white"/>
<path id="Vector_22" d="M111.576 89.9424C111.767 90.4268 111.767 90.4268 111.856 91.0533C111.54 91.6177 111.54 91.6177 111.078 92.1821L110.62 92.7465L110.189 93.2753L109.634 94.1107H109.078C109.465 93.0309 109.971 92.1776 110.638 91.2489L111.167 90.5068L111.576 89.9424Z" fill="white"/>
<path id="Vector_23" d="M66.8616 133.27L67.4171 133.55C67.0127 134.612 66.4972 135.017 65.4706 135.497C64.693 135.546 64.693 135.546 64.0797 135.497L63.8042 134.937L66.3061 134.657L66.8616 133.27Z" fill="white"/>
<path id="Vector_24" d="M44.3628 77.1661L39.9189 79.9435V79.1081C40.4801 78.6796 41.0662 78.2848 41.6743 77.926L42.1764 77.6105C43.4251 76.8506 43.4251 76.8506 44.3672 77.1617" fill="white"/>
<path id="Vector_25" d="M161.293 75.5C163.635 76.7576 163.635 76.7576 164.351 77.7219C164.56 78.7618 164.56 78.7618 164.631 79.6683C163.822 78.9618 163.822 78.9618 163.702 78.3041C163.453 77.522 163.067 77.3086 162.391 76.8554C161.773 76.4332 161.773 76.4332 161.298 76.0599L161.293 75.5Z" fill="white"/>
<path id="Vector_26" d="M110.744 33.5633L111.024 34.1187L110.322 34.1676L109.406 34.2387L108.5 34.3054C107.673 34.3631 107.673 34.3631 106.855 34.6742L106.02 34.1187C106.545 33.9703 107.071 33.8252 107.598 33.6832L108.486 33.4388C109.362 33.2833 109.908 33.2833 110.744 33.5633Z" fill="white"/>
<path id="Vector_27" d="M89.0804 80.7795H89.6359C89.1159 82.686 89.1159 82.686 88.8004 83.0015C88.7888 83.5569 88.7888 84.1125 88.8004 84.6679L87.6895 84.9479C87.8628 83.9302 88.1472 83.037 88.5427 82.086L88.8493 81.3439L89.0804 80.7795Z" fill="white"/>
<path id="Vector_28" d="M100.745 61.6129H101.3C101.118 62.7417 100.762 63.706 100.309 64.7547L99.927 65.6568L99.6337 66.3367C99.3582 65.4746 99.3182 65.3058 99.7182 64.4481L100.185 63.5593C100.403 62.915 100.571 62.275 100.745 61.6129Z" fill="white"/>
<path id="Vector_29" d="M72.6929 51.3387H72.9728C73.0484 53.2318 72.5729 54.6094 71.8619 56.3381C71.4086 55.2093 71.7774 54.3383 72.1241 53.2141L72.444 52.152L72.6929 51.3387Z" fill="white"/>
<path id="Vector_30" d="M55.1963 94.3862C56.2628 94.5462 57.0138 94.8439 57.9248 95.4261L58.587 95.8394C59.0847 96.3326 59.0847 96.3326 59.1602 97.0792L59.0847 97.7147L58.547 97.1236C57.6937 96.2615 56.7116 95.6438 55.694 95.0039L55.1963 94.6618V94.3862Z" fill="white"/>
<path id="Vector_31" d="M38.2524 75.7803L38.8079 76.0602L38.3413 76.438C36.8215 77.66 36.8215 77.66 36.0304 79.3931C35.8394 78.9265 35.8394 78.9265 35.7505 78.2822C36.2838 77.0246 37.0925 76.478 38.2524 75.7803Z" fill="white"/>
<path id="Vector_32" d="M112.686 46.8948C113.712 47.2769 114.614 47.748 115.547 48.3213L116.29 48.7745L116.849 49.1167L116.294 49.6722L115.836 49.3789L115.232 48.9967L114.636 48.6146C114.045 48.2457 114.045 48.2457 113.237 48.0057V47.4503H112.681L112.686 46.8948Z" fill="white"/>
<path id="Vector_33" d="M92.6899 149.379C94.0098 149.619 94.0098 149.619 94.6363 149.934V150.49H96.0273L96.3072 151.601C94.9963 151.148 93.8231 150.459 92.6944 149.654L92.6899 149.379Z" fill="white"/>
<path id="Vector_34" d="M79.637 119.108H79.9125C80.1303 120.805 79.3881 121.885 78.5216 123.276C78.1528 122.169 78.4549 121.774 78.9215 120.725L79.317 119.81L79.637 119.108Z" fill="white"/>
<path id="Vector_35" d="M132.684 66.0566L131.191 67.0476L130.351 67.603L129.627 67.9985L129.071 67.7186C129.418 67.1631 129.418 67.1631 129.907 66.6076H131.018V66.0521C131.853 65.7722 131.853 65.7766 132.684 66.0566Z" fill="white"/>
<path id="Vector_36" d="M61.0266 61.6129L61.5821 61.8929L61.3021 63.0038L60.6933 62.955C59.7645 63.0172 59.3024 63.3549 58.5247 63.8393L57.9692 63.5593L59.4624 62.5683L60.3023 62.0129L61.0266 61.6129Z" fill="white"/>
<path id="Vector_37" d="M105.746 49.3922H106.301C105.448 52.3252 105.448 52.3252 104.91 53.5605C104.528 52.5029 104.719 51.5964 104.91 50.5032L105.746 50.2232V49.3922Z" fill="white"/>
<path id="Vector_38" d="M120.186 65.5015L120.742 66.0569L119.111 67.1679L118.196 67.7945C117.413 68.2789 117.413 68.2789 116.858 68.2789C117.142 67.5056 117.302 67.2257 118.058 66.8524L118.804 66.6124L119.586 66.3014L120.195 66.0569L120.186 65.5015Z" fill="white"/>
<path id="Vector_39" d="M104.078 44.1177H104.353C104.464 45.3797 104.104 46.153 103.518 47.2595L103.051 48.1616L102.687 48.8415C102.309 47.7039 102.753 47.0417 103.225 46.0152L103.469 45.4642L104.078 44.1177Z" fill="white"/>
<path id="Vector_40" d="M77.1356 49.9476C77.4822 50.9342 77.3356 51.5341 77.0112 52.5162L76.7712 53.2672L76.5801 53.836H76.3002C76.2792 53.3962 76.2629 52.9563 76.2513 52.5162L76.2246 51.7741C76.3179 50.9342 76.5801 50.5698 77.1356 49.9476Z" fill="white"/>
<path id="Vector_41" d="M117.966 137.994L118.522 138.274L116.624 139.767C116.02 140.22 116.02 140.22 115.464 140.5L114.909 139.945L116.402 138.954L117.242 138.398L117.966 137.994Z" fill="white"/>
<path id="Vector_42" d="M34.6436 114.939H35.199V115.495L36.0345 115.775C36.3181 116.235 36.5966 116.699 36.8699 117.166L37.7054 117.721L37.4254 118.277C36.1011 117.281 35.399 116.419 34.648 114.944" fill="white"/>
<path id="Vector_43" d="M122.408 63.8346H124.075C121.728 65.781 121.728 65.781 120.742 65.781L121.022 64.9456L122.133 64.6656L122.408 63.8346Z" fill="white"/>
<path id="Vector_44" d="M103.243 113.553C104.625 114.046 105.865 114.775 107.132 115.499C106.296 115.779 106.296 115.779 105.763 115.579L105.19 115.273L104.616 114.97C104.15 114.7 103.693 114.412 103.248 114.108L103.243 113.553Z" fill="white"/>
<path id="Vector_45" d="M142.681 91.6086V92.164L141.885 92.3551C140.966 92.6351 140.966 92.6351 140.637 93.4483L140.463 94.106L140.183 93.5505L139.628 93.2706L140.846 92.4351L141.525 91.9685C142.13 91.6041 142.13 91.6041 142.685 91.6041" fill="white"/>
<path id="Vector_46" d="M110.744 75.2244C110.464 75.9665 110.313 76.2731 109.584 76.6286L108.9 76.8242L108.211 77.0286L107.687 77.1708C109.553 75.2244 109.553 75.2244 110.744 75.2244Z" fill="white"/>
<path id="Vector_47" d="M100.466 52.7252C101.021 53.5607 101.021 53.5607 101.021 54.3917L100.466 54.6716C100.265 55.1289 100.08 55.5928 99.9105 56.0626H99.355L100.466 52.7252Z" fill="white"/>
<path id="Vector_48" d="M61.8638 129.106C62.6414 129.401 63.3998 129.744 64.1346 130.133L64.9167 130.497L65.4722 130.217L65.1923 131.328L63.8413 130.688L63.077 130.324C62.4149 129.942 62.4193 129.942 61.8638 129.106Z" fill="white"/>
<path id="Vector_49" d="M52.695 127.44C53.7038 127.92 54.6014 128.404 55.4724 129.106L55.1924 129.662L52.415 127.995L52.695 127.44Z" fill="white"/>
<path id="Vector_50" d="M43.5303 86.8896C44.6546 87.2274 45.6278 87.5962 46.5876 88.2806L46.8676 89.116C45.6011 88.6938 44.5568 88.0184 43.5347 87.1696L43.5303 86.8896Z" fill="white"/>
<path id="Vector_51" d="M145.74 70.5009C146.313 70.3942 146.313 70.3942 147.131 70.5009C147.837 70.9986 148.455 71.5674 149.077 72.1673L148.522 72.4473C147.859 72.1229 147.859 72.1229 147.095 71.6518L146.331 71.1852L145.74 70.7853V70.5009Z" fill="white"/>
<path id="Vector_52" d="M74.9136 58.0048C75.2469 59.0135 75.0869 59.4135 74.7891 60.4178L74.5492 61.2532L74.3581 61.8931H74.0781V58.8358H74.6336L74.9136 58.0048Z" fill="white"/>
<path id="Vector_53" d="M80.7475 143.269H81.303C80.903 144.411 80.3253 145.335 79.6365 146.326L79.0811 145.491C79.3447 145.117 79.6099 144.747 79.8765 144.38L80.3253 143.753L80.7475 143.269Z" fill="white"/>
<path id="Vector_54" d="M119.076 127.44C120.324 127.587 121.138 128.067 122.133 128.831V129.386C120.991 128.986 120.058 128.426 119.076 127.72V127.44Z" fill="white"/>
<path id="Vector_55" d="M161.849 112.997H162.125C162.249 113.606 162.249 113.606 162.125 114.388C161.529 114.939 160.876 115.362 160.179 115.779L159.623 115.499L160.419 114.873C161.098 114.308 161.534 113.842 161.849 112.997Z" fill="white"/>
<path id="Vector_56" d="M137.127 94.6665L137.682 94.942C137.291 95.2761 136.897 95.6065 136.5 95.933L135.838 96.4885C135.185 96.884 135.185 96.884 134.545 96.8084L134.074 96.6129L135.567 95.6219L136.407 95.0665L137.127 94.6665Z" fill="white"/>
<path id="Vector_57" d="M111.021 34.1191L111.856 34.6746C111.648 36.8254 111.648 36.8254 111.021 37.452V34.1191Z" fill="white"/>
<path id="Vector_58" d="M39.3638 119.383C40.5103 119.552 41.4035 119.952 42.4211 120.494L42.1412 121.05C41.0347 120.668 40.2525 120.148 39.3638 119.383Z" fill="white"/>
<path id="Vector_59" d="M67.9736 106.887C67.6936 107.442 67.6936 107.442 67.2226 107.638C65.6272 108.051 65.6272 108.051 64.7829 107.753L64.3696 107.442C66.7115 106.807 66.7115 106.807 67.9825 106.887" fill="white"/>
<path id="Vector_60" d="M119.353 69.3899L119.909 69.6699L118.691 70.6431L118.011 71.1897C117.407 71.6163 117.407 71.6163 116.852 71.6163C117.172 70.6519 117.38 70.5364 118.22 70.0209L118.82 69.6432L119.353 69.3899Z" fill="white"/>
<path id="Vector_61" d="M64.9154 60.5018C64.5155 60.6973 64.1155 60.8884 63.7156 61.075L63.0445 61.395C62.418 61.6127 62.418 61.6127 61.5825 61.3328C61.9272 61.1381 62.2738 60.947 62.6224 60.7595L63.209 60.4396C63.9067 60.1863 64.2311 60.2529 64.9154 60.5018Z" fill="white"/>
<path id="Vector_62" d="M109.078 72.4473L109.634 73.0027L108.558 73.7138L107.95 74.1137L107.412 74.3937L106.856 74.1137L107.967 73.5582V73.0027L109.078 72.4473Z" fill="white"/>
<path id="Vector_63" d="M67.6909 151.881H67.9708C68.0286 153.054 67.9131 153.872 67.4153 154.938H66.8599L67.6909 151.881Z" fill="white"/>
<path id="Vector_64" d="M68.2476 134.105H69.6385L69.914 134.936C70.4739 135.141 70.4739 135.141 71.025 135.216V135.772C69.9184 135.39 69.1363 134.87 68.2476 134.105Z" fill="white"/>
<path id="Vector_65" d="M149.073 91.6091L149.629 91.8891L147.127 93.5555L146.847 93.0001H147.402V92.4446C147.949 92.1482 148.509 91.8696 149.073 91.6091Z" fill="white"/>
<path id="Vector_66" d="M104.354 146.882C104.163 147.419 104.163 147.419 103.799 147.993C103.07 148.201 103.07 148.201 102.408 148.273L102.132 147.157L102.412 147.713L103.07 147.299C103.803 146.882 103.803 146.882 104.354 146.882Z" fill="white"/>
<path id="Vector_67" d="M49.087 120.774L51.3089 122.165L50.4734 122.72L50.1935 121.885C49.6336 121.68 49.6336 121.68 49.0825 121.605L49.087 120.774Z" fill="white"/>
<path id="Vector_68" d="M97.1328 117.716H97.9683C97.8127 118.623 97.555 119.054 96.8573 119.663C96.8457 119.107 96.8457 118.552 96.8573 117.996L97.1328 117.716Z" fill="white"/>
<path id="Vector_69" d="M47.1383 74.3892L47.6937 74.9446L46.7561 75.6423L46.2317 76.0334C45.7518 76.34 45.7518 76.34 45.1963 76.34V75.7845C45.9073 75.1491 46.1606 74.9491 47.1427 74.9491L47.1383 74.3892Z" fill="white"/>
<path id="Vector_70" d="M113.798 70.5005L112.723 71.1982L112.114 71.5893C111.576 71.8959 111.576 71.8959 111.021 71.8959C111.301 71.0604 111.301 71.0604 111.941 70.576C112.776 70.1894 112.959 70.2428 113.798 70.5094" fill="white"/>
<path id="Vector_71" d="M99.079 56.0582C99.3057 56.9781 99.3857 57.6269 99.359 58.5601L98.248 58.8401L99.079 56.0582Z" fill="white"/>
<path id="Vector_72" d="M112.412 50.7833L114.358 51.6188L114.078 52.4542L112.132 51.3432L112.412 50.7833Z" fill="white"/>
<path id="Vector_73" d="M150.738 121.05V121.885L149.903 122.165L149.623 122.72L148.788 122.165L150.738 121.05Z" fill="white"/>
<path id="Vector_74" d="M45.4731 83.5566L47.975 84.9476C47.1396 85.2275 47.1396 85.2275 46.4152 84.8809C45.7576 84.3921 45.7575 84.3921 45.4776 83.5611" fill="white"/>
<path id="Vector_75" d="M120.188 73.2783L120.743 73.5583L119.805 74.256L119.281 74.647C118.801 74.9537 118.801 74.9537 118.246 74.9537C118.526 74.1182 118.526 74.1182 119.339 73.6338L120.188 73.2783Z" fill="white"/>
<path id="Vector_76" d="M125.743 132.159L126.298 132.439L125.743 132.719V132.159Z" fill="white"/>
</g>
</g>
</svg>
