<svg width="48" height="48" viewBox="0 0 48 48" fill="none" xmlns="http://www.w3.org/2000/svg">
<rect width="48" height="48" rx="9.8" fill="black"/>
<path d="M24 40C32.8366 40 40 32.8366 40 24C40 15.1634 32.8366 8 24 8C15.1634 8 8 15.1634 8 24C8 32.8366 15.1634 40 24 40Z" stroke="white" stroke-width="2.56"/>
<path d="M24.856 29.1587C24.8043 29.1818 24.749 29.2066 24.697 29.2319C24.5767 29.2724 24.4782 29.3095 24.3843 29.3449C24.2019 29.4136 24.0367 29.4758 23.7629 29.5442L23.7507 29.5473L23.7388 29.5513C23.4727 29.64 23.0954 29.6433 22.7536 29.6433C22.1412 29.6433 21.6382 29.5421 21.1334 29.3402C20.6046 29.1286 20.1976 28.9236 19.7931 28.6202C19.4279 28.3463 19.2399 27.9809 19.0185 27.5381C18.8281 27.1573 18.7264 26.6653 18.7264 26.1603C18.7264 24.9493 19.2272 23.9695 20.1048 23.3844L20.1148 23.3778L20.1242 23.3705C21.0159 22.6769 22.448 22.3508 24.3863 22.3508H26.2366H26.5632V22.0243V21.2624C26.5632 20.5237 26.3118 20.005 25.9233 19.6165L25.9069 19.6001L25.8883 19.5862C25.3964 19.2173 24.7835 18.9767 23.9509 18.9767C23.2679 18.9767 22.7237 19.089 22.3051 19.5077C22.1149 19.6979 21.978 19.8987 21.8911 20.1248C21.8439 20.2474 21.8134 20.3724 21.7954 20.5005H19.1761C19.2102 20.1134 19.3049 19.7472 19.4539 19.4492C19.6494 19.0581 19.9445 18.6607 20.4503 18.2552C20.8644 17.9451 21.3763 17.6394 21.9862 17.4361C22.5984 17.232 23.3241 17.1263 24.1686 17.1263C24.8964 17.1263 25.5145 17.2298 26.1334 17.4361C26.7759 17.6503 27.2758 17.8534 27.7742 18.2521L27.7741 18.2522L27.7822 18.2583C28.1723 18.5509 28.5691 19.0477 28.7634 19.5333C28.9759 20.0647 29.1754 20.6717 29.1754 21.3712V26.8134L29.1754 26.8466C29.1754 27.4724 29.1753 28.0506 29.294 28.5253L29.2948 28.5286C29.3487 28.7439 29.4042 28.9659 29.4601 29.1616C29.4859 29.2519 29.5131 29.3416 29.5419 29.4257H26.7667C26.7644 29.4174 26.7619 29.4086 26.7593 29.3992C26.74 29.3299 26.7127 29.232 26.6689 29.1298C26.6597 29.0093 26.6318 28.8978 26.611 28.8148C26.6099 28.8105 26.6089 28.8063 26.6078 28.8022C26.5787 28.6857 26.5632 28.6165 26.5632 28.5549V27.7666L26.0057 28.324C25.9155 28.4143 25.8244 28.4831 25.7142 28.5658L25.7088 28.5698C25.6025 28.6495 25.478 28.7429 25.3527 28.8682C25.2802 28.9407 25.1803 29.0037 25.0566 29.0656C24.9956 29.0961 24.9335 29.1241 24.8686 29.1531L24.856 29.1587ZM21.6656 24.5825C21.5477 24.7004 21.4369 24.8454 21.3627 25.0564C21.2897 25.2121 21.2595 25.3849 21.2451 25.5292C21.2298 25.6816 21.2298 25.8311 21.2298 25.9379V25.9427C21.2298 26.1876 21.2604 26.4203 21.3468 26.6449C21.4338 26.871 21.5706 27.0718 21.7608 27.262C22.1831 27.6843 22.8415 27.793 23.4067 27.793H23.4143C23.5723 27.793 23.748 27.793 23.9125 27.7781C24.0698 27.7638 24.2439 27.7339 24.4007 27.6607C24.7383 27.5467 24.9681 27.4318 25.1829 27.3244L25.1854 27.3232C25.1941 27.3188 25.203 27.3144 25.2122 27.3098C25.3996 27.2166 25.6833 27.0755 25.8477 26.7934L26.2498 26.3912L26.3455 26.2956V26.1603V23.9835V23.6569H26.019H24.3863C24.3715 23.6569 24.3566 23.6569 24.3419 23.6569C23.8353 23.6568 23.3544 23.6567 22.9769 23.7825C22.9663 23.7861 22.9556 23.7896 22.9448 23.7932C22.6424 23.8938 22.2516 24.0238 21.9785 24.2968C21.933 24.3423 21.8865 24.3832 21.8334 24.4294L21.8257 24.4362C21.7767 24.4787 21.7198 24.5283 21.6656 24.5825Z" fill="white" stroke="white" stroke-width="0.653061"/>
</svg>
