<svg width="48" height="48" viewBox="0 0 48 48" fill="none" xmlns="http://www.w3.org/2000/svg">
<rect width="48" height="48" rx="8" fill="white"/>
<path d="M24.2022 30.6701C21.0518 30.6701 18.0241 30.1791 15.1601 29.2378C17.4513 33.7392 22.1565 36.8081 27.5162 36.8081C27.7209 36.8081 27.8845 36.8081 28.0481 36.8081C31.7305 36.6854 35.0855 35.0895 37.4585 32.5933C34.6764 37.0537 29.6848 40 23.9977 40C21.8701 40 19.8243 39.5908 17.9423 38.8132C12.6643 36.6445 8.77738 31.734 8.12274 25.8823C8.04091 25.2685 8 24.6547 8 24C8 24 8 24 8 23.9591C8 22.6496 8.73646 21.4629 9.84116 20.8491C11.2323 20.1125 12.6643 19.4578 14.1372 18.9667C17.1649 17.9028 20.3971 17.3299 23.793 17.3299C26.9434 17.3299 29.9712 17.821 32.8352 18.7622C30.544 14.2609 25.8388 11.1918 20.4381 11.1918C20.2335 11.1918 20.0698 11.1918 19.9062 11.1918C16.2238 11.3555 12.8688 12.9105 10.4958 15.4066C13.3189 10.9463 18.3105 8 23.9977 8C26.1252 8 28.1709 8.40921 30.0121 9.1867C35.29 11.3555 39.177 16.266 39.8724 22.1586C39.9543 22.7724 39.9952 23.3862 39.9952 24.0409C39.9952 24.0409 39.9952 24.0409 39.9952 24.0819C39.9952 25.3913 39.2588 26.578 38.154 27.1919C36.7631 27.9284 35.3309 28.5831 33.858 29.0742C30.7895 30.0972 27.5572 30.6701 24.2022 30.6701Z" fill="black"/>
</svg>
