<svg width="48" height="48" viewBox="0 0 48 48" fill="none" xmlns="http://www.w3.org/2000/svg">
<rect width="48" height="48" rx="9.8" fill="#212121"/>
<path d="M30.5566 31.8723C30.643 32.0219 30.7069 32.2254 30.7485 32.483C30.7663 32.6035 30.7805 32.7374 30.7909 32.8849C30.8013 33.0324 30.8065 33.1933 30.8065 33.3678V34.6016C30.8065 34.7761 30.8013 34.9381 30.7909 35.0876C30.7805 35.2372 30.7663 35.3722 30.7485 35.4927C30.7069 35.746 30.643 35.9517 30.5566 36.1095C30.4645 36.2715 30.3485 36.3858 30.2087 36.4522C30.066 36.5229 29.8979 36.5582 29.7045 36.5582H28.616C28.4196 36.5582 28.2531 36.5229 28.1163 36.4522C27.9765 36.3858 27.8605 36.2695 27.7684 36.1033C27.6791 35.9413 27.6151 35.7377 27.5765 35.4927C27.5557 35.3722 27.5408 35.2372 27.5319 35.0876C27.523 34.9381 27.5185 34.7761 27.5185 34.6016V33.3678C27.5185 33.0106 27.5378 32.7156 27.5765 32.483C27.6151 32.2379 27.6791 32.0343 27.7684 31.8723C27.8605 31.7145 27.9765 31.5982 28.1163 31.5234C28.259 31.4528 28.4256 31.4175 28.616 31.4175H29.7045C29.8979 31.4175 30.066 31.4528 30.2087 31.5234C30.3485 31.5982 30.4645 31.7145 30.5566 31.8723ZM30.1418 33.2619C30.1418 33.1705 30.1403 33.0864 30.1373 33.0095C30.1343 32.9327 30.1284 32.8631 30.1194 32.8008C30.1075 32.6845 30.0822 32.591 30.0435 32.5204C30.0139 32.4622 29.9693 32.4165 29.9098 32.3833C29.88 32.3708 29.8466 32.3604 29.8095 32.3521C29.7723 32.3438 29.7298 32.3397 29.6822 32.3397H28.6383C28.5907 32.3397 28.5483 32.3438 28.5111 32.3521C28.474 32.3604 28.4405 32.3708 28.4108 32.3833C28.3512 32.4165 28.3067 32.4622 28.277 32.5204C28.2443 32.5827 28.219 32.6762 28.2011 32.8008C28.1952 32.8631 28.1899 32.9327 28.1855 33.0095C28.181 33.0864 28.1788 33.1705 28.1788 33.2619V34.7138C28.1788 34.8051 28.181 34.8893 28.1855 34.9661C28.1899 35.043 28.1952 35.1126 28.2011 35.1749C28.21 35.233 28.2205 35.285 28.2324 35.3306C28.2443 35.3763 28.2592 35.4158 28.277 35.449C28.3067 35.5155 28.3512 35.5612 28.4108 35.5861C28.4644 35.6152 28.5402 35.6297 28.6383 35.6297H29.6822C29.7803 35.6297 29.8562 35.6152 29.9098 35.5861C29.9693 35.5612 30.0139 35.5155 30.0435 35.449C30.0792 35.3867 30.1045 35.2953 30.1194 35.1749C30.1284 35.1126 30.1343 35.043 30.1373 34.9661C30.1403 34.8893 30.1418 34.8051 30.1418 34.7138V33.2619ZM35.1831 31.4175C35.2039 31.4175 35.2299 31.4289 35.2612 31.4517C35.2923 31.4745 35.3079 31.5337 35.3079 31.6293L35.3081 34.6016C35.3081 34.7761 35.3036 34.9381 35.2947 35.0876C35.2858 35.2372 35.2709 35.3722 35.25 35.4927C35.2084 35.7502 35.1444 35.9538 35.0582 36.1033C34.9719 36.2612 34.8559 36.3775 34.7101 36.4522C34.5763 36.5187 34.4083 36.5519 34.2061 36.5519H33.2022C32.9999 36.5519 32.8319 36.5187 32.698 36.4522C32.6297 36.4149 32.5658 36.3681 32.5062 36.312C32.4468 36.256 32.3963 36.1864 32.3546 36.1033C32.2624 35.9454 32.197 35.7419 32.1583 35.4927C32.1375 35.3722 32.1226 35.2372 32.1137 35.0876C32.1047 34.9381 32.1003 34.7761 32.1003 34.6016V31.6293C32.1003 31.5338 32.1166 31.4746 32.1494 31.4517C32.1821 31.4288 32.2089 31.4174 32.2298 31.4175H32.6357C32.6565 31.4175 32.6825 31.4289 32.7137 31.4517C32.7449 31.4745 32.7605 31.5337 32.7605 31.6293V34.7013C32.7605 34.7968 32.7628 34.8841 32.7672 34.963C32.7717 35.0419 32.7769 35.1105 32.7829 35.1686C32.8007 35.2808 32.826 35.3743 32.8588 35.449C32.8944 35.5113 32.939 35.557 32.9925 35.5861C33.0223 35.5986 33.0565 35.609 33.0952 35.6173C33.1338 35.6256 33.1769 35.6297 33.2245 35.6297H34.1883C34.2358 35.6297 34.2789 35.6256 34.3176 35.6173C34.3563 35.609 34.3905 35.5986 34.4203 35.5861C34.4737 35.557 34.5183 35.5113 34.554 35.449C34.5689 35.4158 34.5831 35.3753 34.5965 35.3275C34.6098 35.2798 34.6195 35.2268 34.6255 35.1686C34.6314 35.1105 34.6366 35.0419 34.6411 34.963C34.6456 34.8841 34.6478 34.7968 34.6478 34.7013V31.6293C34.6478 31.5338 34.6634 31.4746 34.6945 31.4517C34.7258 31.4288 34.7518 31.4174 34.7726 31.4175H35.1831ZM39.6846 31.4175C39.7054 31.4175 39.7321 31.4289 39.7648 31.4517C39.7976 31.4745 39.8139 31.5337 39.8139 31.6293V32.1154C39.8139 32.1652 39.8087 32.2057 39.7983 32.2369C39.7879 32.268 39.776 32.2909 39.7626 32.3054C39.7492 32.3199 39.7351 32.3293 39.7202 32.3334C39.7054 32.3376 39.6936 32.3397 39.6846 32.3397H38.538V36.3401C38.538 36.4356 38.5224 36.4948 38.4912 36.5177C38.4599 36.5405 38.4338 36.5519 38.413 36.5519H38.0026C37.9847 36.5519 37.9595 36.5405 37.9269 36.5177C37.8941 36.4948 37.8778 36.4356 37.8778 36.3401V32.3397H36.7311C36.7222 32.3397 36.7103 32.3376 36.6954 32.3334C36.6805 32.3293 36.6664 32.3199 36.653 32.3054C36.6396 32.2909 36.6278 32.268 36.6175 32.2369C36.6071 32.2057 36.6018 32.1652 36.6018 32.1154V31.6293C36.6018 31.5338 36.6182 31.4746 36.6508 31.4517C36.6835 31.4288 36.7103 31.4174 36.7311 31.4175H39.6846ZM11.0681 31.4175C11.0889 31.4175 11.1157 31.4299 11.1484 31.4549C11.1811 31.4798 11.1974 31.54 11.1974 31.6355L11.1974 36.34C11.1974 36.4356 11.1811 36.4958 11.1484 36.5207C11.1156 36.5457 11.0889 36.5581 11.0681 36.5581H10.6576C10.6398 36.5581 10.6152 36.5457 10.584 36.5207C10.5528 36.4958 10.5372 36.4356 10.5372 36.34V34.4208H8.84631V36.34C8.84631 36.4356 8.8307 36.4958 8.79947 36.5207C8.76824 36.5457 8.74221 36.5581 8.7214 36.5581H8.31541C8.29459 36.5581 8.26783 36.5457 8.23511 36.5207C8.20239 36.4958 8.18604 36.4356 8.18604 36.34V31.6355C8.18604 31.54 8.2024 31.4797 8.23512 31.4549C8.26783 31.4299 8.2946 31.4175 8.31542 31.4175H8.7214C8.74222 31.4175 8.76824 31.4299 8.79948 31.4549C8.83071 31.4798 8.84632 31.54 8.84631 31.6355L8.84631 33.4986H10.5372L10.5371 31.6355C10.5371 31.54 10.5528 31.4797 10.584 31.4549C10.6152 31.4299 10.6398 31.4175 10.6576 31.4175H11.0681ZM16.1361 36.3151C16.154 36.3733 16.1584 36.4231 16.1495 36.4647C16.1436 36.4813 16.1347 36.501 16.1228 36.5239C16.1109 36.5467 16.0871 36.5581 16.0514 36.5581H15.574C15.5116 36.5581 15.4684 36.5124 15.4446 36.421L14.3382 32.564L14.3338 32.5515H14.3159L14.3114 32.5577C14.3114 32.5619 14.3107 32.564 14.3092 32.564C14.3077 32.564 14.307 32.566 14.307 32.5702L13.7359 34.5891H14.2891C14.3516 34.5891 14.3947 34.6306 14.4185 34.7137L14.5791 35.2683C14.594 35.3389 14.5881 35.3991 14.5613 35.449C14.5375 35.5071 14.4988 35.5362 14.4453 35.5362H13.4683L13.214 36.4273C13.1902 36.5145 13.1485 36.5581 13.089 36.5581H12.5983C12.5626 36.5581 12.5381 36.5478 12.5247 36.527C12.5113 36.5062 12.5031 36.4854 12.5002 36.4647C12.4912 36.4273 12.4942 36.3774 12.5091 36.3151L13.7538 31.9969C13.8133 31.7768 13.8787 31.6251 13.9501 31.5421C13.959 31.5338 13.9687 31.5234 13.9791 31.5109C13.9895 31.4984 14.0021 31.488 14.017 31.4797C14.1062 31.3925 14.2089 31.3489 14.3248 31.3489C14.4498 31.3489 14.5605 31.4008 14.6572 31.5047C14.7539 31.6085 14.82 31.7415 14.8557 31.9035L14.8825 31.9969L16.1361 36.3151ZM20.6109 31.4175C20.6287 31.4175 20.654 31.4289 20.6867 31.4517C20.7194 31.4745 20.7358 31.5358 20.7358 31.6355L20.7358 35.7543C20.7358 36.0576 20.7046 36.2653 20.6421 36.3774C20.5796 36.4979 20.483 36.5581 20.3521 36.5581H20.0264C19.964 36.5581 19.9134 36.5519 19.8747 36.5394C19.8242 36.527 19.784 36.5041 19.7543 36.4709C19.7186 36.4418 19.6859 36.3961 19.6561 36.3338C19.6413 36.3047 19.6249 36.2715 19.6071 36.2341C19.5892 36.1967 19.5714 36.1531 19.5535 36.1033L18.1393 32.6013C18.1363 32.6013 18.1348 32.5972 18.1348 32.5889C18.1348 32.5847 18.1333 32.5827 18.1304 32.5827H18.1259H18.1036V36.34C18.1036 36.4356 18.088 36.4958 18.0568 36.5207C18.0255 36.5457 17.9995 36.5581 17.9787 36.5581H17.5816C17.5608 36.5581 17.534 36.5457 17.5013 36.5207C17.4686 36.4958 17.4522 36.4356 17.4522 36.34V32.2212C17.4522 31.9221 17.4835 31.7124 17.5459 31.5919C17.6114 31.4756 17.708 31.4174 17.8359 31.4175H18.1705C18.2003 31.4175 18.2278 31.4185 18.253 31.4205C18.2783 31.4226 18.3029 31.4257 18.3266 31.4299C18.3742 31.4423 18.4159 31.4673 18.4516 31.5047C18.4813 31.5338 18.5126 31.5815 18.5453 31.6479C18.5601 31.677 18.5758 31.7103 18.5921 31.7477C18.6085 31.7851 18.6256 31.8266 18.6434 31.8723L20.0532 35.3742C20.0562 35.3867 20.0606 35.3929 20.0666 35.3929H20.0889V31.6355C20.0889 31.5358 20.1045 31.4745 20.1357 31.4517C20.167 31.4288 20.193 31.4174 20.2138 31.4175H20.6109ZM25.0499 31.4175C25.0677 31.4175 25.093 31.4299 25.1257 31.4549C25.1585 31.4798 25.1748 31.54 25.1748 31.6355L25.1748 32.1215C25.1748 32.2212 25.1585 32.2825 25.1257 32.3054C25.093 32.3282 25.0677 32.3396 25.0499 32.3396H23.1538C23.1062 32.3396 23.0631 32.3438 23.0244 32.3521C22.9858 32.3604 22.9516 32.3708 22.9218 32.3833C22.8683 32.4123 22.8237 32.458 22.788 32.5203C22.7523 32.5951 22.7285 32.6865 22.7166 32.7945C22.6988 32.9191 22.6898 33.0749 22.6898 33.2618V34.7075C22.6898 34.8944 22.6988 35.0502 22.7166 35.1748C22.7285 35.287 22.7523 35.3784 22.788 35.449C22.8237 35.5155 22.8683 35.5612 22.9218 35.5861C22.9754 35.6152 23.0527 35.6297 23.1538 35.6297H24.403C24.4536 35.6297 24.4892 35.6069 24.5101 35.5612C24.519 35.5404 24.5279 35.5071 24.5368 35.4615C24.5458 35.4158 24.5502 35.3451 24.5502 35.2496L24.5458 34.3772H23.4349C23.426 34.3772 23.4141 34.3752 23.3992 34.371C23.3843 34.3668 23.3702 34.3575 23.3568 34.343C23.3434 34.3284 23.3323 34.3056 23.3234 34.2744C23.3144 34.2433 23.31 34.2028 23.31 34.1529V33.6793C23.31 33.5796 23.3263 33.5173 23.359 33.4924C23.3918 33.4675 23.417 33.455 23.4349 33.455H25.0142C25.0439 33.455 25.0774 33.4716 25.1146 33.5049C25.1518 33.5381 25.1704 33.6129 25.1704 33.7292V35.3991C25.1704 35.8104 25.1272 36.1053 25.041 36.284C24.9517 36.4667 24.8239 36.5581 24.6573 36.5581H23.1315C22.9382 36.5581 22.7702 36.5228 22.6274 36.4522C22.4906 36.3857 22.3761 36.2715 22.2839 36.1095C22.1917 35.9433 22.1262 35.7398 22.0876 35.4988C22.0489 35.2579 22.0296 34.9588 22.0296 34.6015V33.3678C22.0296 33.1933 22.034 33.0323 22.0429 32.8849C22.0519 32.7374 22.0667 32.6034 22.0876 32.483C22.1262 32.242 22.1917 32.0385 22.2839 31.8723C22.3671 31.7186 22.4816 31.6023 22.6274 31.5233C22.7701 31.4527 22.9382 31.4174 23.1315 31.4175H25.0499Z" fill="white"/>
<path fill-rule="evenodd" clip-rule="evenodd" d="M12.3173 36.4996C12.3249 36.5441 12.3419 36.5868 12.3683 36.6278C12.4183 36.7054 12.495 36.7442 12.5983 36.7442H13.0891C13.2433 36.7442 13.3445 36.6556 13.3929 36.4784L13.6087 35.7223H14.4453C14.5792 35.7223 14.674 35.6576 14.7299 35.5281C14.7742 35.4405 14.7846 35.3411 14.7612 35.23L14.7598 35.2232L14.5974 34.6625C14.5479 34.4895 14.4451 34.403 14.2892 34.403H13.9819L14.3247 33.1914L15.2652 36.4703C15.3134 36.6529 15.4164 36.7442 15.574 36.7442H16.0514C16.1623 36.7442 16.2411 36.6994 16.2878 36.6098C16.3036 36.5795 16.3159 36.552 16.3247 36.5274L16.3288 36.5158L16.3314 36.5038C16.3471 36.431 16.3414 36.3505 16.3145 36.262L15.0614 31.9457L15.0361 31.8576C14.9928 31.6652 14.9119 31.5053 14.7934 31.378C14.66 31.2345 14.5038 31.1628 14.3249 31.1628C14.1651 31.1628 14.0243 31.2192 13.9024 31.332C13.8775 31.3488 13.8554 31.3688 13.8361 31.3918C13.8308 31.3983 13.8265 31.403 13.8233 31.4059L13.8158 31.413L13.809 31.4208C13.7193 31.5252 13.6413 31.7001 13.575 31.9454L12.3291 36.2678L12.3281 36.2719C12.3073 36.3593 12.3037 36.4352 12.3173 36.4996ZM21.8435 33.3678V34.6016C21.8435 34.9687 21.8637 35.2776 21.9039 35.5283C21.946 35.7908 22.0188 36.0152 22.1222 36.2015C22.2334 36.3969 22.3743 36.5361 22.5449 36.619C22.7137 36.7025 22.9092 36.7442 23.1315 36.7442H24.6573C24.9013 36.7442 25.0851 36.6178 25.2085 36.3649C25.3071 36.1607 25.3564 35.8388 25.3564 35.3992V33.7292C25.3564 33.5574 25.3171 33.4364 25.2386 33.3662C25.1661 33.3014 25.0913 33.269 25.0142 33.269H23.4349C23.3752 33.269 23.3123 33.2941 23.2463 33.3444C23.1647 33.4066 23.1239 33.5182 23.1239 33.6793V34.1529C23.1239 34.2202 23.1308 34.2778 23.1445 34.3257C23.1615 34.3851 23.1867 34.4328 23.2199 34.469C23.2572 34.5095 23.3003 34.5365 23.3492 34.5502C23.3804 34.5589 23.409 34.5633 23.4349 34.5633H24.3607L24.3642 35.2496C24.3642 35.3331 24.3609 35.3919 24.3542 35.4258C24.353 35.4323 24.3518 35.4382 24.3507 35.4437H23.1538C23.0842 35.4437 23.0365 35.4366 23.0106 35.4226L23.0056 35.4198L23.0004 35.4174C22.9846 35.4101 22.9688 35.392 22.953 35.363C22.9281 35.3129 22.911 35.2436 22.9016 35.1552L22.9013 35.1518L22.9008 35.1485C22.8842 35.0326 22.8759 34.8856 22.8759 34.7075V33.2619C22.8759 33.0838 22.8842 32.9368 22.9008 32.8209L22.9012 32.8179L22.9015 32.8149C22.9108 32.7311 22.9279 32.6618 22.9529 32.607C22.9682 32.5816 22.9851 32.5629 23.0035 32.551C23.0207 32.5446 23.0407 32.5389 23.0635 32.534C23.0893 32.5285 23.1194 32.5257 23.1538 32.5257H25.0499C25.1068 32.5257 25.1676 32.5031 25.2323 32.4579C25.318 32.398 25.3609 32.2859 25.3609 32.1216L25.3609 31.6355C25.3609 31.4786 25.3201 31.369 25.2385 31.3069C25.1725 31.2566 25.1096 31.2314 25.0499 31.2314H23.1316C22.9092 31.2314 22.7137 31.2731 22.5449 31.3566L22.5418 31.3581L22.5388 31.3598C22.3606 31.4563 22.2214 31.5971 22.1212 31.7821C22.0184 31.9672 21.9461 32.1903 21.9042 32.4513C21.8823 32.5785 21.8666 32.7193 21.8572 32.8736C21.8481 33.0249 21.8435 33.1896 21.8435 33.3678ZM19.9028 31.6355V34.5026L18.8167 31.8047C18.798 31.7566 18.7799 31.7128 18.7626 31.6732C18.7447 31.6324 18.7279 31.5965 18.7122 31.5657C18.6708 31.4818 18.6281 31.4179 18.5841 31.3741C18.5246 31.3124 18.4544 31.271 18.3738 31.2499L18.3664 31.248L18.3588 31.2467C18.3294 31.2415 18.2991 31.2376 18.2679 31.2351C18.2377 31.2326 18.2052 31.2314 18.1705 31.2314H17.8359C17.6355 31.2314 17.4848 31.3211 17.3838 31.5007L17.3822 31.5035L17.3808 31.5063C17.3044 31.6536 17.2662 31.8919 17.2662 32.2213V36.3401C17.2662 36.497 17.307 36.6066 17.3886 36.6688C17.4546 36.7191 17.5189 36.7442 17.5816 36.7442H17.9787C18.0429 36.7442 18.1076 36.7182 18.1728 36.6662C18.2507 36.604 18.2896 36.4953 18.2896 36.3401V33.4705L19.3797 36.1696C19.3992 36.2239 19.419 36.2721 19.4392 36.3143C19.4573 36.3523 19.4741 36.3863 19.4894 36.4164C19.5281 36.4969 19.5735 36.56 19.6256 36.6057C19.6781 36.6602 19.7442 36.6978 19.8241 36.7185C19.8801 36.7356 19.9475 36.7442 20.0264 36.7442H20.3521C20.5575 36.7442 20.7088 36.6513 20.806 36.4654C20.8832 36.3248 20.9218 36.0878 20.9218 35.7543L20.9218 31.6355C20.9218 31.4712 20.879 31.359 20.7931 31.2991C20.7284 31.254 20.6677 31.2314 20.6109 31.2314H20.2141C20.1526 31.2313 20.0899 31.2547 20.0259 31.3015C19.9439 31.3615 19.9028 31.4729 19.9028 31.6355ZM31.9142 31.6293V34.6016C31.9142 34.7798 31.9188 34.9455 31.928 35.0987C31.9373 35.2552 31.9528 35.396 31.9745 35.5212C32.0163 35.7911 32.0884 36.0147 32.1909 36.192C32.242 36.2924 32.3046 36.3775 32.3786 36.4474C32.4497 36.5145 32.5264 36.5705 32.6089 36.6155L32.6121 36.6173L32.6154 36.6189C32.7753 36.6983 32.9709 36.738 33.2022 36.738H34.2061C34.4375 36.738 34.6338 36.6979 34.7952 36.6178C34.9743 36.5259 35.116 36.3847 35.2205 36.1943L35.221 36.1934L35.2214 36.1925C35.318 36.0237 35.3887 35.801 35.4333 35.5243C35.4554 35.3971 35.4711 35.2552 35.4804 35.0987C35.4895 34.9455 35.4941 34.7798 35.4941 34.6016L35.494 31.6293C35.4941 31.4708 35.4531 31.3615 35.371 31.3015C35.3071 31.2548 35.2445 31.2314 35.1831 31.2314H34.7728C34.7114 31.2313 34.6487 31.2547 34.5847 31.3016C34.5028 31.3616 34.4618 31.4709 34.4618 31.6293V34.7013C34.4618 34.7934 34.4596 34.8771 34.4553 34.9525C34.4509 35.0286 34.446 35.0943 34.4404 35.1497C34.4355 35.1973 34.4278 35.2398 34.4173 35.2773C34.4076 35.3119 34.3978 35.3409 34.3879 35.3643C34.3729 35.3887 34.3564 35.4068 34.3384 35.4184C34.3214 35.4248 34.3015 35.4305 34.2785 35.4354C34.2527 35.4409 34.2226 35.4437 34.1883 35.4437H33.2246C33.1902 35.4437 33.1601 35.4409 33.1343 35.4354C33.1114 35.4305 33.0913 35.4248 33.0742 35.4184C33.0564 35.4069 33.04 35.389 33.0251 35.3648C33.0011 35.307 32.9818 35.2336 32.9674 35.1445C32.962 35.0903 32.9571 35.0263 32.9529 34.9525C32.9487 34.8771 32.9466 34.7934 32.9466 34.7013V31.6293C32.9466 31.4708 32.9056 31.3615 32.8234 31.3015C32.7596 31.2548 32.697 31.2314 32.6357 31.2314H32.23C32.17 31.2313 32.1077 31.2539 32.0428 31.2992C31.9571 31.3591 31.9142 31.4691 31.9142 31.6293ZM36.4158 32.1154C36.4158 32.1854 36.4242 32.2455 36.4409 32.2958C36.4598 32.3522 36.4849 32.3974 36.5163 32.4314C36.5535 32.4719 36.5965 32.499 36.6454 32.5126C36.6766 32.5214 36.7052 32.5257 36.7312 32.5257H37.6917V36.3401C37.6917 36.5003 37.7346 36.6104 37.8203 36.6702C37.885 36.7154 37.9458 36.738 38.0026 36.738H38.413C38.4744 36.738 38.5371 36.7146 38.6009 36.6678C38.683 36.6078 38.7241 36.4986 38.7241 36.3401V32.5257H39.6847C39.7106 32.5257 39.7391 32.5214 39.7702 32.5126C39.8191 32.499 39.8622 32.4719 39.8995 32.4314C39.9309 32.3974 39.956 32.3522 39.9749 32.2958C39.9916 32.2455 40 32.1854 40 32.1154V31.6293C40 31.4691 39.9571 31.359 39.8713 31.2991C39.8066 31.254 39.7444 31.2314 39.6847 31.2314H36.7313C36.6714 31.2313 36.6091 31.2539 36.5444 31.2992C36.4587 31.3591 36.4158 31.4691 36.4158 31.6293V32.1154ZM10.3511 31.6355L10.3511 33.3126H9.03237L9.03237 31.6355C9.03238 31.4803 8.99344 31.3716 8.91555 31.3095C8.85037 31.2574 8.78566 31.2314 8.72141 31.2314H8.31537C8.25271 31.2314 8.18842 31.2566 8.12249 31.3068C8.04083 31.3689 8 31.4785 8 31.6355V36.3401C8 36.497 8.04079 36.6066 8.12237 36.6688C8.18839 36.7191 8.25274 36.7442 8.31543 36.7442H8.72141C8.78565 36.7442 8.85036 36.7182 8.91554 36.6662C8.99343 36.604 9.03237 36.4953 9.03237 36.3401V34.6069H10.3511V36.3401C10.3511 36.4953 10.3901 36.604 10.468 36.6662C10.5331 36.7182 10.5963 36.7442 10.6576 36.7442H11.0681C11.1308 36.7442 11.1951 36.7191 11.2611 36.6688C11.3427 36.6066 11.3835 36.497 11.3835 36.3401L11.3835 31.6355C11.3835 31.4786 11.3427 31.369 11.2612 31.3069C11.1951 31.2566 11.1308 31.2314 11.0681 31.2314H10.6576C10.5963 31.2315 10.5332 31.2574 10.4681 31.3094C10.3901 31.3715 10.3511 31.4802 10.3511 31.6355ZM27.3325 33.3678V34.6016C27.3325 34.7798 27.3371 34.9455 27.3462 35.0987C27.3555 35.2552 27.371 35.3962 27.3927 35.5217C27.4348 35.7882 27.5057 36.0122 27.6056 36.1936C27.7166 36.3935 27.8593 36.5353 28.0337 36.619C28.1967 36.7025 28.3908 36.7442 28.616 36.7442H29.7046C29.9269 36.7442 30.1216 36.7029 30.2886 36.6203C30.4636 36.5371 30.6074 36.3966 30.72 36.1987C30.8164 36.0224 30.8872 35.7961 30.9325 35.5199C30.9511 35.3947 30.9658 35.2549 30.9766 35.1006C30.9872 34.9467 30.9926 34.7804 30.9926 34.6016V33.3678C30.9926 33.189 30.9872 33.0237 30.9766 32.8718C30.9658 32.7196 30.9509 32.5801 30.9321 32.4533C30.8868 32.1733 30.8154 31.9486 30.7178 31.7794L30.7174 31.7785C30.6075 31.5904 30.4672 31.4507 30.2964 31.3594L30.294 31.358L30.2912 31.3567C30.1225 31.2732 29.9269 31.2314 29.7046 31.2314H28.616C28.3966 31.2315 28.2025 31.2732 28.0339 31.3567L28.0313 31.358L28.0287 31.3594C27.8579 31.4507 27.7175 31.5904 27.6076 31.7785L27.6065 31.7805L27.6054 31.7826C27.5057 31.9636 27.4349 32.1869 27.3929 32.4525C27.3526 32.6952 27.3325 33.0003 27.3325 33.3678ZM14.4453 35.5362H13.4683L13.214 36.4273C13.1902 36.5145 13.1485 36.5582 13.0891 36.5582H12.5983C12.5626 36.5582 12.5381 36.5478 12.5247 36.527C12.5113 36.5062 12.5031 36.4855 12.5002 36.4647C12.4912 36.4273 12.4942 36.3775 12.5091 36.3151L13.7538 31.9969C13.8133 31.7768 13.8787 31.6251 13.9501 31.5421C13.959 31.5338 13.9687 31.5234 13.9791 31.5109C13.9895 31.4984 14.0021 31.488 14.017 31.4797C14.1063 31.3925 14.2089 31.3489 14.3249 31.3489C14.4498 31.3489 14.5606 31.4008 14.6572 31.5047C14.7539 31.6085 14.8201 31.7415 14.8557 31.9035L14.8825 31.9969L16.1361 36.3151C16.154 36.3733 16.1585 36.4231 16.1495 36.4647C16.1436 36.4813 16.1347 36.501 16.1228 36.5239C16.1109 36.5467 16.0871 36.5582 16.0514 36.5582H15.574C15.5116 36.5582 15.4684 36.5125 15.4447 36.4211L14.4207 32.8516L14.3885 32.7392L14.3429 32.5802L14.3395 32.5684L14.3382 32.564L14.336 32.5577L14.3338 32.5515H14.3159L14.3115 32.5577C14.3115 32.5584 14.3114 32.559 14.3114 32.5595C14.3112 32.5625 14.3105 32.564 14.3092 32.564C14.3077 32.564 14.307 32.566 14.307 32.5702L14.3062 32.5732L14.3055 32.5757L14.2273 32.852L13.7886 34.403L13.7359 34.5891H14.2892C14.3516 34.5891 14.3947 34.6306 14.4185 34.7137L14.5791 35.2683C14.594 35.3389 14.5881 35.3992 14.5613 35.449C14.5375 35.5072 14.4988 35.5362 14.4453 35.5362ZM20.0889 31.6355V34.9647V35.3929H20.0666C20.0606 35.3929 20.0562 35.3867 20.0532 35.3742L19.9028 35.0007L18.6434 31.8723C18.6256 31.8266 18.6085 31.7851 18.5921 31.7477C18.5758 31.7103 18.5602 31.677 18.5453 31.6479C18.5126 31.5815 18.4813 31.5338 18.4516 31.5047C18.4159 31.4673 18.3743 31.4424 18.3267 31.4299C18.3029 31.4257 18.2783 31.4226 18.2531 31.4205C18.2278 31.4185 18.2003 31.4175 18.1705 31.4175H17.8359C17.708 31.4175 17.6114 31.4756 17.5459 31.5919C17.4835 31.7124 17.4522 31.9222 17.4522 32.2213V36.3401C17.4522 36.4356 17.4686 36.4958 17.5013 36.5208C17.534 36.5457 17.5608 36.5582 17.5816 36.5582H17.9787C17.9995 36.5582 18.0255 36.5457 18.0568 36.5208C18.088 36.4958 18.1036 36.4356 18.1036 36.3401V32.5827H18.1259H18.1304C18.1334 32.5827 18.1348 32.5848 18.1348 32.5889C18.1348 32.5972 18.1363 32.6014 18.1393 32.6014L18.2896 32.9737L19.5535 36.1033C19.5714 36.1531 19.5892 36.1967 19.6071 36.2341C19.6249 36.2715 19.6413 36.3047 19.6561 36.3338C19.6859 36.3961 19.7186 36.4418 19.7543 36.4709C19.784 36.5041 19.8242 36.527 19.8748 36.5395C19.9134 36.5519 19.964 36.5582 20.0264 36.5582H20.3521C20.483 36.5582 20.5796 36.4979 20.6421 36.3774C20.7046 36.2653 20.7358 36.0576 20.7358 35.7543L20.7358 31.6355C20.7358 31.5358 20.7194 31.4745 20.6867 31.4517C20.654 31.4289 20.6287 31.4175 20.6109 31.4175H20.2138C20.193 31.4174 20.167 31.4289 20.1358 31.4517C20.1045 31.4746 20.0889 31.5358 20.0889 31.6355ZM32.5062 36.3121C32.4468 36.256 32.3963 36.1864 32.3546 36.1033C32.2625 35.9455 32.197 35.7419 32.1583 35.4927C32.1375 35.3722 32.1226 35.2372 32.1137 35.0876C32.1047 34.9381 32.1003 34.7761 32.1003 34.6016V31.6293C32.1003 31.5338 32.1166 31.4746 32.1494 31.4517C32.1821 31.4289 32.2089 31.4174 32.2298 31.4175H32.6357C32.6566 31.4175 32.6825 31.4289 32.7137 31.4517C32.7449 31.4745 32.7606 31.5338 32.7606 31.6293V34.7013C32.7606 34.7968 32.7628 34.8841 32.7673 34.963C32.7717 35.0419 32.7769 35.1105 32.7829 35.1686C32.8007 35.2808 32.826 35.3743 32.8588 35.449C32.8944 35.5114 32.939 35.5571 32.9926 35.5861C33.0223 35.5986 33.0566 35.609 33.0953 35.6173C33.1338 35.6256 33.1769 35.6297 33.2246 35.6297H34.1883C34.2358 35.6297 34.2789 35.6256 34.3176 35.6173C34.3563 35.609 34.3905 35.5986 34.4203 35.5861C34.4737 35.5571 34.5183 35.5114 34.554 35.449C34.5689 35.4158 34.5831 35.3753 34.5965 35.3275C34.6099 35.2798 34.6195 35.2268 34.6255 35.1686C34.6314 35.1105 34.6367 35.0419 34.6411 34.963C34.6456 34.8841 34.6478 34.7968 34.6478 34.7013V31.6293C34.6478 31.5338 34.6634 31.4746 34.6945 31.4517C34.7258 31.4289 34.7518 31.4174 34.7727 31.4175H35.1831C35.2039 31.4175 35.23 31.4289 35.2612 31.4517C35.2923 31.4745 35.3079 31.5338 35.3079 31.6293L35.3081 34.6016C35.3081 34.7761 35.3036 34.9381 35.2947 35.0876C35.2858 35.2372 35.2709 35.3722 35.25 35.4927C35.2084 35.7502 35.1444 35.9538 35.0582 36.1033C34.9719 36.2612 34.8559 36.3775 34.7101 36.4523C34.5763 36.5187 34.4083 36.552 34.2061 36.552H33.2022C32.9999 36.552 32.8319 36.5187 32.698 36.4523C32.6297 36.4149 32.5658 36.3681 32.5062 36.3121ZM37.8778 36.3401V32.3397H36.7312C36.7222 32.3397 36.7103 32.3376 36.6954 32.3335C36.6806 32.3293 36.6664 32.32 36.653 32.3054C36.6396 32.2909 36.6278 32.268 36.6175 32.2369C36.6071 32.2057 36.6019 32.1652 36.6019 32.1154V31.6293C36.6019 31.5338 36.6182 31.4746 36.6508 31.4517C36.6835 31.4289 36.7103 31.4174 36.7312 31.4175H39.6847C39.7054 31.4175 39.7321 31.4289 39.7648 31.4517C39.7976 31.4745 39.814 31.5338 39.814 31.6293V32.1154C39.814 32.1652 39.8087 32.2057 39.7983 32.2369C39.7879 32.268 39.776 32.2909 39.7626 32.3054C39.7492 32.32 39.7351 32.3293 39.7202 32.3335C39.7054 32.3376 39.6936 32.3397 39.6847 32.3397H38.538V36.3401C38.538 36.4356 38.5224 36.4948 38.4912 36.5177C38.4599 36.5405 38.4339 36.552 38.413 36.552H38.0026C37.9847 36.552 37.9595 36.5405 37.9269 36.5177C37.8941 36.4948 37.8778 36.4356 37.8778 36.3401ZM24.5502 35.2496L24.5458 34.3772H23.4349C23.426 34.3772 23.4141 34.3752 23.3992 34.371C23.3843 34.3669 23.3702 34.3575 23.3568 34.343C23.3434 34.3284 23.3323 34.3056 23.3234 34.2744C23.3144 34.2433 23.31 34.2028 23.31 34.1529V33.6793C23.31 33.5796 23.3263 33.5173 23.3591 33.4924C23.3918 33.4675 23.4171 33.455 23.4349 33.455H25.0142C25.044 33.455 25.0774 33.4716 25.1146 33.5049C25.1518 33.5381 25.1704 33.6129 25.1704 33.7292V35.3992C25.1704 35.8104 25.1272 36.1053 25.041 36.284C24.9518 36.4668 24.8239 36.5582 24.6573 36.5582H23.1315C22.9382 36.5582 22.7702 36.5228 22.6274 36.4522C22.4906 36.3858 22.3761 36.2715 22.2839 36.1095C22.1917 35.9433 22.1262 35.7398 22.0876 35.4988C22.0489 35.2579 22.0296 34.9588 22.0296 34.6016V33.3678C22.0296 33.1933 22.034 33.0323 22.043 32.8849C22.0519 32.7374 22.0668 32.6034 22.0876 32.483C22.1262 32.242 22.1917 32.0385 22.2839 31.8723C22.3671 31.7186 22.4816 31.6023 22.6274 31.5233C22.7702 31.4527 22.9382 31.4174 23.1315 31.4175H25.0499C25.0677 31.4175 25.093 31.4299 25.1257 31.4549C25.1585 31.4798 25.1748 31.54 25.1748 31.6355L25.1748 32.1216C25.1748 32.2213 25.1585 32.2825 25.1257 32.3054C25.093 32.3282 25.0677 32.3396 25.0499 32.3396H23.1538C23.1063 32.3396 23.0631 32.3438 23.0244 32.3521C22.9858 32.3604 22.9516 32.3708 22.9218 32.3833C22.8683 32.4123 22.8237 32.458 22.788 32.5203C22.7523 32.5951 22.7285 32.6865 22.7166 32.7945C22.6988 32.9191 22.6899 33.0749 22.6899 33.2619V34.7075C22.6899 34.8944 22.6988 35.0502 22.7166 35.1748C22.7285 35.287 22.7523 35.3784 22.788 35.449C22.8237 35.5155 22.8683 35.5612 22.9218 35.5861C22.9754 35.6152 23.0527 35.6297 23.1538 35.6297H24.403C24.4536 35.6297 24.4893 35.6069 24.5101 35.5612C24.519 35.5404 24.5279 35.5072 24.5369 35.4615C24.5458 35.4158 24.5502 35.3451 24.5502 35.2496ZM8.84632 33.4986H9.03237H10.5372V33.3126L10.5372 31.6355C10.5372 31.54 10.5528 31.4798 10.584 31.4549C10.6152 31.4299 10.6398 31.4175 10.6576 31.4175H11.0681C11.0889 31.4175 11.1157 31.4299 11.1484 31.4549C11.1811 31.4798 11.1974 31.54 11.1974 31.6355L11.1975 36.3401C11.1975 36.4356 11.1811 36.4958 11.1484 36.5208C11.1157 36.5457 11.0889 36.5582 11.0681 36.5582H10.6576C10.6398 36.5582 10.6152 36.5457 10.584 36.5208C10.5528 36.4958 10.5372 36.4356 10.5372 36.3401V34.6069V34.4209H8.84632V36.3401C8.84632 36.4356 8.83071 36.4958 8.79948 36.5208C8.76825 36.5457 8.74223 36.5582 8.72141 36.5582H8.31543C8.29461 36.5582 8.26784 36.5457 8.23512 36.5208C8.2024 36.4958 8.18605 36.4356 8.18605 36.3401V31.6355C8.18605 31.54 8.20241 31.4798 8.23513 31.4549C8.26784 31.4299 8.29461 31.4175 8.31543 31.4175H8.72141C8.74223 31.4175 8.76825 31.4299 8.79949 31.4549C8.83072 31.4798 8.84633 31.54 8.84633 31.6355L8.84632 33.3126V33.4986ZM28.616 36.5582C28.4197 36.5582 28.2531 36.5229 28.1163 36.4523C27.9765 36.3858 27.8605 36.2695 27.7684 36.1033C27.6791 35.9413 27.6151 35.7377 27.5766 35.4927C27.5557 35.3722 27.5408 35.2372 27.5319 35.0876C27.523 34.9381 27.5185 34.7761 27.5185 34.6016V33.3678C27.5185 33.0106 27.5379 32.7156 27.5766 32.483C27.6151 32.2379 27.6791 32.0344 27.7684 31.8723C27.8605 31.7145 27.9765 31.5982 28.1163 31.5235C28.259 31.4528 28.4256 31.4175 28.616 31.4175H29.7046C29.8979 31.4175 30.066 31.4528 30.2087 31.5235C30.3485 31.5982 30.4645 31.7145 30.5567 31.8723C30.643 32.0219 30.7069 32.2254 30.7485 32.483C30.7663 32.6035 30.7805 32.7374 30.7909 32.8849C30.8013 33.0324 30.8065 33.1934 30.8065 33.3678V34.6016C30.8065 34.7761 30.8013 34.9381 30.7909 35.0876C30.7805 35.2372 30.7663 35.3722 30.7485 35.4927C30.7069 35.7461 30.643 35.9517 30.5567 36.1095C30.4645 36.2715 30.3485 36.3858 30.2087 36.4523C30.066 36.5229 29.8979 36.5582 29.7046 36.5582H28.616ZM30.1194 35.1749C30.1046 35.2953 30.0793 35.3867 30.0435 35.449C30.0139 35.5155 29.9693 35.5612 29.9098 35.5861C29.8562 35.6152 29.7803 35.6297 29.6822 35.6297H28.6383C28.5402 35.6297 28.4644 35.6152 28.4108 35.5861C28.3513 35.5612 28.3067 35.5155 28.277 35.449C28.2592 35.4158 28.2443 35.3763 28.2324 35.3307C28.2205 35.285 28.21 35.233 28.2011 35.1749C28.1952 35.1126 28.19 35.043 28.1855 34.9661C28.181 34.8893 28.1788 34.8051 28.1788 34.7138V33.2619C28.1788 33.1705 28.181 33.0864 28.1855 33.0095C28.19 32.9327 28.1952 32.8631 28.2011 32.8008C28.219 32.6762 28.2443 32.5827 28.277 32.5204C28.3067 32.4622 28.3513 32.4165 28.4108 32.3833C28.4406 32.3708 28.474 32.3605 28.5111 32.3522C28.5483 32.3438 28.5907 32.3397 28.6383 32.3397H29.6822C29.7299 32.3397 29.7723 32.3438 29.8095 32.3522C29.8466 32.3605 29.88 32.3708 29.9098 32.3833C29.9693 32.4165 30.0139 32.4622 30.0435 32.5204C30.0822 32.591 30.1075 32.6845 30.1194 32.8008C30.1284 32.8631 30.1343 32.9327 30.1373 33.0095C30.1403 33.0864 30.1418 33.1705 30.1418 33.2619V34.7138C30.1418 34.8051 30.1403 34.8893 30.1373 34.9661C30.1343 35.043 30.1284 35.1126 30.1194 35.1749ZM28.4123 35.2838C28.4024 35.2456 28.3935 35.2016 28.3859 35.1518C28.3852 35.1461 28.3847 35.1402 28.3842 35.1344C28.3793 35.0803 28.375 35.0206 28.3712 34.9553C28.3669 34.8821 28.3648 34.8016 28.3648 34.7138V33.2619C28.3648 33.1741 28.3669 33.0936 28.3712 33.0203C28.3754 32.9476 28.3803 32.8818 28.3859 32.8229C28.3866 32.8179 28.3873 32.8129 28.3881 32.8081C28.4025 32.7146 28.4207 32.6469 28.4426 32.6051C28.4539 32.5831 28.4707 32.565 28.493 32.5508C28.4946 32.5502 28.4963 32.5496 28.498 32.549C28.514 32.5432 28.532 32.5381 28.5518 32.5337C28.5756 32.5284 28.6045 32.5257 28.6383 32.5257H29.6822C29.7161 32.5257 29.7449 32.5284 29.7687 32.5337C29.7907 32.5386 29.8103 32.5443 29.8275 32.5508C29.8279 32.551 29.8283 32.5513 29.8287 32.5515C29.8505 32.5656 29.8669 32.5835 29.878 32.6051L29.8793 32.6074L29.8804 32.6097C29.907 32.6584 29.925 32.7284 29.9343 32.8197L29.9347 32.8235L29.9353 32.8272C29.9433 32.8831 29.9487 32.9463 29.9514 33.0167C29.9543 33.0912 29.9557 33.1729 29.9557 33.2619V34.7138C29.9557 34.8028 29.9543 34.8845 29.9514 34.9589C29.9487 35.0294 29.9432 35.0937 29.9349 35.1521C29.923 35.2478 29.9054 35.3159 29.8822 35.3566L29.8776 35.3646L29.8739 35.3731C29.8641 35.3947 29.8521 35.4086 29.838 35.4145L29.8292 35.4182L29.821 35.4226C29.7951 35.4367 29.7488 35.4437 29.6822 35.4437H28.6383C28.5717 35.4437 28.5255 35.4367 28.4995 35.4226L28.4913 35.4182L28.4826 35.4145C28.4685 35.4086 28.4565 35.3947 28.4467 35.3731L28.4441 35.3669L28.4409 35.361C28.43 35.3409 28.4205 35.3151 28.4123 35.2838Z" fill="white"/>
<path fill-rule="evenodd" clip-rule="evenodd" d="M34.6716 12.4563C34.5446 12.3453 34.6087 12.1364 34.776 12.1154L35.6873 12.0015C35.8039 11.987 35.907 12.0779 35.907 12.1954V13.1066C35.907 13.2744 35.7092 13.3641 35.5829 13.2536L34.6716 12.4563ZM12.093 25.8019V16.004C12.093 15.8217 12.1599 15.6458 12.281 15.5095L12.6512 15.0931C12.7711 14.9582 12.936 14.8715 13.1151 14.8491L13.5814 14.7908L33.3433 12.3206C33.5539 12.2942 33.7658 12.3591 33.9256 12.4989L35.6528 14.0103C35.8143 14.1516 35.907 14.3557 35.907 14.5703V24.3683C35.907 24.5506 35.84 24.7265 35.7191 24.8627L35.3488 25.2792C35.2288 25.4141 35.064 25.5008 34.8848 25.5232L29.9535 26.1396L28.7518 26.2898C28.5674 26.3129 28.381 26.2661 28.2293 26.1587L26.4683 24.9113C26.3167 24.8039 26.1303 24.7571 25.9459 24.7801L22.012 25.2718C21.8532 25.2917 21.705 25.3622 21.5894 25.473L19.7129 27.2714C19.5973 27.3821 19.4491 27.4527 19.2903 27.4725L18.0465 27.628L15.0698 28.0001L14.6568 28.0517C14.4461 28.078 14.2342 28.0132 14.0744 27.8733L12.3472 26.362C12.1857 26.2207 12.093 26.0165 12.093 25.8019ZM28.093 16.8373C28.093 16.2208 28.5928 15.721 29.2093 15.721C29.8258 15.721 30.3256 16.2208 30.3256 16.8373C30.3256 17.4538 29.8258 17.9536 29.2093 17.9536C28.5928 17.9536 28.093 17.4538 28.093 16.8373ZM17.6744 17.8663V19.442L16.0937 19.6395C15.7213 19.6861 15.4419 20.0027 15.4419 20.378V21.1106C15.4419 21.5582 15.8342 21.9045 16.2783 21.849L17.6744 21.6745V23.0641C17.6744 23.5117 18.0667 23.858 18.5109 23.8025L19.2551 23.7095C19.6275 23.6629 19.907 23.3464 19.907 22.9711V21.3954L21.4876 21.1979C21.8601 21.1513 22.1395 20.8347 22.1395 20.4594V19.7268C22.1395 19.2792 21.7472 18.9329 21.303 18.9884L19.907 19.1629V17.7733C19.907 17.3257 19.5147 16.9794 19.0705 17.0349L18.3263 17.1279C17.9539 17.1745 17.6744 17.491 17.6744 17.8663ZM30.3256 18.8838C30.3256 18.2673 30.8253 17.7675 31.4419 17.7675C32.0584 17.7675 32.5581 18.2673 32.5581 18.8838C32.5581 19.5003 32.0584 20.0001 31.4419 20.0001C30.8253 20.0001 30.3256 19.5003 30.3256 18.8838ZM26.9767 18.3257C26.3602 18.3257 25.8605 18.8255 25.8605 19.442C25.8605 20.0585 26.3602 20.5582 26.9767 20.5582C27.5932 20.5582 28.093 20.0585 28.093 19.442C28.093 18.8255 27.5932 18.3257 26.9767 18.3257ZM29.2093 20.1861C28.5928 20.1861 28.093 20.6859 28.093 21.3024C28.093 21.9189 28.5928 22.4187 29.2093 22.4187C29.8258 22.4187 30.3256 21.9189 30.3256 21.3024C30.3256 20.6859 29.8258 20.1861 29.2093 20.1861ZM12.093 28.1767V27.2655C12.093 27.0977 12.2908 27.0079 12.4171 27.1185L13.3284 27.9157C13.4553 28.0268 13.3913 28.2357 13.2239 28.2567L12.3127 28.3705C12.196 28.3851 12.093 28.2942 12.093 28.1767Z" fill="white"/>
</svg>
