<svg width="48" height="48" viewBox="0 0 48 48" fill="none" xmlns="http://www.w3.org/2000/svg">
<rect width="48" height="48" rx="9.8" fill="#E3E5DE"/>
<path d="M31.6745 25.5767L31.6746 16.3176C31.6747 11.7239 27.9509 8.00003 23.3572 8C19.0131 8 15.3737 11.3934 15.3343 15.7374C15.3325 15.9393 15.3315 16.1364 15.3315 16.3273" stroke="#EB8F44" stroke-width="1.9375"/>
<path d="M15.3077 21.0316C15.8993 21.0348 16.3816 20.5579 16.3849 19.9664C16.3881 19.3749 15.9111 18.8928 15.3194 18.8896C14.7277 18.8864 14.2454 19.3633 14.2422 19.9548C14.2389 20.5463 14.716 21.0284 15.3077 21.0316Z" fill="#EB8F44"/>
<path d="M18.7896 21.044C19.3813 21.0472 19.8636 20.5704 19.8668 19.9789C19.87 19.3874 19.393 18.9053 18.8013 18.9021C18.2096 18.8988 17.7274 19.3757 17.7241 19.9672C17.7209 20.5587 18.1979 21.0408 18.7896 21.044Z" fill="#25291C"/>
<path d="M14.8196 25.7603L14.7771 31.5151C14.7429 36.1468 18.4545 39.9367 23.0859 39.9992C27.684 40.0612 31.4826 36.4241 31.6203 31.8277L31.6474 30.9219" stroke="#25291C" stroke-width="1.9375"/>
<path d="M27.8843 23.1339L27.873 31.2621C27.8695 33.8077 25.7865 35.8598 23.2413 35.8255C20.7286 35.7916 18.715 33.7352 18.734 31.2224L18.7816 24.9117C18.794 23.273 16.9182 22.3353 15.6147 23.3286C15.1252 23.7017 14.8379 24.2818 14.8379 24.8973L14.8379 25.9141" stroke="#25291C" stroke-width="1.9375"/>
<path d="M23.3323 12.1539L23.3163 11.1853L23.3321 11.1851L23.348 11.1853L23.3323 12.1539ZM19.814 19.7425C19.814 20.2775 19.3802 20.7112 18.8452 20.7112C18.3102 20.7112 17.8765 20.2775 17.8765 19.7425H19.814ZM23.3482 13.1226L23.0793 13.127L23.0473 11.1897L23.3163 11.1853L23.3482 13.1226ZM19.814 16.4466V19.7425H17.8765V16.4466H19.814ZM26.9181 23.2945V18.0116H28.8556V23.2945H26.9181ZM26.9181 18.0116V16.7831H28.8556V18.0116H26.9181ZM17.8765 16.4466C17.8765 13.5767 20.1778 11.2371 23.0473 11.1897L23.0793 13.127C21.2672 13.1569 19.814 14.6344 19.814 16.4466H17.8765ZM23.348 11.1853C26.4042 11.235 28.8556 13.7266 28.8556 16.7831H26.9181C26.9181 14.7844 25.315 13.155 23.3165 13.1226L23.348 11.1853Z" fill="#25291C"/>
<path d="M31.6604 32.1048C32.3833 32.1087 32.9726 31.5274 32.9765 30.8065C32.9805 30.0855 32.3976 29.4979 31.6747 29.4939C30.9518 29.49 30.3625 30.0713 30.3586 30.7923C30.3546 31.5132 30.9375 32.1009 31.6604 32.1048Z" fill="#25291C"/>
<path d="M31.7614 27.0085C32.4748 27.0085 33.0531 26.358 33.0531 25.5554C33.0531 24.7529 32.4748 24.1023 31.7614 24.1023C31.048 24.1023 30.4697 24.7529 30.4697 25.5554C30.4697 26.358 31.048 27.0085 31.7614 27.0085Z" fill="#EB8F44"/>
<path d="M15.2917 17.3209C16.005 17.3209 16.5833 16.7426 16.5833 16.0292C16.5833 15.3158 16.005 14.7375 15.2917 14.7375C14.5783 14.7375 14 15.3158 14 16.0292C14 16.7426 14.5783 17.3209 15.2917 17.3209Z" fill="#EB8F44"/>
</svg>
