<svg width="48" height="48" viewBox="0 0 48 48" fill="none" xmlns="http://www.w3.org/2000/svg">
<rect width="48" height="48" rx="8" fill="black"/>
<path d="M22.0349 8.05661C18.655 8.52823 15.6288 9.93325 13.1627 12.1931C9.66487 15.3863 7.81771 19.8765 8.01422 24.6614C8.19107 28.7586 9.77295 32.3448 12.7009 35.2727C15.0491 37.621 17.6234 39.0064 20.9542 39.7138C21.8286 39.9005 22.2904 39.9299 24 39.9299C25.7096 39.9299 26.1714 39.9005 27.0458 39.7138C30.0819 39.0653 32.6364 37.7684 34.8373 35.7542C38.3351 32.5609 40.1823 28.0708 39.9858 23.2859C39.8089 19.1887 38.2271 15.6025 35.2991 12.6745C33.9334 11.3088 32.6954 10.4147 31.1234 9.63849C28.8242 8.50858 26.9967 8.06644 24.393 8.00749C23.4498 7.98784 22.3886 8.00749 22.0349 8.05661ZM26.1714 11.4562C30.8974 12.2225 34.8668 15.7793 36.2227 20.4463C36.4585 21.2618 36.6157 22.2247 36.714 23.4038L36.7631 23.9736H24H11.2467L11.2959 23.3055C11.512 20.0631 12.7893 17.1942 15.0098 14.9835C17.9476 12.0359 21.9662 10.7684 26.1714 11.4562Z" fill="white"/>
</svg>
