<svg width="48" height="48" viewBox="0 0 48 48" fill="none" xmlns="http://www.w3.org/2000/svg">
<rect width="48" height="48" rx="8" fill="white"/>
<path d="M22.4944 9.68874C18.9098 11.2161 16.4785 13.6163 15.0758 17.045C14.4212 18.6659 14.39 19.227 14.2965 28.9834L14.203 39.1763H18.2552H22.3386V29.7004C22.3386 20.4115 22.3386 20.2245 23.0555 19.227C25.1751 16.0164 29.726 16.2658 31.3469 19.6634C32.1574 21.2843 32.1574 22.1259 31.4093 23.7779C30.2248 26.3651 26.7025 27.3626 24.0841 25.8352C23.4295 25.43 22.8373 25.1806 22.775 25.2429C22.7126 25.3053 23.0243 27.0508 23.4919 29.1393C24.2712 32.7551 24.3335 32.9109 25.2686 33.3162C25.7985 33.5344 27.3882 33.7214 28.8844 33.7214C31.1599 33.7214 31.7833 33.5967 33.3107 32.8486C37.8928 30.6043 40.8228 24.4325 39.7942 19.3205C38.9838 15.4242 35.9914 11.6213 32.4067 9.9381C30.9105 9.25235 30.0689 9.09649 27.4817 9.03415C24.7387 8.94064 24.1465 9.00298 22.4944 9.68874Z" fill="black"/>
<path d="M8 13.3045V17.3567H9.02863C10.2755 17.3878 12.2081 18.0736 12.9562 18.7282C13.4861 19.2269 13.5484 19.1646 14.0783 17.606C14.7017 15.7046 15.855 13.6473 16.7278 12.8369C17.0707 12.5252 17.3512 12.1823 17.3512 12.0576C17.3512 11.2784 11.3664 9.25226 9.02863 9.25226H8V13.3045Z" fill="black"/>
</svg>
