<svg width="48" height="48" viewBox="0 0 48 48" fill="none" xmlns="http://www.w3.org/2000/svg">
<rect width="48" height="48" rx="9.8" fill="white"/>
<path d="M20.1417 22.0817H24.5597C23.9558 20.5243 23.6697 18.8715 23.6697 17.1869C23.6697 16.583 23.7015 16.0109 23.7969 15.407C23.8287 15.1845 23.6697 14.9938 23.4473 14.962C23.0658 14.9302 22.6844 14.8984 22.303 14.8984C20.2688 14.8984 18.3617 15.4388 16.7407 16.3923V18.6808C16.7089 20.5561 18.2664 22.0817 20.1417 22.0817Z" fill="#830EBF"/>
<path d="M39.8162 20.4607C39.5621 20.5243 39.3395 20.556 39.0852 20.556C38.7992 20.556 38.5131 20.5243 38.1952 20.4607C37.1782 20.2382 36.1929 19.6025 35.43 18.7125C34.699 17.8226 34.254 16.7419 34.1904 15.693C34.1586 14.8984 34.3493 14.1674 34.7625 13.5634C34.254 13.4363 33.7137 13.341 33.1415 13.341C32.9826 13.341 32.8555 13.341 32.6966 13.3727C32.3469 13.4045 31.9655 13.3092 31.6477 13.1502C30.0584 12.3874 28.2785 11.9424 26.4032 12.006C26.4032 12.006 26.4032 12.006 26.3714 12.006C25.9582 12.8324 25.6086 13.6906 25.4179 14.6123C25.2272 15.4705 25.1318 16.3287 25.1318 17.1869C25.1318 19.6979 25.8947 22.1135 27.2932 24.1477C27.5157 24.4973 27.4521 24.9423 27.1025 25.1966C26.9753 25.2919 26.8164 25.3237 26.6893 25.3237C26.4668 25.3237 26.2125 25.1966 26.0854 25.0059C25.7993 24.5609 25.5132 24.1159 25.259 23.6709H20.1417C17.3764 23.6709 15.1197 21.4142 15.1197 18.649V17.4729C13.5305 18.8079 12.3227 20.556 11.6234 22.5585C11.0513 24.4655 9.74809 26.023 8 26.9447C9.14417 27.0083 10.2249 26.8176 11.1784 26.4044C11.3691 26.309 11.5916 26.4044 11.6552 26.5951C11.8141 27.0401 11.973 27.5169 12.1002 27.9936C12.3862 29.0425 12.5452 30.1232 12.5452 31.2674C12.5452 32.952 12.2273 34.573 11.6234 36.0351C11.4327 36.4801 11.7823 36.9569 12.2591 36.9569H16.6136C17.0268 36.9569 17.4082 36.6708 17.5035 36.2894C17.7578 35.2405 18.2664 34.3188 18.9338 33.4924C19.1246 33.2381 19.4424 33.1427 19.7602 33.1745C20.1734 33.2381 20.6184 33.2699 21.0316 33.2699C21.6355 33.2699 22.2077 33.2063 22.7798 33.1109C23.1294 33.0474 23.5108 33.1745 23.7333 33.4606C24.4008 34.3188 24.814 35.3359 24.9729 36.4483C25.0047 36.7344 25.2908 36.9569 25.5768 36.9569C26.7211 36.9569 29.2956 36.9569 30.4081 36.9569C30.6623 36.9569 30.8213 36.7026 30.7259 36.4801C29.9313 34.6366 29.4863 32.6024 29.4863 30.441C29.4863 29.5193 29.5817 28.6293 29.7406 27.7711C29.7406 27.7394 29.7724 27.644 29.7724 27.5804C29.9949 26.8812 30.3127 26.3408 30.8848 25.9594C30.9802 25.8641 31.4887 25.6734 31.6159 25.6416C31.7748 25.6098 31.9337 25.578 32.0926 25.578C33.2687 25.578 34.0633 26.4362 34.4129 27.5169C34.5083 27.7394 34.5718 27.9301 34.6036 28.1843C34.699 28.7247 34.7625 29.265 34.7625 29.8371C34.7625 33.0474 33.0144 35.1134 31.8066 36.5755C31.6795 36.7026 31.8066 36.9251 31.9655 36.9251H34.0951C34.3811 36.9251 34.6036 36.7662 34.7308 36.5437C35.43 35.1451 37.7503 30.441 38.1635 29.3921C38.1635 29.3604 38.1952 29.3286 38.1952 29.3286C39.2125 27.1037 39.7845 24.6563 39.7845 22.0499C39.8799 21.5414 39.848 21.001 39.8162 20.4607Z" fill="#830EBF"/>
<path d="M38.4496 19.1894C38.8628 19.2847 39.2761 19.2847 39.6257 19.1894C39.5304 18.5537 39.3714 17.9498 39.2126 17.3459L39.1171 17.1552C38.5132 15.7249 37.4008 14.7395 36.0023 14.0403C35.6208 14.4217 35.4301 14.962 35.4619 15.6295C35.4937 16.3923 35.8115 17.2187 36.3837 17.8862C36.9876 18.5537 37.7186 19.0304 38.4496 19.1894Z" fill="#830EBF"/>
<path d="M38.2727 26.7577C39.771 26.4978 40.4627 21.0615 39.665 18.3226C38.8674 15.5838 35.986 12.6213 33.2472 13.419C30.5083 14.2167 26.8924 17.3982 27.7629 20.3872C28.6335 23.3763 36.7745 27.0176 38.2727 26.7577Z" fill="#830EBF"/>
<path d="M26.5759 15.8989C26.4207 14.5544 21.4602 14.6801 18.316 15.5854C15.1719 16.4907 11.0553 21.175 11.6257 23.6493C12.196 26.1235 16.879 26.9288 19.5793 26.3064C22.2795 25.684 26.7311 17.2435 26.5759 15.8989Z" fill="#830EBF"/>
<path d="M32.4582 17.5578C32.303 16.2133 27.3425 16.339 24.1984 17.2443C21.0542 18.1496 16.9377 22.834 17.508 25.3082C18.0783 27.7824 22.7613 28.5878 25.4616 27.9653C28.1618 27.3429 32.6134 18.9024 32.4582 17.5578Z" fill="#830EBF"/>
</svg>
