<svg width="48" height="48" viewBox="0 0 48 48" fill="none" xmlns="http://www.w3.org/2000/svg">
<rect width="48" height="48" rx="8" fill="url(#paint0_linear_403_5266)"/>
<path d="M23.0716 9.1832C22.1307 9.82014 20.7266 10.7755 19.9449 11.3111C19.1632 11.8467 17.9906 12.6574 17.3537 13.1061C15.8337 14.1918 15.4718 14.2063 13.6913 13.2799C12.7794 12.8022 12.2582 12.614 11.8529 12.614C11.1002 12.6284 10.3474 13.193 10.1448 13.9168C10.0579 14.2497 10 17.0436 10 21.4008C10 27.9149 10.029 28.3926 10.275 28.9571C10.8251 30.1441 12.07 30.3613 13.3439 29.4783C14.4296 28.74 24.3021 21.8929 25.6918 20.9231C26.459 20.373 26.8932 19.9677 27.0235 19.6492C27.1828 19.2728 27.2262 18.1148 27.2262 14.38C27.2262 9.0674 27.1972 8.82131 26.3287 8.30018C25.4312 7.76458 24.968 7.88038 23.0716 9.1832Z" fill="black"/>
<path d="M34.493 18.2595C33.5955 18.7228 20.6831 27.7701 20.4081 28.1176C20.1475 28.436 20.1331 28.7834 20.1331 33.5894C20.1331 39.2205 20.1475 39.3508 21.0016 39.785C21.4938 40.0456 22.3479 40.0746 22.7677 39.843C22.9414 39.7561 24.8666 38.4388 27.0525 36.9188C31.844 33.6184 31.5689 33.7052 33.639 34.7764C34.4062 35.1817 35.1879 35.5147 35.3471 35.5147C35.8682 35.5147 36.621 35.0659 36.925 34.5738C37.2 34.125 37.2145 33.8789 37.2145 26.7424C37.2145 19.6926 37.2 19.3597 36.925 18.911C36.4038 18.0424 35.405 17.7818 34.493 18.2595Z" fill="black"/>
<defs>
<linearGradient id="paint0_linear_403_5266" x1="0" y1="0" x2="48" y2="48" gradientUnits="userSpaceOnUse">
<stop stop-color="#929EF0"/>
<stop offset="1" stop-color="#C9E4D3"/>
</linearGradient>
</defs>
</svg>
