<svg xmlns="http://www.w3.org/2000/svg" width="48" height="48" viewBox="0 0 48 48" fill="none">
  <rect width="48" height="48" rx="9.8" fill="#56ADD9"/>
  <path fill-rule="evenodd" clip-rule="evenodd" d="M23.6002 8L29.1488 10.8255V26.2595L34.2004 28.8318V34.6022L23.6002 40L18.0515 37.1745V32.0299L13 29.4575V13.3978L23.6002 8ZM19.0457 32.0299L23.1031 29.9638V38.6149L19.0457 36.5488V32.0299ZM24.0973 38.6149L33.2062 33.9765V29.9638L28.1546 32.5361V22.2468L24.0973 24.3129V38.6149ZM28.1546 21.1148V11.9575L19.0457 16.5959V30.8979L23.1031 28.8318V23.6871L28.1546 21.1148ZM18.5486 15.717L27.5402 11.1383L23.6002 9.13201L14.6086 13.7107L18.5486 15.717ZM13.9942 14.5298V28.8318L18.0515 30.8979V16.5959L13.9942 14.5298ZM32.5918 29.1447L29.1488 30.8979V27.3915L32.5918 29.1447ZM25.3602 15.7854V19.8113L21.8402 21.6037V17.5778L25.3602 15.7854ZM22.8344 18.2036V19.9655L24.366 19.1855V17.4237L22.8344 18.2036Z" fill="white"/>
</svg>