<svg width="48" height="48" viewBox="0 0 48 48" fill="none" xmlns="http://www.w3.org/2000/svg">
<rect width="48" height="48" rx="9.8" fill="white"/>
<path fill-rule="evenodd" clip-rule="evenodd" d="M33.4716 23.5043L29.5042 16.9431L31.5591 13.5803L37.56 23.5043H33.4716ZM19.9666 32.7254H27.9878L29.9901 36.0075H18.0003L19.9666 32.7254ZM27.9849 16.0552H19.9569L17.9947 12.7654H29.9951L27.9849 16.0552ZM27.9788 30.96H19.9547L15.982 24.3903L19.9547 17.8206H27.9788L31.9514 24.3903L27.9788 30.96ZM16.4364 13.5873L18.4337 16.9358L14.463 23.5022H10.4412L16.4364 13.5873ZM10.4393 25.2676H14.4565L18.4385 31.8527L16.4392 35.19L10.4393 25.2676ZM31.5565 35.1969L29.5056 31.8351L33.4756 25.2697H37.5593L31.5565 35.1969ZM32.3115 11.4244C32.1522 11.1609 31.8675 11 31.5607 11H16.4392C16.1323 11 15.8476 11.1609 15.6884 11.4244L8.12775 23.9281C7.95747 24.2097 7.95739 24.5631 8.12767 24.8447L15.6884 37.3483C15.8476 37.6119 16.1323 37.7728 16.4392 37.7728H31.5607C31.8675 37.7728 32.1522 37.6119 32.3115 37.3483L39.8722 24.8447C40.0426 24.5631 40.0426 24.2097 39.8722 23.9281L32.3115 11.4244Z" fill="#FD627A"/>
<path fill-rule="evenodd" clip-rule="evenodd" d="M28.5141 25.7652C28.1043 25.5045 27.5614 25.6267 27.3018 26.0386L25.7468 28.5053C25.4872 28.9171 25.609 29.4624 26.0189 29.7233C26.1647 29.8161 26.3274 29.8604 26.4882 29.8604C26.7792 29.8604 27.064 29.7152 27.2312 29.4499L28.7862 26.9833C29.0459 26.5715 28.924 26.0261 28.5141 25.7652Z" fill="#FD627A"/>
<path fill-rule="evenodd" clip-rule="evenodd" d="M29.7926 23.4938C29.3745 23.2467 28.8358 23.3869 28.5898 23.8071L28.4754 24.0025C28.2294 24.4227 28.369 24.9637 28.7873 25.2108C28.9272 25.2936 29.0805 25.3329 29.2319 25.3329C29.533 25.3329 29.8263 25.1772 29.99 24.8976L30.1044 24.7022C30.3504 24.282 30.2108 23.7411 29.7926 23.4938Z" fill="#FD627A"/>
</svg>
