<svg width="48" height="48" viewBox="0 0 48 48" fill="none" xmlns="http://www.w3.org/2000/svg">
<rect width="48" height="48" rx="9.8" fill="#0C1227"/>
<path d="M12.48 14L8 18.48L12.48 22.9599L16.9599 18.48L12.48 14Z" fill="#9C89F6"/>
<path d="M18.2402 19.7598L13.7603 24.2397L18.2402 28.7197L22.7202 24.2397L18.2402 19.7598Z" fill="#9C89F6"/>
<path d="M24 14L19.52 18.48L24 22.9599L28.4799 18.48L24 14Z" fill="#9C89F6"/>
<path d="M24 25.5198L19.52 29.9998L24 34.4797L28.4799 29.9998L24 25.5198Z" fill="#5137C5"/>
<path d="M29.7597 19.7598L25.2798 24.2397L29.7597 28.7197L34.2397 24.2397L29.7597 19.7598Z" fill="#5137C5"/>
<path d="M35.52 14L31.04 18.48L35.52 22.9599L40 18.48L35.52 14Z" fill="#5137C5"/>
</svg>
