<svg width="26" height="26" viewBox="0 0 26 26" fill="none" xmlns="http://www.w3.org/2000/svg">
<path d="M13 0.5C19.9262 0.5 25.5 6.07382 25.5 13C25.5 19.9262 19.9262 25.5 13 25.5C6.07382 25.5 0.5 19.9262 0.5 13C0.5 6.07382 6.07382 0.5 13 0.5Z" fill="#2775CA" stroke="#333333"/>
<path d="M16.3001 14.8999C16.3001 13.1499 15.2501 12.5499 13.1501 12.2999C11.6501 12.0999 11.3501 11.6999 11.3501 10.9999C11.3501 10.2998 11.8501 9.84989 12.8501 9.84989C13.7501 9.84989 14.2501 10.1499 14.5001 10.8999C14.5501 11.0499 14.7001 11.1499 14.8501 11.1499H15.65C15.8501 11.1499 16.0001 10.9999 16.0001 10.7999V10.7499C15.8 9.64985 14.9 8.79989 13.7501 8.69993V7.49993C13.7501 7.29989 13.6001 7.14989 13.3501 7.09985H12.6001C12.4001 7.09985 12.2501 7.24985 12.2 7.49993V8.64989C10.7 8.84993 9.7501 9.84989 9.7501 11.0999C9.7501 12.7499 10.7501 13.3999 12.8501 13.6499C14.2501 13.8999 14.7001 14.1999 14.7001 14.9999C14.7001 15.8 14 16.3499 13.0501 16.3499C11.75 16.3499 11.3 15.7999 11.15 15.0499C11.1001 14.8499 10.9501 14.7499 10.8001 14.7499H9.95002C9.7501 14.7499 9.6001 14.8999 9.6001 15.0999V15.1499C9.80002 16.3999 10.6001 17.2999 12.2501 17.5499V18.7499C12.2501 18.9499 12.4001 19.0999 12.65 19.1499H13.4C13.6001 19.1499 13.7501 18.9999 13.8001 18.7499V17.5499C15.3001 17.2999 16.3001 16.2499 16.3001 14.8999Z" fill="white"/>
<path d="M10.4501 20.15C6.55012 18.7501 4.55008 14.4001 6.00016 10.55C6.75016 8.45004 8.40016 6.85008 10.4501 6.10008C10.6502 6.00012 10.7501 5.85012 10.7501 5.60004V4.90008C10.7501 4.70004 10.6502 4.55004 10.4501 4.50012C10.4001 4.50012 10.3001 4.50012 10.2501 4.55004C5.50012 6.05004 2.90008 11.1001 4.40008 15.8501C5.30008 18.65 7.45012 20.8001 10.2501 21.7001C10.4501 21.8 10.6502 21.7001 10.7001 21.5C10.7501 21.4501 10.7501 21.4001 10.7501 21.3001V20.6C10.7501 20.45 10.6001 20.2501 10.4501 20.15ZM15.7502 4.55004C15.5501 4.45008 15.3501 4.55004 15.3002 4.75008C15.2501 4.80012 15.2501 4.85004 15.2501 4.95012V5.65008C15.2501 5.85012 15.4001 6.05004 15.5501 6.15012C19.4501 7.55004 21.4502 11.9 20.0001 15.7501C19.2501 17.8501 17.6001 19.4501 15.5501 20.2001C15.3501 20.3 15.2501 20.45 15.2501 20.7001V21.4001C15.2501 21.6001 15.3501 21.7501 15.5501 21.8C15.6002 21.8 15.7001 21.8 15.7502 21.7501C20.5001 20.2501 23.1002 15.2 21.6002 10.4501C20.7002 7.60008 18.5001 5.45004 15.7502 4.55004Z" fill="white"/>
</svg>
