<svg width="27" height="25" viewBox="0 0 27 25" fill="none" xmlns="http://www.w3.org/2000/svg" >
<g clip-path="url(#clip0_9_2081)">
<path d="M2.10011 21.0693L3.28472 23.1154C3.53087 23.5462 3.88472 23.8847 4.30011 24.1308L8.53087 16.8077H0.0693359C0.0693359 17.2847 0.192413 17.7616 0.438567 18.1924L2.10011 21.0693Z" fill="#0066DA"/>
<path d="M13.5001 8.19234L9.26934 0.869263C8.85395 1.11542 8.50011 1.45388 8.25395 1.88465L0.438567 15.4231C0.19694 15.8446 0.0696576 16.3219 0.0693359 16.8077H8.53087L13.5001 8.19234Z" fill="#00AC47"/>
<path d="M22.7001 24.1308C23.1155 23.8847 23.4694 23.5462 23.7155 23.1154L24.2078 22.2693L26.5617 18.1924C26.8078 17.7616 26.9309 17.2847 26.9309 16.8077H18.4688L20.2694 20.3462L22.7001 24.1308Z" fill="#EA4335"/>
<path d="M13.5001 8.19237L17.7308 0.869292C17.3154 0.623138 16.8385 0.500061 16.3462 0.500061H10.6539C10.1616 0.500061 9.68467 0.638523 9.26929 0.869292L13.5001 8.19237Z" fill="#00832D"/>
<path d="M18.4693 16.8077H8.53082L4.30005 24.1308C4.71543 24.377 5.19236 24.5 5.68466 24.5H21.3154C21.8077 24.5 22.2847 24.3616 22.7001 24.1308L18.4693 16.8077Z" fill="#2684FC"/>
<path d="M22.6538 8.65388L18.7462 1.88465C18.5 1.45388 18.1462 1.11542 17.7308 0.869263L13.5 8.19234L18.4692 16.8077H26.9154C26.9154 16.3308 26.7923 15.8539 26.5462 15.4231L22.6538 8.65388Z" fill="#FFBA00"/>
</g>
<defs>
<clipPath id="clip0_9_2081">
<rect width="26.8615" height="24" fill="white" transform="translate(0.0693359 0.5)"/>
</clipPath>
</defs>
</svg>