<svg width="330" height="165" viewBox="0 0 330 165" fill="none" xmlns="http://www.w3.org/2000/svg">
<circle cx="225.09" cy="38.0902" r="38.0902" fill="#372323"/>
<path d="M223.897 46.4515C221.806 46.4515 220.722 45.4061 220.645 43.3153L219.948 21.0129C219.87 18.8447 220.916 17.7605 223.084 17.7605H227.033C229.202 17.7605 230.247 18.8447 230.17 21.0129L229.473 43.3153C229.395 45.4061 228.311 46.4515 226.22 46.4515H223.897ZM220.47 53.7695C220.47 51.6399 221.535 50.5751 223.665 50.5751H226.453C228.582 50.5751 229.647 51.6399 229.647 53.7695V56.0926C229.647 58.2222 228.582 59.287 226.453 59.287H223.665C221.535 59.287 220.47 58.2222 220.47 56.0926V53.7695Z" fill="#EE5A4F"/>
<path d="M144.043 41.8402C144.114 41.2767 144.771 41.0057 145.218 41.3558L154.369 48.5179L166.103 59.0882L176.057 50.0735L189.094 43.2444C189.581 42.9894 190.165 43.3423 190.166 43.8919V55.0237C190.166 55.4842 190.586 55.8301 191.038 55.7415L203.933 53.2132C204.428 53.1164 204.871 53.5383 204.798 54.0374L202.773 67.8138C202.702 68.2959 203.114 68.7112 203.596 68.6448L214.869 67.0941C215.389 67.0226 215.813 67.5067 215.674 68.013L211.721 82.3929C211.616 82.7774 211.838 83.1758 212.22 83.2884L223.258 86.5364C223.768 86.6865 223.953 87.3136 223.606 87.7161L214.642 98.098C214.359 98.4265 214.422 98.9281 214.778 99.1761L223.598 105.317C223.982 105.584 224.019 106.139 223.674 106.455L212.968 116.273C212.651 116.564 212.653 117.065 212.971 117.354L220.993 124.637C221.333 124.946 221.308 125.488 220.94 125.764L209.943 134.005C209.616 134.25 209.554 134.716 209.804 135.039L214.307 140.843C214.602 141.223 214.456 141.778 214.013 141.965L200.965 147.467C189.089 153.478 181.158 159.75 170.82 159.75C155.453 159.75 151.464 151.148 134.955 147.853L121.04 144.435C120.563 144.318 120.335 143.774 120.585 143.352L125.263 135.456C125.472 135.103 125.35 134.646 124.992 134.446L111.907 127.118C111.509 126.895 111.41 126.366 111.701 126.014L118.284 118.044C118.528 117.748 118.503 117.313 118.224 117.048L105.875 105.297C105.516 104.956 105.593 104.365 106.026 104.126L115.208 99.0648C115.561 98.87 115.69 98.4262 115.496 98.0726L108.772 85.8236C108.529 85.3793 108.8 84.8279 109.3 84.7493L119.04 83.221C119.489 83.1504 119.766 82.6905 119.618 82.2601L114.721 68.0491C114.545 67.5383 114.964 67.0191 115.501 67.0843L128.382 68.6536C128.882 68.7144 129.292 68.2644 129.186 67.7728L126.243 54.138C126.13 53.6149 126.599 53.151 127.121 53.2698L141.379 56.5228C141.8 56.6188 142.212 56.3306 142.266 55.9017L144.043 41.8402ZM165.347 37.4349C165.634 36.9933 166.278 36.989 166.57 37.4271L174.9 49.9407C174.965 50.0385 175.052 50.1135 175.148 50.1683L167.03 56.3987L166.065 38.5911L165.101 56.3987L156.917 50.1175C157.077 50.0697 157.223 49.9703 157.322 49.8177L165.347 37.4349Z" fill="url(#paint0_linear_7_2030)"/>
<path d="M197.487 115.961C195.314 112.196 190.786 111.66 188.794 111.862H185.941L191.239 122.792L205.637 132.204C203.826 128.358 199.661 119.726 197.487 115.961Z" fill="#503ECE"/>
<path d="M136.214 123.61C138.248 120.514 141.535 115.249 145.306 113.401L153.139 116.411L148.968 124.149C142.783 127.702 135.744 136.998 132.997 141.201C137.366 123.877 142.146 119.242 148.15 116.459C143.962 118.4 139.577 121.573 136.214 123.61Z" fill="#503ECE"/>
<path fill-rule="evenodd" clip-rule="evenodd" d="M172.275 102.371C183.158 102.371 195.141 116.715 198.147 131.552C198.971 135.621 199.725 139.688 199.267 143.477C198.833 147.069 197.985 149.217 196.224 152.155C190.899 156.062 180.816 159.901 169.512 159.901C158.437 159.901 148.706 156.355 143.309 152.578C141.469 149.332 140.735 146.467 140.814 142.038C140.853 139.898 141.865 135.432 142.268 133.054C145.284 115.259 161.392 102.371 172.275 102.371Z" fill="#EBE0FF"/>
<path d="M170.831 112.999C179.978 112.999 187.392 124.527 187.393 134.997C187.393 139.563 185.982 143.174 183.633 145.794L178.799 144.073L175.558 147.712L173.46 144.073L169.837 149.284L165.26 144.073L160.874 148.078H160.666C156.774 145.469 154.27 141.081 154.27 134.997C154.27 124.527 161.685 112.999 170.831 112.999Z" fill="#FFFEFC"/>
<path d="M139.888 145.238C137.927 138.098 143.673 124.145 147.204 124.145L154.718 142.491C156.333 146.739 158.153 155.976 158.36 158.935C158.566 161.893 157.412 162.834 156.809 162.935L148.486 158.935C146.708 156.68 141.848 152.379 139.888 145.238Z" fill="#503ECE"/>
<path d="M151.941 158.559C156.061 158.17 158.024 159.621 158.024 162.048C158.024 163.846 156.566 164.244 153.677 164.329L153.225 161.996C153.199 161.862 153.02 161.833 152.953 161.952L151.618 164.351C151.595 164.351 151.572 164.352 151.549 164.352C151.16 164.352 150.795 164.351 150.453 164.35L149.946 161.73C149.92 161.597 149.741 161.568 149.675 161.687L148.237 164.27C148.23 164.283 148.226 164.296 148.223 164.309C148.045 164.301 147.879 164.29 147.723 164.277C147.743 164.248 147.753 164.212 147.747 164.173L147.291 161.33C147.268 161.191 147.081 161.161 147.017 161.287L145.819 163.612C145.644 163.378 145.559 163.072 145.528 162.668C145.4 160.983 148.401 158.894 151.941 158.559Z" fill="#9787FF"/>
<path d="M149.676 161.687C149.742 161.568 149.921 161.597 149.947 161.73L150.455 164.353C149.567 164.353 148.831 164.343 148.224 164.309C148.227 164.296 148.231 164.283 148.238 164.27L149.676 161.687ZM152.954 161.952C153.02 161.833 153.199 161.861 153.226 161.995L153.676 164.317C153.056 164.338 152.37 164.347 151.618 164.351L152.954 161.952ZM147.017 161.286C147.081 161.161 147.269 161.191 147.291 161.33L147.747 164.173C147.753 164.21 147.744 164.245 147.726 164.273C146.701 164.18 146.122 163.99 145.822 163.607L147.017 161.286Z" fill="#503ECE"/>
<path d="M200.304 140.272C200.304 131.537 197.493 126.88 194.82 126.88L189.47 140.272C187.279 145.123 183.79 156.865 182.934 159.079C182.078 161.293 183.871 162.735 184.406 163.122L193.115 155.592C196.154 153.19 200.304 146.675 200.304 140.272Z" fill="#503ECE"/>
<path d="M188.409 162.355C188.952 162.576 189.927 163.151 190.487 164.295C189.889 164.336 189.267 164.358 188.63 164.355C188.54 163.824 188.381 162.984 188.24 162.54C188.217 162.466 188.337 162.326 188.409 162.355ZM191.321 161.643C191.816 161.865 192.971 162.558 193.662 163.896C193.06 164.007 192.382 164.112 191.649 164.193H191.536C191.425 163.512 191.359 162.282 191.205 161.767C191.185 161.699 191.257 161.614 191.321 161.643ZM193.697 160.273C193.704 160.277 193.711 160.283 193.718 160.287C194.537 160.918 195.054 161.595 195.368 162.202C195.702 162.847 195.264 163.555 194.556 163.714C194.428 163.743 194.293 163.768 194.154 163.797H194.084C193.994 162.867 193.782 160.867 193.632 160.329C193.622 160.294 193.666 160.253 193.697 160.273Z" fill="#503ECE"/>
<path d="M188.434 158.387C190.76 158.513 192.5 159.334 193.687 160.271C193.656 160.261 193.62 160.297 193.629 160.33C193.78 160.868 193.991 162.868 194.081 163.798H194.152C193.994 163.83 193.831 163.865 193.66 163.896C192.969 162.559 191.814 161.865 191.319 161.643C191.254 161.614 191.182 161.7 191.202 161.768C191.356 162.283 191.422 163.513 191.533 164.193H191.637C191.265 164.234 190.88 164.268 190.485 164.295C189.924 163.151 188.949 162.577 188.406 162.355C188.334 162.326 188.214 162.467 188.237 162.541C188.379 162.985 188.538 163.825 188.627 164.355C187.827 164.351 187.005 164.309 186.182 164.211C183.971 163.949 181.434 162.73 183.201 160.458C184.202 159.172 186.552 158.284 188.434 158.387Z" fill="#9787FF"/>
<path d="M195.93 59.8053C201.291 59.8054 205.638 64.1518 205.638 69.5133C205.638 74.1926 202.327 78.099 197.92 79.0172C201.001 84.6251 203.668 90.8522 204.853 94.9254C205.247 96.2819 205.489 97.6463 205.586 98.984C203.812 98.5463 202.165 98.1938 200.879 98.0153C196.574 97.4176 179.956 100.656 172.185 102.349C168.896 103.495 159.152 104.71 146.479 100.406C139.425 98.0101 132.939 98.3448 127.912 99.5924C127.972 98.0613 128.226 96.4883 128.681 94.9254C129.801 91.0739 132.247 85.2967 135.114 79.9381C130.005 79.6565 125.949 75.4241 125.949 70.2448C125.949 64.8832 130.296 60.5367 135.657 60.5367C139.867 60.5368 143.452 63.2166 144.797 66.9635C149.487 64.2981 164.492 73.5236 168.596 75.3453C172.479 72.8228 181.606 66.5054 186.707 66.4723C187.983 62.6002 191.63 59.8053 195.93 59.8053Z" fill="#EBE0FF"/>
<path d="M163.451 98.6464C165.387 96.8494 168.728 95.6138 172.274 95.6138C174.892 95.6138 178.585 96.3042 180.456 98.6464C183.671 98.9228 190.576 98.4689 192.473 97.3685L192.474 97.3678C194.845 95.9919 200.129 92.9264 211.489 100.812C209.875 100.878 205.27 99.8602 199.579 99.2604C201.671 99.5084 206.03 100.632 206.707 100.812C207.553 101.036 210.785 102.242 213.411 104.504C212.193 104.211 209.285 103.619 207.401 103.599L210.541 107.62C208.733 106.922 205.137 105.606 202.307 105.431C203.615 106.142 205.781 107.796 206.898 109.232C203.852 110.046 197.813 112.562 194.088 113.785C191.215 114.729 179.224 116.48 173.587 117.42C172.526 117.536 170.168 117.763 169.231 117.745C161.513 117.8 135.37 112.92 134.343 112.637C133.521 112.41 131.667 111.606 130.843 111.233C128.853 110.31 125.04 111.618 123.382 112.387C125.371 109.848 131.327 106.135 134.055 104.596C131.651 104.673 124.763 107.321 121.62 108.636C125.185 100.556 137.199 100.267 142.76 101.133C138.118 99.5937 126.732 101.197 121.62 102.191C129.579 93.8798 140.204 96.4193 144.522 98.728C145.765 98.3432 148.287 98.5676 149.392 98.728C154.449 94.8802 160.872 97.3142 163.451 98.6464Z" fill="#FFFEFC"/>
<ellipse cx="151.591" cy="88.8296" rx="5.96578" ry="8.14557" transform="rotate(13.4207 151.591 88.8296)" fill="#D4C8EA"/>
<ellipse cx="184.956" cy="88.4639" rx="5.50851" ry="8.14557" transform="rotate(-15 184.956 88.4639)" fill="#D4C8EA"/>
<ellipse cx="172" cy="102.232" rx="5.99422" ry="4.69485" fill="#26126F"/>
<path d="M136.79 65.5585C139.229 65.5585 141.281 67.2119 141.889 69.4589C140.347 71.1949 138.734 73.5188 137.175 76.1073C137.048 76.1164 136.919 76.1229 136.79 76.1229C133.873 76.1228 131.508 73.758 131.508 70.8407C131.508 67.9235 133.873 65.5586 136.79 65.5585Z" fill="url(#paint1_linear_7_2030)"/>
<path d="M195.222 65.5585C198.139 65.5585 200.504 67.9234 200.504 70.8407C200.504 73.4592 198.599 75.6309 196.099 76.0487C194.235 72.9615 192.297 70.2555 190.495 68.4813C191.362 66.7486 193.152 65.5585 195.222 65.5585Z" fill="url(#paint2_linear_7_2030)"/>
<path d="M167.901 110.273C169.092 108.925 170.703 108.409 172.498 108.409M172.498 108.409C172.498 107.86 172.498 106.776 172.498 106.776M172.498 108.409C174.294 108.409 175.493 108.942 176.482 110.273" stroke="#26126F" stroke-width="1.09718" stroke-linecap="round"/>
<path d="M145.142 80.2126C147.467 79.5297 150.769 78.4376 153.084 76.8364" stroke="#D4C8EA" stroke-width="1.09718" stroke-linecap="round"/>
<path d="M191.383 80.0028C188.517 79.4659 184.115 77.7462 182.549 76.5377" stroke="#D4C8EA" stroke-width="1.09718" stroke-linecap="round"/>
<ellipse cx="151.226" cy="91.043" rx="3.8158" ry="5.21003" fill="#26126F"/>
<ellipse cx="185.043" cy="90.3116" rx="3.8158" ry="5.21003" transform="rotate(-11.6671 185.043 90.3116)" fill="#26126F"/>
<circle cx="151.504" cy="88.8447" r="1.2483" fill="#F2F2F2"/>
<circle cx="185.043" cy="87.8259" r="1.2483" fill="#F2F2F2"/>
<path d="M148.491 115.184C147.129 118.537 144.546 124.5 142.652 129.561C142.652 129.561 157.355 132.011 162.288 122.835C167.221 113.659 169.556 111.041 169.268 109.256C169.008 107.644 165.754 105.915 163.275 106.395C161.819 106.677 160.506 108.769 160.161 109.256C158.102 112.155 157.23 113.493 154.678 114.759C152.608 115.786 149.509 115.388 148.491 115.184Z" fill="#9787FF"/>
<path d="M192.477 114.205C194.071 118.695 196.602 125.329 198.5 130.158C198.5 130.158 184.719 129.066 181.318 123.194C177.917 117.323 174.299 111.041 174.56 109.256C174.795 107.644 177.738 105.915 179.98 106.395C181.297 106.677 182.347 108.588 182.985 109.617C184.023 111.291 184.969 113.403 187.254 114.288C189.015 114.971 190.992 114.489 192.477 114.205Z" fill="#9787FF"/>
<defs>
<linearGradient id="paint0_linear_7_2030" x1="165.196" y1="159.75" x2="165.196" y2="37.1011" gradientUnits="userSpaceOnUse">
<stop stop-color="#6B57F9"/>
<stop offset="1" stop-color="#9787FF"/>
</linearGradient>
<linearGradient id="paint1_linear_7_2030" x1="136.735" y1="76.1229" x2="136.735" y2="65.5585" gradientUnits="userSpaceOnUse">
<stop stop-color="#6B57F9"/>
<stop offset="1" stop-color="#9787FF"/>
</linearGradient>
<linearGradient id="paint2_linear_7_2030" x1="195.535" y1="76.0487" x2="195.535" y2="65.5585" gradientUnits="userSpaceOnUse">
<stop stop-color="#6B57F9"/>
<stop offset="1" stop-color="#9787FF"/>
</linearGradient>
</defs>
</svg>
